<svg width="26" height="27" viewBox="0 0 26 27" fill="none" xmlns="http://www.w3.org/2000/svg">
<path fill-rule="evenodd" clip-rule="evenodd" d="M13.6735 13.8329L17.2412 17.4003L20.134 17.4003L18.734 15.9997L20.266 14.4676L24.282 18.4836L20.266 22.4997L18.7339 20.9676L20.134 19.567H16.3429L12.141 15.3654L13.6735 13.8329ZM20.266 3.63428L24.282 7.65031L20.266 11.6663L18.7339 10.1343L20.134 8.73363H17.2412L6.40701 19.567H2.16663V17.4003H5.50869L16.3429 6.567L20.134 6.56695L18.7339 5.16635L20.266 3.63428ZM6.40701 6.567L10.6089 10.7686L9.07638 12.301L5.50869 8.73363H2.16663V6.567H6.40701Z" fill="#052E44"/>
</svg>
