<svg width="26" height="27" viewBox="0 0 26 27" fill="none" xmlns="http://www.w3.org/2000/svg">
<path d="M13 2.09814C10.8306 2.09814 8.7099 2.74145 6.90609 3.94671C5.10229 5.15197 3.6964 6.86506 2.8662 8.86934C2.036 10.8736 1.81878 13.0791 2.24202 15.2068C2.66525 17.3345 3.70992 19.289 5.24393 20.823C6.77793 22.357 8.73238 23.4016 10.8601 23.8249C12.9878 24.2481 15.1933 24.0309 17.1976 23.2007C19.2018 22.3705 20.9149 20.9646 22.1202 19.1608C23.3254 17.357 23.9688 15.2363 23.9688 13.0669C23.9655 10.1588 22.8089 7.37072 20.7525 5.31438C18.6962 3.25804 15.9081 2.10137 13 2.09814ZM13 21.5981C11.3127 21.5981 9.66325 21.0978 8.2603 20.1604C6.85734 19.2229 5.76387 17.8905 5.11816 16.3317C4.47245 14.7728 4.3035 13.0574 4.63268 11.4025C4.96186 9.74763 5.77438 8.22751 6.9675 7.03439C8.16062 5.84127 9.68074 5.02875 11.3356 4.69957C12.9905 4.37039 14.7059 4.53934 16.2648 5.18505C17.8237 5.83076 19.1561 6.92423 20.0935 8.32719C21.0309 9.73014 21.5313 11.3796 21.5313 13.0669C21.5288 15.3288 20.6292 17.4973 19.0298 19.0967C17.4304 20.6961 15.2619 21.5957 13 21.5981ZM19.9063 13.0669C19.9063 13.3901 19.7778 13.7001 19.5493 13.9287C19.3207 14.1572 19.0107 14.2856 18.6875 14.2856H15.9453L17.9278 16.2671C18.1568 16.4961 18.2854 16.8066 18.2854 17.1304C18.2854 17.4542 18.1568 17.7647 17.9278 17.9937C17.6989 18.2226 17.3883 18.3513 17.0645 18.3513C16.7407 18.3513 16.4302 18.2226 16.2013 17.9937L12.1388 13.9312C11.9675 13.7609 11.8507 13.5436 11.8031 13.3068C11.7556 13.07 11.7795 12.8244 11.8717 12.6012C11.964 12.378 12.1205 12.1873 12.3214 12.0532C12.5223 11.9191 12.7585 11.8478 13 11.8481H18.6875C19.0107 11.8481 19.3207 11.9765 19.5493 12.2051C19.7778 12.4337 19.9063 12.7437 19.9063 13.0669Z" fill="#052E44"/>
</svg>
