<svg width="26" height="27" viewBox="0 0 26 27" fill="none" xmlns="http://www.w3.org/2000/svg">
<path d="M7.24977 2.07139C7.7106 2.06893 7.7106 2.06893 8.18074 2.06641C8.67422 2.07434 8.67422 2.07434 9.17767 2.08244C9.68685 2.08338 9.68685 2.08338 10.2063 2.08435C10.923 2.08699 11.639 2.09214 12.3555 2.10181C13.2745 2.11411 14.1933 2.11807 15.1123 2.11907C15.9891 2.12056 16.8659 2.12689 17.7428 2.13322C18.0734 2.13467 18.404 2.13612 18.7447 2.13762C19.0494 2.14195 19.354 2.14628 19.6679 2.15074C20.0713 2.15506 20.0713 2.15506 20.4829 2.15947C21.125 2.23372 21.125 2.23372 21.6667 2.77539C21.7318 3.32378 21.7318 3.32378 21.7282 4.00538C21.7281 4.26019 21.7281 4.51499 21.7281 4.77752C21.7253 5.05316 21.7225 5.3288 21.7196 5.61279C21.7188 5.89456 21.7181 6.17633 21.7173 6.46664C21.7142 7.36907 21.7074 8.27142 21.7005 9.17383C21.6978 9.78461 21.6954 10.3954 21.6931 11.0062C21.6872 12.5057 21.6781 14.0051 21.6667 15.5046C21.2181 15.6081 20.7663 15.6979 20.3125 15.7754C20.0417 15.5046 20.0417 15.5046 20.0091 15.0299C20.0097 14.8236 20.0103 14.6173 20.0109 14.4048C20.011 14.1683 20.011 13.9319 20.011 13.6884C20.0124 13.4383 20.0138 13.1882 20.0152 12.9306C20.0155 12.7019 20.0158 12.4733 20.0161 12.2377C20.0175 11.38 20.0213 10.5224 20.0248 9.66471C20.0303 7.74874 20.0359 5.83276 20.0417 3.85872C13.2045 3.99278 13.2045 3.99278 6.22919 4.12956C6.13981 9.04518 6.05044 13.9608 5.95835 19.0254C11.1421 19.0254 16.3259 19.0254 21.6667 19.0254C21.6667 20.4554 21.6667 21.8854 21.6667 23.3587C21.125 23.9004 21.125 23.9004 20.2431 23.9619C19.8677 23.9618 19.4924 23.9587 19.117 23.9533C18.9194 23.9525 18.7218 23.9518 18.5182 23.951C17.8862 23.9479 17.2544 23.9411 16.6224 23.9342C16.1943 23.9315 15.7662 23.9291 15.3381 23.9268C14.2878 23.9209 13.2377 23.9115 12.1875 23.9004C12.084 23.4519 11.9942 23 11.9167 22.5462C12.1875 22.2754 12.1875 22.2754 12.9393 22.2446C13.2669 22.2461 13.5945 22.2475 13.9321 22.2489C14.2856 22.2498 14.639 22.2507 15.0032 22.2516C15.3793 22.2538 15.7554 22.2561 16.1315 22.2585C16.5087 22.2598 16.8858 22.2611 17.263 22.2622C18.1892 22.2654 19.1155 22.2698 20.0417 22.2754C20.0417 21.7391 20.0417 21.2029 20.0417 20.6504C13.2045 20.7845 13.2045 20.7845 6.22919 20.9212C6.22919 21.2787 6.22919 21.6362 6.22919 22.0046C7.39106 22.0939 8.55294 22.1833 9.75002 22.2754C9.75002 22.8116 9.75002 23.3479 9.75002 23.9004C9.10063 23.9371 8.45334 23.9639 7.80341 23.985C7.62099 23.9964 7.43857 24.0077 7.25063 24.0194C6.24241 24.044 5.75986 23.9567 4.95758 23.3321C4.1915 22.3676 4.16212 21.8936 4.15813 20.6737C4.15457 20.3993 4.15457 20.3993 4.15094 20.1193C4.145 19.5175 4.14892 18.9163 4.1535 18.3145C4.15259 17.8946 4.15128 17.4747 4.14958 17.0548C4.14758 16.176 4.15047 15.2974 4.15681 14.4186C4.16452 13.2937 4.16008 12.1693 4.15197 11.0445C4.14707 10.1778 4.14864 9.31127 4.15214 8.44459C4.15305 8.02995 4.15195 7.61531 4.14879 7.20068C4.14533 6.62035 4.1506 6.04072 4.15813 5.46045C4.15921 5.13075 4.16029 4.80105 4.1614 4.46135C4.50259 2.72826 5.5506 2.06274 7.24977 2.07139Z" fill="#052E44"/>
<path d="M13.2539 6.78711C14.0833 6.83789 14.0833 6.83789 14.625 7.37956C14.6951 8.22803 14.6951 8.22803 14.6969 9.30924C14.6975 9.49956 14.698 9.68987 14.6985 9.88596C14.6989 10.2885 14.6979 10.691 14.6956 11.0935C14.6927 11.7105 14.6956 12.3273 14.6991 12.9443C14.6987 13.3351 14.698 13.7258 14.6969 14.1165C14.6963 14.4733 14.6957 14.8301 14.6951 15.1978C14.625 16.0462 14.625 16.0462 14.0833 16.5879C13.3724 16.7233 13.3724 16.7233 12.4583 16.5879C11.8985 16.2004 11.3847 15.7725 10.8587 15.3406C9.96889 14.7479 9.17834 14.7647 8.125 14.6921C7.48429 14.0514 7.51408 13.9196 7.51139 13.0501C7.51069 12.8344 7.51 12.6186 7.50928 12.3963C7.51137 12.1708 7.51347 11.9453 7.51562 11.7129C7.51353 11.4874 7.51144 11.2618 7.50928 11.0295C7.50998 10.8137 7.51067 10.5979 7.51139 10.3757C7.512 10.1777 7.51262 9.97975 7.51324 9.7758C7.58333 9.27539 7.58333 9.27539 8.125 8.73372C8.94808 8.68083 8.94808 8.68083 9.91927 8.69987C10.4021 8.7072 10.4021 8.7072 10.8947 8.71468C11.1426 8.72097 11.3904 8.72725 11.6458 8.73372C11.9505 9.74935 11.9505 9.74935 11.6458 10.3587C10.8415 10.3587 10.0371 10.3587 9.20833 10.3587C9.20833 11.2525 9.20833 12.1462 9.20833 13.0671C9.7781 13.0335 9.7781 13.0335 10.3594 12.9993C11.0068 12.9613 11.0068 12.9613 11.6458 13.0671C12.0033 13.4246 12.3608 13.7821 12.7292 14.1504C12.8185 12.3629 12.9079 10.5754 13 8.73372C12.6425 8.55497 12.285 8.37622 11.9167 8.19206C12.219 6.85317 12.219 6.85317 13.2539 6.78711Z" fill="#052E44"/>
<path d="M15.9792 8.7334C16.7409 8.64876 16.7409 8.64876 17.6042 8.7334C18.4556 9.70217 18.6221 10.718 18.6875 11.9834C18.4543 13.06 18.2157 13.7745 17.6042 14.6917C16.7579 14.7425 16.7579 14.7425 15.9792 14.6917C15.9355 13.7728 15.9463 13.1465 16.3008 12.2881C16.5789 11.2186 16.3308 10.7209 15.8787 9.74479C15.8225 9.58978 15.7663 9.43477 15.7084 9.27507C15.7977 9.09632 15.8871 8.91757 15.9792 8.7334Z" fill="#052E44"/>
</svg>
