<svg width="26" height="26" viewBox="0 0 26 26" fill="none" xmlns="http://www.w3.org/2000/svg">
<path d="M7.58337 15.1665C9.38171 15.1665 10.8334 13.7148 10.8334 11.9165C10.8334 10.1182 9.38171 8.6665 7.58337 8.6665C5.78504 8.6665 4.33337 10.1182 4.33337 11.9165C4.33337 13.7148 5.78504 15.1665 7.58337 15.1665ZM7.58337 10.8332C8.17921 10.8332 8.66671 11.3207 8.66671 11.9165C8.66671 12.5123 8.17921 12.9998 7.58337 12.9998C6.98754 12.9998 6.50004 12.5123 6.50004 11.9165C6.50004 11.3207 6.98754 10.8332 7.58337 10.8332ZM20.5834 7.58317H11.9167V16.2498H3.25004V5.4165H1.08337V21.6665H3.25004V18.4165H22.75V21.6665H24.9167V11.9165C24.9167 9.52234 22.9775 7.58317 20.5834 7.58317ZM22.75 16.2498H14.0834V9.74984H20.5834C21.775 9.74984 22.75 10.7248 22.75 11.9165V16.2498Z" fill="#052E44"/>
</svg>
