<svg width="26" height="27" viewBox="0 0 26 27" fill="none" xmlns="http://www.w3.org/2000/svg">
<path d="M2.6 18.267V14.367H1.3C0.955218 14.367 0.624558 14.23 0.380761 13.9862C0.136964 13.7424 0 13.4118 0 13.067C0 12.7222 0.136964 12.3916 0.380761 12.1478C0.624558 11.904 0.955218 11.767 1.3 11.767H2.6L7.8 2.66699H18.2L23.4 11.767H24.7C25.0448 11.767 25.3754 11.904 25.6192 12.1478C25.863 12.3916 26 12.7222 26 13.067C26 13.4118 25.863 13.7424 25.6192 13.9862C25.3754 14.23 25.0448 14.367 24.7 14.367H23.4V22.167C23.4 22.5118 23.263 22.8424 23.0192 23.0862C22.7754 23.33 22.4448 23.467 22.1 23.467H20.8C20.4552 23.467 20.1246 23.33 19.8808 23.0862C19.637 22.8424 19.5 22.5118 19.5 22.167V20.867H6.5V22.167C6.5 22.5118 6.36304 22.8424 6.11924 23.0862C5.87544 23.33 5.54478 23.467 5.2 23.467H3.9C3.55522 23.467 3.22456 23.33 2.98076 23.0862C2.73696 22.8424 2.6 22.5118 2.6 22.167V18.267ZM20.618 11.767L16.9 5.26699H9.1L5.382 11.767H20.618ZM7.15 18.267C7.40608 18.267 7.65965 18.2166 7.89623 18.1186C8.13282 18.0206 8.34778 17.8769 8.52886 17.6959C8.70993 17.5148 8.85357 17.2998 8.95156 17.0632C9.04956 16.8266 9.1 16.5731 9.1 16.317C9.1 16.0609 9.04956 15.8073 8.95156 15.5708C8.85357 15.3342 8.70993 15.1192 8.52886 14.9381C8.34778 14.7571 8.13282 14.6134 7.89623 14.5154C7.65965 14.4174 7.40608 14.367 7.15 14.367C6.63283 14.367 6.13684 14.5724 5.77114 14.9381C5.40545 15.3038 5.2 15.7998 5.2 16.317C5.2 16.8342 5.40545 17.3302 5.77114 17.6959C6.13684 18.0615 6.63283 18.267 7.15 18.267ZM18.85 18.267C19.1061 18.267 19.3596 18.2166 19.5962 18.1186C19.8328 18.0206 20.0478 17.8769 20.2289 17.6959C20.4099 17.5148 20.5536 17.2998 20.6516 17.0632C20.7496 16.8266 20.8 16.5731 20.8 16.317C20.8 16.0609 20.7496 15.8073 20.6516 15.5708C20.5536 15.3342 20.4099 15.1192 20.2289 14.9381C20.0478 14.7571 19.8328 14.6134 19.5962 14.5154C19.3596 14.4174 19.1061 14.367 18.85 14.367C18.3328 14.367 17.8368 14.5724 17.4711 14.9381C17.1054 15.3038 16.9 15.7998 16.9 16.317C16.9 16.8342 17.1054 17.3302 17.4711 17.6959C17.8368 18.0615 18.3328 18.267 18.85 18.267Z" fill="#052E44"/>
</svg>
