<svg width="364" height="335" viewBox="0 0 364 335" fill="none" xmlns="http://www.w3.org/2000/svg">
<path d="M114.251 1V332.919" stroke="#676F74" stroke-width="0.349485" stroke-linecap="round" stroke-linejoin="round"/>
<path d="M152.402 1V332.919" stroke="#676F74" stroke-width="0.349485" stroke-linecap="round" stroke-linejoin="round"/>
<path d="M176.056 1V332.919" stroke="#676F74" stroke-width="0.349485" stroke-linecap="round" stroke-linejoin="round"/>
<path d="M343.923 56.7012H209.63V333.682H343.923V56.7012Z" stroke="#676F74" stroke-width="0.349485" stroke-linecap="round" stroke-linejoin="round"/>
<path d="M350.065 56.7012H343.702V333.682H350.065V56.7012Z" fill="#263238" stroke="#676F74" stroke-width="0.349485" stroke-linecap="round" stroke-linejoin="round"/>
<path d="M343.809 82.4302H209.774V86.1232H343.809V82.4302Z" stroke="#676F74" stroke-width="0.349485" stroke-linecap="round" stroke-linejoin="round"/>
<path d="M210.034 90.4268H343.16" stroke="#676F74" stroke-width="0.349485" stroke-linecap="round" stroke-linejoin="round"/>
<path d="M229.469 58.7075H212.682V82.3615H229.469V58.7075Z" stroke="#676F74" stroke-width="0.349485" stroke-linecap="round" stroke-linejoin="round"/>
<path d="M231.246 58.7075H229.468V82.3615H231.246V58.7075Z" stroke="#676F74" stroke-width="0.349485" stroke-linecap="round" stroke-linejoin="round"/>
<path d="M250.07 58.7075H233.283V82.3615H250.07V58.7075Z" stroke="#676F74" stroke-width="0.349485" stroke-linecap="round" stroke-linejoin="round"/>
<path d="M251.848 58.7075H250.07V82.3615H251.848V58.7075Z" stroke="#676F74" stroke-width="0.349485" stroke-linecap="round" stroke-linejoin="round"/>
<path d="M269.238 62.9272H255.442V82.3693H269.238V62.9272Z" stroke="#676F74" stroke-width="0.349485" stroke-linecap="round" stroke-linejoin="round"/>
<path d="M270.703 62.9272H269.238V82.3693H270.703V62.9272Z" stroke="#676F74" stroke-width="0.349485" stroke-linecap="round" stroke-linejoin="round"/>
<path d="M291.274 58.7075H274.488V82.3615H291.274V58.7075Z" stroke="#676F74" stroke-width="0.349485" stroke-linecap="round" stroke-linejoin="round"/>
<path d="M293.052 58.7075H291.274V82.3615H293.052V58.7075Z" stroke="#676F74" stroke-width="0.349485" stroke-linecap="round" stroke-linejoin="round"/>
<path d="M312.189 62.9272H298.394V82.3693H312.189V62.9272Z" stroke="#676F74" stroke-width="0.349485" stroke-linecap="round" stroke-linejoin="round"/>
<path d="M313.661 62.9272H312.196V82.3693H313.661V62.9272Z" stroke="#676F74" stroke-width="0.349485" stroke-linecap="round" stroke-linejoin="round"/>
<path d="M332.79 62.9272H318.995V82.3693H332.79V62.9272Z" stroke="#676F74" stroke-width="0.349485" stroke-linecap="round" stroke-linejoin="round"/>
<path d="M334.264 62.9272H332.799V82.3693H334.264V62.9272Z" stroke="#676F74" stroke-width="0.349485" stroke-linecap="round" stroke-linejoin="round"/>
<path d="M343.809 122.108H209.774V125.801H343.809V122.108Z" stroke="#676F74" stroke-width="0.349485" stroke-linecap="round" stroke-linejoin="round"/>
<path d="M210.034 130.105H343.16" stroke="#676F74" stroke-width="0.349485" stroke-linecap="round" stroke-linejoin="round"/>
<path d="M229.324 96.4541H211.164V122.039H229.324V96.4541Z" stroke="#676F74" stroke-width="0.349485" stroke-linecap="round" stroke-linejoin="round"/>
<path d="M231.246 96.4541H229.323V122.039H231.246V96.4541Z" stroke="#676F74" stroke-width="0.349485" stroke-linecap="round" stroke-linejoin="round"/>
<path d="M250.07 98.3857H233.283V122.04H250.07V98.3857Z" stroke="#676F74" stroke-width="0.349485" stroke-linecap="round" stroke-linejoin="round"/>
<path d="M251.848 98.3857H250.07V122.04H251.848V98.3857Z" stroke="#676F74" stroke-width="0.349485" stroke-linecap="round" stroke-linejoin="round"/>
<path d="M270.672 98.3857H253.886V122.04H270.672V98.3857Z" stroke="#676F74" stroke-width="0.349485" stroke-linecap="round" stroke-linejoin="round"/>
<path d="M272.451 98.3857H270.673V122.04H272.451V98.3857Z" stroke="#676F74" stroke-width="0.349485" stroke-linecap="round" stroke-linejoin="round"/>
<path d="M291.03 98.7358H274.488V122.046H291.03V98.7358Z" stroke="#676F74" stroke-width="0.349485" stroke-linecap="round" stroke-linejoin="round"/>
<path d="M292.785 98.7358H291.03V122.046H292.785V98.7358Z" stroke="#676F74" stroke-width="0.349485" stroke-linecap="round" stroke-linejoin="round"/>
<path d="M312.066 100.911H297.073V122.039H312.066V100.911Z" stroke="#676F74" stroke-width="0.349485" stroke-linecap="round" stroke-linejoin="round"/>
<path d="M313.654 100.911H312.066V122.039H313.654V100.911Z" stroke="#676F74" stroke-width="0.349485" stroke-linecap="round" stroke-linejoin="round"/>
<path d="M335.866 93.6084H315.691V122.039H335.866V93.6084Z" stroke="#676F74" stroke-width="0.349485" stroke-linecap="round" stroke-linejoin="round"/>
<path d="M338.002 93.6084H335.866V122.039H338.002V93.6084Z" stroke="#676F74" stroke-width="0.349485" stroke-linecap="round" stroke-linejoin="round"/>
<path d="M343.809 161.786H209.774V165.479H343.809V161.786Z" stroke="#676F74" stroke-width="0.349485" stroke-linecap="round" stroke-linejoin="round"/>
<path d="M210.034 169.782H343.16" stroke="#676F74" stroke-width="0.349485" stroke-linecap="round" stroke-linejoin="round"/>
<path d="M229.469 138.063H212.682V161.717H229.469V138.063Z" stroke="#676F74" stroke-width="0.349485" stroke-linecap="round" stroke-linejoin="round"/>
<path d="M231.246 138.063H229.468V161.717H231.246V138.063Z" stroke="#676F74" stroke-width="0.349485" stroke-linecap="round" stroke-linejoin="round"/>
<path d="M250.07 138.063H233.283V161.717H250.07V138.063Z" stroke="#676F74" stroke-width="0.349485" stroke-linecap="round" stroke-linejoin="round"/>
<path d="M251.848 138.063H250.07V161.717H251.848V138.063Z" stroke="#676F74" stroke-width="0.349485" stroke-linecap="round" stroke-linejoin="round"/>
<path d="M270.672 138.063H253.886V161.717H270.672V138.063Z" stroke="#676F74" stroke-width="0.349485" stroke-linecap="round" stroke-linejoin="round"/>
<path d="M272.451 138.063H270.673V161.717H272.451V138.063Z" stroke="#676F74" stroke-width="0.349485" stroke-linecap="round" stroke-linejoin="round"/>
<path d="M291.457 140.512H276.402V161.724H291.457V140.512Z" stroke="#676F74" stroke-width="0.349485" stroke-linecap="round" stroke-linejoin="round"/>
<path d="M293.052 140.512H291.457V161.724H293.052V140.512Z" stroke="#676F74" stroke-width="0.349485" stroke-linecap="round" stroke-linejoin="round"/>
<path d="M311.876 138.063H295.089V161.717H311.876V138.063Z" stroke="#676F74" stroke-width="0.349485" stroke-linecap="round" stroke-linejoin="round"/>
<path d="M313.654 138.063H311.876V161.717H313.654V138.063Z" stroke="#676F74" stroke-width="0.349485" stroke-linecap="round" stroke-linejoin="round"/>
<path d="M332.478 138.063H315.691V161.717H332.478V138.063Z" stroke="#676F74" stroke-width="0.349485" stroke-linecap="round" stroke-linejoin="round"/>
<path d="M334.255 138.063H332.478V161.717H334.255V138.063Z" stroke="#676F74" stroke-width="0.349485" stroke-linecap="round" stroke-linejoin="round"/>
<path d="M343.809 201.463H209.774V205.156H343.809V201.463Z" stroke="#676F74" stroke-width="0.349485" stroke-linecap="round" stroke-linejoin="round"/>
<path d="M210.034 209.46H343.16" stroke="#676F74" stroke-width="0.349485" stroke-linecap="round" stroke-linejoin="round"/>
<path d="M229.469 177.741H212.682V201.395H229.469V177.741Z" stroke="#676F74" stroke-width="0.349485" stroke-linecap="round" stroke-linejoin="round"/>
<path d="M231.246 177.741H229.468V201.395H231.246V177.741Z" stroke="#676F74" stroke-width="0.349485" stroke-linecap="round" stroke-linejoin="round"/>
<path d="M250.07 177.741H233.283V201.395H250.07V177.741Z" stroke="#676F74" stroke-width="0.349485" stroke-linecap="round" stroke-linejoin="round"/>
<path d="M251.848 177.741H250.07V201.395H251.848V177.741Z" stroke="#676F74" stroke-width="0.349485" stroke-linecap="round" stroke-linejoin="round"/>
<path d="M270.672 177.741H253.886V201.395H270.672V177.741Z" stroke="#676F74" stroke-width="0.349485" stroke-linecap="round" stroke-linejoin="round"/>
<path d="M272.451 177.741H270.673V201.395H272.451V177.741Z" stroke="#676F74" stroke-width="0.349485" stroke-linecap="round" stroke-linejoin="round"/>
<path d="M291.274 177.741H274.488V201.395H291.274V177.741Z" stroke="#676F74" stroke-width="0.349485" stroke-linecap="round" stroke-linejoin="round"/>
<path d="M293.052 177.741H291.274V201.395H293.052V177.741Z" stroke="#676F74" stroke-width="0.349485" stroke-linecap="round" stroke-linejoin="round"/>
<path d="M311.876 177.741H295.089V201.395H311.876V177.741Z" stroke="#676F74" stroke-width="0.349485" stroke-linecap="round" stroke-linejoin="round"/>
<path d="M313.654 177.741H311.876V201.395H313.654V177.741Z" stroke="#676F74" stroke-width="0.349485" stroke-linecap="round" stroke-linejoin="round"/>
<path d="M332.478 177.741H315.691V201.395H332.478V177.741Z" stroke="#676F74" stroke-width="0.349485" stroke-linecap="round" stroke-linejoin="round"/>
<path d="M334.255 177.741H332.478V201.395H334.255V177.741Z" stroke="#676F74" stroke-width="0.349485" stroke-linecap="round" stroke-linejoin="round"/>
<path d="M343.809 241.141H209.774V244.834H343.809V241.141Z" stroke="#676F74" stroke-width="0.349485" stroke-linecap="round" stroke-linejoin="round"/>
<path d="M210.034 249.138H343.16" stroke="#676F74" stroke-width="0.349485" stroke-linecap="round" stroke-linejoin="round"/>
<path d="M229.469 217.418H212.682V241.072H229.469V217.418Z" stroke="#676F74" stroke-width="0.349485" stroke-linecap="round" stroke-linejoin="round"/>
<path d="M231.246 217.418H229.468V241.072H231.246V217.418Z" stroke="#676F74" stroke-width="0.349485" stroke-linecap="round" stroke-linejoin="round"/>
<path d="M250.07 217.418H233.283V241.072H250.07V217.418Z" stroke="#676F74" stroke-width="0.349485" stroke-linecap="round" stroke-linejoin="round"/>
<path d="M251.848 217.418H250.07V241.072H251.848V217.418Z" stroke="#676F74" stroke-width="0.349485" stroke-linecap="round" stroke-linejoin="round"/>
<path d="M270.672 217.418H253.886V241.072H270.672V217.418Z" stroke="#676F74" stroke-width="0.349485" stroke-linecap="round" stroke-linejoin="round"/>
<path d="M272.451 217.418H270.673V241.072H272.451V217.418Z" stroke="#676F74" stroke-width="0.349485" stroke-linecap="round" stroke-linejoin="round"/>
<path d="M291.274 217.418H274.488V241.072H291.274V217.418Z" stroke="#676F74" stroke-width="0.349485" stroke-linecap="round" stroke-linejoin="round"/>
<path d="M293.052 217.418H291.274V241.072H293.052V217.418Z" stroke="#676F74" stroke-width="0.349485" stroke-linecap="round" stroke-linejoin="round"/>
<path d="M311.876 217.418H295.089V241.072H311.876V217.418Z" stroke="#676F74" stroke-width="0.349485" stroke-linecap="round" stroke-linejoin="round"/>
<path d="M313.654 217.418H311.876V241.072H313.654V217.418Z" stroke="#676F74" stroke-width="0.349485" stroke-linecap="round" stroke-linejoin="round"/>
<path d="M332.478 217.418H315.691V241.072H332.478V217.418Z" stroke="#676F74" stroke-width="0.349485" stroke-linecap="round" stroke-linejoin="round"/>
<path d="M334.255 217.418H332.478V241.072H334.255V217.418Z" stroke="#676F74" stroke-width="0.349485" stroke-linecap="round" stroke-linejoin="round"/>
<path d="M343.809 280.819H209.774V284.512H343.809V280.819Z" stroke="#676F74" stroke-width="0.349485" stroke-linecap="round" stroke-linejoin="round"/>
<path d="M210.034 288.815H343.16" stroke="#676F74" stroke-width="0.349485" stroke-linecap="round" stroke-linejoin="round"/>
<path d="M229.469 257.097H212.682V280.751H229.469V257.097Z" stroke="#676F74" stroke-width="0.349485" stroke-linecap="round" stroke-linejoin="round"/>
<path d="M231.246 257.097H229.468V280.751H231.246V257.097Z" stroke="#676F74" stroke-width="0.349485" stroke-linecap="round" stroke-linejoin="round"/>
<path d="M250.07 257.097H233.283V280.751H250.07V257.097Z" stroke="#676F74" stroke-width="0.349485" stroke-linecap="round" stroke-linejoin="round"/>
<path d="M251.848 257.097H250.07V280.751H251.848V257.097Z" stroke="#676F74" stroke-width="0.349485" stroke-linecap="round" stroke-linejoin="round"/>
<path d="M270.672 257.097H253.886V280.751H270.672V257.097Z" stroke="#676F74" stroke-width="0.349485" stroke-linecap="round" stroke-linejoin="round"/>
<path d="M272.451 257.097H270.673V280.751H272.451V257.097Z" stroke="#676F74" stroke-width="0.349485" stroke-linecap="round" stroke-linejoin="round"/>
<path d="M291.274 257.097H274.488V280.751H291.274V257.097Z" stroke="#676F74" stroke-width="0.349485" stroke-linecap="round" stroke-linejoin="round"/>
<path d="M293.052 257.097H291.274V280.751H293.052V257.097Z" stroke="#676F74" stroke-width="0.349485" stroke-linecap="round" stroke-linejoin="round"/>
<path d="M311.876 257.097H295.089V280.751H311.876V257.097Z" stroke="#676F74" stroke-width="0.349485" stroke-linecap="round" stroke-linejoin="round"/>
<path d="M313.654 257.097H311.876V280.751H313.654V257.097Z" stroke="#676F74" stroke-width="0.349485" stroke-linecap="round" stroke-linejoin="round"/>
<path d="M332.478 257.097H315.691V280.751H332.478V257.097Z" stroke="#676F74" stroke-width="0.349485" stroke-linecap="round" stroke-linejoin="round"/>
<path d="M334.255 257.097H332.478V280.751H334.255V257.097Z" stroke="#676F74" stroke-width="0.349485" stroke-linecap="round" stroke-linejoin="round"/>
<path d="M343.809 320.497H209.774V324.19H343.809V320.497Z" stroke="#676F74" stroke-width="0.349485" stroke-linecap="round" stroke-linejoin="round"/>
<path d="M210.034 328.493H343.16" stroke="#676F74" stroke-width="0.349485" stroke-linecap="round" stroke-linejoin="round"/>
<path d="M229.469 296.774H212.682V320.428H229.469V296.774Z" stroke="#676F74" stroke-width="0.349485" stroke-linecap="round" stroke-linejoin="round"/>
<path d="M231.246 296.774H229.468V320.428H231.246V296.774Z" stroke="#676F74" stroke-width="0.349485" stroke-linecap="round" stroke-linejoin="round"/>
<path d="M250.07 296.774H233.283V320.428H250.07V296.774Z" stroke="#676F74" stroke-width="0.349485" stroke-linecap="round" stroke-linejoin="round"/>
<path d="M251.848 296.774H250.07V320.428H251.848V296.774Z" stroke="#676F74" stroke-width="0.349485" stroke-linecap="round" stroke-linejoin="round"/>
<path d="M270.672 296.774H253.886V320.428H270.672V296.774Z" stroke="#676F74" stroke-width="0.349485" stroke-linecap="round" stroke-linejoin="round"/>
<path d="M272.451 296.774H270.673V320.428H272.451V296.774Z" stroke="#676F74" stroke-width="0.349485" stroke-linecap="round" stroke-linejoin="round"/>
<path d="M291.274 296.774H274.488V320.428H291.274V296.774Z" stroke="#676F74" stroke-width="0.349485" stroke-linecap="round" stroke-linejoin="round"/>
<path d="M293.052 296.774H291.274V320.428H293.052V296.774Z" stroke="#676F74" stroke-width="0.349485" stroke-linecap="round" stroke-linejoin="round"/>
<path d="M311.876 296.774H295.089V320.428H311.876V296.774Z" stroke="#676F74" stroke-width="0.349485" stroke-linecap="round" stroke-linejoin="round"/>
<path d="M313.654 296.774H311.876V320.428H313.654V296.774Z" stroke="#676F74" stroke-width="0.349485" stroke-linecap="round" stroke-linejoin="round"/>
<path d="M332.478 296.774H315.691V320.428H332.478V296.774Z" stroke="#676F74" stroke-width="0.349485" stroke-linecap="round" stroke-linejoin="round"/>
<path d="M334.255 296.774H332.478V320.428H334.255V296.774Z" stroke="#676F74" stroke-width="0.349485" stroke-linecap="round" stroke-linejoin="round"/>
<path d="M138.76 137.582H127.894V185.905H138.76V137.582Z" fill="#263238" stroke="#263238" stroke-width="0.349485" stroke-linecap="round" stroke-linejoin="round"/>
<path d="M165.634 118.255H101.028V166.578H165.634V118.255Z" fill="#263238" stroke="#263238" stroke-width="0.349485" stroke-linecap="round" stroke-linejoin="round"/>
<path d="M160.705 121.933H105.95V162.892H160.705V121.933Z" fill="#E5E5E5" stroke="#263238" stroke-width="0.349485" stroke-linecap="round" stroke-linejoin="round"/>
<path d="M202.977 323.862L202.099 333.682H166.084C166.084 333.682 165.214 329.752 167.175 328.226C169.136 326.7 176.332 325.388 177.858 324.953C179.384 324.518 182.436 322.114 182.436 322.114L202.977 323.862Z" fill="#263238" stroke="#263238" stroke-width="0.349485" stroke-linecap="round" stroke-linejoin="round"/>
<path d="M202.29 331.438L202.1 333.682H166.084C165.942 332.953 165.881 332.211 165.901 331.469C176.225 331.431 195.736 331.393 202.29 331.438Z" fill="#919191" stroke="#263238" stroke-width="0.349485" stroke-linecap="round" stroke-linejoin="round"/>
<path d="M202.763 221.28C202.763 221.28 201.672 247.032 201.672 253.8C201.672 260.568 207.128 273.227 207.349 280.644C207.57 288.06 203.633 319.497 203.633 319.497L187.266 319.276C187.266 319.276 185.977 306.213 185.511 293.745C185.046 281.277 180.056 251.183 178.964 241.142C177.873 231.1 175.47 220.402 175.47 220.402L202.763 221.28Z" fill="#263238" stroke="#263238" stroke-width="0.349485" stroke-linecap="round" stroke-linejoin="round"/>
<path d="M205.594 317.314L204.282 324.517L187.258 323.64V315.567L205.594 317.314Z" fill="#919191" stroke="#263238" stroke-width="0.349485" stroke-linecap="round" stroke-linejoin="round"/>
<path d="M207.342 204.035C207.342 204.035 205.373 213.855 204.503 218.219C203.633 222.584 199.261 234.159 199.048 239.172C198.834 244.185 197.079 263.185 197.079 273.661C197.079 284.138 196.644 286.755 194.462 295.705C192.279 304.656 190.097 319.062 190.097 319.062C186.811 319.141 183.524 318.922 180.277 318.405C176.74 317.882 173.333 316.696 170.235 314.911L170.014 310.767C170.014 310.767 168.923 304.869 168.488 303.137C168.053 301.405 171.105 293.531 171.105 292.661C171.105 291.791 168.709 288.945 167.832 284.58C166.954 280.216 163.902 254.463 163.902 250.747C163.902 247.031 162.597 221.287 162.597 221.287C162.597 221.287 159.973 204.698 159.973 202.73C159.973 200.761 195.553 200.547 201.443 200.113C207.334 199.678 209.303 200.761 207.342 204.035Z" fill="#919191" stroke="#263238" stroke-width="0.349485" stroke-linecap="round" stroke-linejoin="round"/>
<path d="M176.82 208.834C176.82 208.834 181.62 216.693 187.297 219.097" stroke="#263238" stroke-width="0.349485" stroke-linecap="round" stroke-linejoin="round"/>
<path d="M184.985 237.875L184.642 239.615" stroke="#263238" stroke-width="0.349485" stroke-linecap="round" stroke-linejoin="round"/>
<path d="M190.532 209.712L185.595 234.785" stroke="#263238" stroke-width="0.349485" stroke-linecap="round" stroke-linejoin="round"/>
<path d="M195.133 240.707C191.804 241.181 188.452 241.471 185.091 241.576H171.761L171.547 246.376C175.211 247.082 178.943 247.376 182.672 247.253C186.852 247.045 191.011 246.535 195.117 245.727L195.133 240.707Z" stroke="#263238" stroke-width="0.349485" stroke-linecap="round" stroke-linejoin="round"/>
<path d="M195.132 245.728C195.132 245.728 194.697 254.235 194.911 260.568C195.125 266.902 192.515 267.985 189.677 267.985C186.838 267.985 174.179 269.511 172.432 268.206C170.685 266.902 170.029 263.407 170.685 260.576C171.341 257.745 171.562 246.384 171.562 246.384" stroke="#263238" stroke-width="0.349485" stroke-linecap="round" stroke-linejoin="round"/>
<path d="M188.784 326.052L188.128 333.682H152.12C152.12 333.682 151.243 329.752 153.211 328.226C155.18 326.7 162.368 325.388 163.894 324.953C165.42 324.518 168.472 322.114 168.472 322.114L188.784 326.052Z" fill="#263238" stroke="#263238" stroke-width="0.349485" stroke-linecap="round" stroke-linejoin="round"/>
<path d="M188.327 331.438L188.128 333.682H152.121C151.974 332.954 151.91 332.211 151.93 331.469C162.254 331.431 181.764 331.393 188.327 331.438Z" fill="white" stroke="#263238" stroke-width="0.349485" stroke-linecap="round" stroke-linejoin="round"/>
<path d="M192.501 316.224C192.501 316.224 192.058 326.265 190.311 326.7C188.563 327.135 166.306 323.427 166.085 321.68C165.863 319.932 168.053 316.659 168.267 315.575C168.48 314.492 168.488 312.737 169.358 311.432C170.228 310.127 186.824 314.042 192.501 316.224Z" fill="white" stroke="#263238" stroke-width="0.349485" stroke-linecap="round" stroke-linejoin="round"/>
<path d="M102.439 180.618C102.439 180.618 98.9138 181.518 97.9371 182.342C96.9605 183.166 95.648 185.341 96.0677 186.234C96.4874 187.127 97.2657 186.76 97.5938 186.31C98.438 185.01 99.5047 183.868 100.745 182.938C102.071 182.149 103.448 181.448 104.865 180.839C104.116 180.452 103.246 180.373 102.439 180.618Z" fill="#E5E5E5" stroke="#263238" stroke-width="0.349485" stroke-linecap="round" stroke-linejoin="round"/>
<path d="M166.328 127.556L151.144 162.472C151.144 162.472 146.085 164.502 135.959 168.294C125.834 172.087 115.213 176.901 112.679 177.657C110.146 178.412 104.08 179.679 101.043 181.472C98.0063 183.265 95.389 186.897 97.4111 187.149C98.1207 187.24 98.1741 187.973 99.9596 187.752C100.682 187.595 101.354 187.259 101.913 186.775C103.255 185.769 104.756 184.995 106.354 184.486C108.547 183.909 110.834 183.787 113.076 184.127C114.088 184.271 115.116 184.271 116.128 184.127C117.317 183.327 118.444 182.439 119.501 181.472C119.501 181.472 137.211 179.946 144.299 178.687C151.388 177.428 162.009 173.88 162.009 173.88L173.401 127.823L166.328 127.556Z" fill="white" stroke="#263238" stroke-width="0.349485" stroke-linecap="round" stroke-linejoin="round"/>
<path d="M106.102 181.457C106.102 181.457 98.7619 183.983 98.2583 187.02" stroke="#263238" stroke-width="0.349485" stroke-linecap="round" stroke-linejoin="round"/>
<path d="M119.516 181.457C118.44 182.512 117.25 183.444 115.968 184.234C114.198 185.249 111.924 184.746 110.154 185.761C108.383 186.775 107.865 187.531 105.85 187.287C103.836 187.042 103.82 185.265 106.354 184.509C107.498 184.224 108.602 183.798 109.642 183.243L111.168 181.472" fill="white"/>
<path d="M119.516 181.457C118.44 182.512 117.25 183.444 115.968 184.234C114.198 185.249 111.924 184.746 110.154 185.761C108.383 186.775 107.865 187.531 105.85 187.287C103.836 187.042 103.82 185.265 106.354 184.509C107.498 184.224 108.602 183.798 109.642 183.243L111.168 181.472" stroke="#263238" stroke-width="0.349485" stroke-linecap="round" stroke-linejoin="round"/>
<path d="M130.619 140.345L79.8237 141.352L72.7886 186.043L135.144 186.546L130.619 140.345Z" fill="#2CE07F" stroke="#263238" stroke-width="0.349485" stroke-linecap="round" stroke-linejoin="round"/>
<path d="M124.598 186.043L126.605 140.345L100.517 171.156L79.8232 141.352" stroke="#263238" stroke-width="0.349485" stroke-linecap="round" stroke-linejoin="round"/>
<path d="M194.683 100.797C194.683 100.797 198.826 102.323 204.938 108C211.05 113.677 215.849 128.518 216.505 136.377C217.162 144.236 212.362 168.241 212.362 174.132C212.362 180.022 210.615 205.347 209.737 206.004C208.86 206.66 181.368 208.834 169.144 208.186C156.92 207.537 156.264 202.722 154.959 198.144C153.655 193.566 152.769 181.556 154.738 167.806C156.707 154.056 159.103 136.156 164.558 126.992C170.014 117.828 173.715 113.02 178.293 108.87C182.871 104.719 191.409 100.362 194.683 100.797Z" fill="#263238" stroke="#263238" stroke-width="0.349485" stroke-linecap="round" stroke-linejoin="round"/>
<path d="M186.526 149.76L176.125 149.096V131.615L186.526 132.279V149.76Z" fill="#2CE07F"/>
<path d="M182.543 129.181H180.552V134.492H182.543V129.181Z" fill="white" stroke="#263238" stroke-width="0.349485" stroke-linecap="round" stroke-linejoin="round"/>
<path d="M184.312 146.067L178.338 145.487V136.415L184.312 136.994V146.067Z" fill="white"/>
<path d="M186.609 127.93L202.427 163.106L173.6 176.703C173.6 176.703 157.149 176.795 155.867 176.573C154.585 176.352 143.292 183.441 142.72 184.051C142.643 184.133 142.583 184.23 142.544 184.336C142.506 184.442 142.489 184.554 142.494 184.667C142.5 184.779 142.528 184.89 142.578 184.991C142.627 185.092 142.696 185.183 142.781 185.257C142.781 185.257 141.354 186.6 142.353 187.37L143.345 188.133C143.345 188.133 143.238 188.774 144.688 189.56C146.138 190.346 146.802 189.988 146.802 189.988C147.757 189.783 148.694 189.5 149.602 189.141C150.815 188.622 154.501 185.676 155.142 185.791C155.783 185.905 162.963 186.935 165.824 186.829C168.686 186.722 170.891 183.921 170.891 183.921C170.891 183.921 195.651 183.609 204.121 181.35C212.59 179.091 223.113 173.018 225.02 170.759C226.928 168.501 220.183 139.131 217.779 132.684C215.375 126.236 211.598 119.3 210.523 118.255" fill="#263238"/>
<path d="M186.609 127.93L202.427 163.106L173.6 176.703C173.6 176.703 157.149 176.795 155.867 176.573C154.585 176.352 143.292 183.441 142.72 184.051C142.643 184.133 142.583 184.23 142.544 184.336C142.506 184.442 142.489 184.554 142.494 184.667C142.5 184.779 142.528 184.89 142.578 184.991C142.627 185.092 142.696 185.183 142.781 185.257C142.781 185.257 141.354 186.6 142.353 187.37L143.345 188.133C143.345 188.133 143.238 188.774 144.688 189.56C146.138 190.346 146.802 189.988 146.802 189.988C147.757 189.783 148.694 189.5 149.602 189.141C150.815 188.622 154.501 185.676 155.142 185.791C155.783 185.905 162.963 186.935 165.824 186.829C168.686 186.722 170.891 183.921 170.891 183.921C170.891 183.921 195.651 183.609 204.121 181.35C212.59 179.091 223.113 173.018 225.02 170.759C226.928 168.501 220.183 139.131 217.779 132.684C215.375 126.236 211.598 119.3 210.523 118.255" stroke="#263238" stroke-width="0.349485" stroke-linecap="round" stroke-linejoin="round"/>
<path d="M146.802 189.988C146.802 189.988 146.146 190.339 144.688 189.561C143.231 188.782 143.345 188.134 143.345 188.134L142.353 187.371C141.354 186.608 142.781 185.257 142.781 185.257C142.696 185.183 142.627 185.093 142.578 184.991C142.528 184.89 142.5 184.78 142.494 184.667C142.489 184.555 142.506 184.442 142.544 184.337C142.583 184.231 142.643 184.134 142.72 184.052C143.292 183.426 154.577 176.353 155.867 176.574C157.156 176.795 173.6 176.704 173.6 176.704L202.427 163.106L195.773 148.304L219.427 138.094C222.342 148.815 226.6 168.913 225.028 170.76C223.12 173.049 212.598 179.092 204.128 181.35C195.659 183.609 170.898 183.922 170.898 183.922C170.898 183.922 168.693 186.722 165.832 186.829C162.97 186.936 155.783 185.898 155.149 185.791C154.516 185.685 150.823 188.622 149.602 189.141C148.694 189.501 147.757 189.785 146.802 189.988Z" fill="white" stroke="#263238" stroke-width="0.349485" stroke-linecap="round" stroke-linejoin="round"/>
<path d="M142.781 185.256L151.77 180.35" stroke="#263238" stroke-width="0.349485" stroke-linecap="round" stroke-linejoin="round"/>
<path d="M143.621 187.859L152.06 182.22" stroke="#263238" stroke-width="0.349485" stroke-linecap="round" stroke-linejoin="round"/>
<path d="M145.765 189.957C145.716 189.853 145.688 189.74 145.684 189.626C145.68 189.511 145.699 189.397 145.741 189.29C145.782 189.183 145.845 189.085 145.925 189.003C146.005 188.921 146.101 188.856 146.207 188.812C146.97 188.461 153.158 184.021 153.158 184.021" stroke="#263238" stroke-width="0.349485" stroke-linecap="round" stroke-linejoin="round"/>
<path d="M171.624 106.428L175.295 109.236C175.295 109.236 168.603 122.207 171.624 122.84C174.646 123.474 185.016 109.67 188.899 105.13C192.783 100.59 194.683 100.796 194.683 100.796C194.683 100.796 189.983 95.4552 188.251 91.3119C186.519 87.1686 185.664 84.6201 185.664 84.6201L171.624 106.428Z" fill="white" stroke="#263238" stroke-width="0.349485" stroke-linecap="round" stroke-linejoin="round"/>
<path d="M159.224 72.8397C159.224 72.8397 158.858 89.8782 159.338 92.8845C159.819 95.8909 163.978 104.238 165.557 106.039C167.136 107.84 173.599 108.099 175.95 106.695C178.3 105.291 184.282 97.6535 185.342 94.6471C185.985 92.8474 186.378 90.9681 186.51 89.0617C186.51 89.0617 190.264 90.0079 192.385 85.5518C194.506 81.0957 192.385 77.5705 189.593 77.7612L187.204 78.9134C187.204 78.9134 190.478 70.4209 188.417 67.1475C186.357 63.8741 168.083 65.507 164.321 66.1021C160.559 66.6973 159.224 72.8397 159.224 72.8397Z" fill="white" stroke="#263238" stroke-width="0.349485" stroke-linecap="round" stroke-linejoin="round"/>
<path d="M172.792 82.6444C172.792 82.6444 175.348 80.7291 177.896 82.2171" stroke="#263238" stroke-width="0.349485" stroke-linecap="round" stroke-linejoin="round"/>
<path d="M160.453 81.3628C160.453 81.3628 163.642 80.5158 164.268 82.8888" stroke="#263238" stroke-width="0.349485" stroke-linecap="round" stroke-linejoin="round"/>
<path d="M163.268 82.385C163.268 82.6054 163.203 82.8207 163.08 83.0039C162.958 83.1871 162.784 83.3299 162.58 83.4143C162.377 83.4986 162.153 83.5206 161.937 83.4776C161.721 83.4347 161.522 83.3286 161.366 83.1728C161.211 83.017 161.104 82.8185 161.061 82.6024C161.018 82.3863 161.041 82.1623 161.125 81.9587C161.209 81.7551 161.352 81.5812 161.535 81.4588C161.718 81.3363 161.934 81.271 162.154 81.271C162.449 81.273 162.731 81.391 162.94 81.5995C163.148 81.808 163.266 82.0902 163.268 82.385Z" fill="#263238"/>
<path d="M175.965 83.033C175.965 83.2533 175.9 83.4687 175.778 83.6519C175.655 83.8351 175.481 83.9779 175.278 84.0622C175.074 84.1465 174.85 84.1686 174.634 84.1256C174.418 84.0826 174.219 83.9765 174.064 83.8207C173.908 83.6649 173.802 83.4664 173.759 83.2503C173.716 83.0342 173.738 82.8102 173.822 82.6066C173.906 82.4031 174.049 82.2291 174.232 82.1067C174.416 81.9843 174.631 81.9189 174.851 81.9189C175.147 81.9189 175.43 82.0363 175.639 82.2452C175.848 82.4542 175.965 82.7375 175.965 83.033Z" fill="#263238"/>
<path d="M174.699 73.7698L178.987 74.9067C179.137 74.9444 179.276 75.0129 179.397 75.1079C179.518 75.2029 179.618 75.3222 179.69 75.4581C179.762 75.5941 179.804 75.7436 179.815 75.897C179.825 76.0505 179.803 76.2044 179.751 76.3488L179.644 76.6388C179.544 76.91 179.342 77.1317 179.081 77.257C178.821 77.3823 178.522 77.4014 178.247 77.3103L174.074 75.8834C173.934 75.8364 173.805 75.7618 173.695 75.664C173.584 75.5662 173.495 75.4472 173.431 75.314C173.368 75.1809 173.332 75.0363 173.326 74.889C173.319 74.7417 173.343 74.5946 173.394 74.4565C173.488 74.2006 173.673 73.9887 173.915 73.8618C174.156 73.7349 174.435 73.7021 174.699 73.7698Z" fill="#263238" stroke="#263238" stroke-width="0.349485" stroke-linecap="round" stroke-linejoin="round"/>
<path d="M165.222 74.2508V74.3195C165.272 74.4293 165.299 74.5481 165.302 74.6687C165.305 74.7893 165.283 74.9092 165.238 75.0212C165.193 75.1332 165.126 75.2349 165.04 75.3202C164.955 75.4054 164.853 75.4725 164.741 75.5174L161.766 76.7078C161.64 76.7574 161.505 76.7783 161.371 76.7689C161.236 76.7595 161.106 76.72 160.989 76.6534C160.871 76.5868 160.771 76.4947 160.694 76.3839C160.617 76.2731 160.566 76.1465 160.545 76.0134C160.515 75.8166 160.551 75.6156 160.648 75.4417C160.745 75.2677 160.896 75.1307 161.079 75.052L164.024 73.793C164.133 73.7435 164.25 73.7161 164.369 73.7124C164.489 73.7086 164.607 73.7286 164.719 73.7712C164.83 73.8138 164.932 73.8782 165.019 73.9605C165.105 74.0428 165.174 74.1415 165.222 74.2508Z" fill="#263238" stroke="#263238" stroke-width="0.349485" stroke-linecap="round" stroke-linejoin="round"/>
<path d="M175.881 90.397C175.881 90.397 174.05 94.3724 168.8 94.0366" stroke="#263238" stroke-width="0.349485" stroke-linecap="round" stroke-linejoin="round"/>
<path d="M166 78.6001C166 78.6001 165.306 88.9392 165.237 89.7785C165.168 90.6179 167.427 92.9527 169.151 91.1672C170.107 90.2982 170.746 89.1357 170.967 87.8633" fill="white"/>
<path d="M166 78.6001C166 78.6001 165.306 88.9392 165.237 89.7785C165.168 90.6179 167.427 92.9527 169.151 91.1672C170.107 90.2982 170.746 89.1357 170.967 87.8633" stroke="#263238" stroke-width="0.349485" stroke-linecap="round" stroke-linejoin="round"/>
<path d="M165.878 78.3094C165.271 77.5378 164.478 76.933 163.573 76.5518C162.668 76.1705 161.681 76.0252 160.705 76.1295C159.729 76.2338 158.795 76.5843 157.991 77.1482C157.187 77.7121 156.54 78.4708 156.109 79.3533C155.679 80.2358 155.479 81.2131 155.53 82.1937C155.58 83.1743 155.879 84.126 156.397 84.9597C156.916 85.7933 157.638 86.4816 158.496 86.96C159.353 87.4383 160.318 87.6912 161.3 87.6947C162.102 87.74 162.902 87.5851 163.63 87.2441C164.357 86.9032 164.988 86.3868 165.466 85.7414L165.878 78.3094Z" stroke="#263238" stroke-width="0.349485" stroke-linecap="round" stroke-linejoin="round"/>
<path d="M175.324 87.6948C178.527 87.6948 181.123 85.0984 181.123 81.8957C181.123 78.693 178.527 76.0967 175.324 76.0967C172.122 76.0967 169.525 78.693 169.525 81.8957C169.525 85.0984 172.122 87.6948 175.324 87.6948Z" stroke="#263238" stroke-width="0.349485" stroke-linecap="round" stroke-linejoin="round"/>
<path d="M181.146 80.7359L190.173 77.9355" stroke="#263238" stroke-width="0.349485" stroke-linecap="round" stroke-linejoin="round"/>
<path d="M155.585 81.2479L159.019 80.6069" stroke="#263238" stroke-width="0.349485" stroke-linecap="round" stroke-linejoin="round"/>
<path d="M165.878 79.5924C166.454 79.264 167.114 79.1134 167.775 79.1595C168.436 79.2057 169.069 79.4466 169.594 79.8519" stroke="#263238" stroke-width="0.349485" stroke-linecap="round" stroke-linejoin="round"/>
<path d="M187.854 57.2053C187.854 57.2053 195.423 62.6839 193.798 68.605C192.173 74.5262 187.541 85.8114 187.541 85.8114L186.282 86.0098L185.855 81.7063C185.855 81.7063 181.597 80.8441 181.788 77.212C181.889 75.0675 182.429 72.9665 183.375 71.0391C183.375 71.0391 179.636 75.0145 174.531 75.0145C169.427 75.0145 166.176 69.3986 164.742 71.6877C163.307 73.9768 160.743 75.6707 155.036 73.7555C149.328 71.8403 140.142 59.4105 145.307 54.7255C150.473 50.0405 160.713 56.1218 163.841 56.3965C166.97 56.6712 168.419 51.2918 175.523 52.2151C179.97 52.8826 184.195 54.5926 187.854 57.2053Z" fill="#263238" stroke="#263238" stroke-width="0.349485" stroke-linecap="round" stroke-linejoin="round"/>
<path d="M210.699 183.944H47.3184V333.918H210.699V183.944Z" fill="white" stroke="#263238" stroke-width="0.349485" stroke-linecap="round" stroke-linejoin="round"/>
<path d="M210.699 183.944H47.3184V194.039H210.699V183.944Z" fill="#263238" stroke="#263238" stroke-width="0.349485" stroke-linecap="round" stroke-linejoin="round"/>
<path d="M210.699 183.944H159.003V333.918H210.699V183.944Z" stroke="#263238" stroke-width="0.349485" stroke-linecap="round" stroke-linejoin="round"/>
<path d="M217.718 183.944H40.2979V189.689H217.718V183.944Z" fill="white" stroke="#263238" stroke-width="0.349485" stroke-linecap="round" stroke-linejoin="round"/>
<path d="M217.711 183.944H152.617V189.689H217.711V183.944Z" fill="white" stroke="#263238" stroke-width="0.349485" stroke-linecap="round" stroke-linejoin="round"/>
<path d="M247.599 118.507C247.599 118.507 247.454 114.615 245.806 111.922C244.158 109.228 238.176 107.282 235.04 108.633C233.449 109.285 231.899 110.034 230.4 110.876C233.524 111.855 236.495 113.265 239.229 115.065C241.753 116.775 244.602 117.946 247.599 118.507Z" fill="#2CE07F" stroke="#263238" stroke-width="0.349485" stroke-linecap="round" stroke-linejoin="round"/>
<path d="M253.886 120.468C253.886 120.468 250.293 117.026 249.697 112.235C249.102 107.443 254.184 99.9727 254.184 99.9727C255.865 103.167 257.218 106.524 258.22 109.991C259.724 115.378 253.886 120.468 253.886 120.468Z" fill="#2CE07F" stroke="#263238" stroke-width="0.349485" stroke-linecap="round" stroke-linejoin="round"/>
<path d="M260.754 118.971C260.754 118.971 259.853 114.485 261.517 111.341C263.18 108.197 267.499 108.495 271.84 109.815C276.182 111.135 277.525 111.158 277.525 111.158C274.533 113.163 271.378 114.914 268.094 116.392C265.708 117.416 263.256 118.278 260.754 118.971Z" fill="#2CE07F" stroke="#263238" stroke-width="0.349485" stroke-linecap="round" stroke-linejoin="round"/>
<path d="M253.924 135.095C253.821 135.095 253.722 135.054 253.649 134.981C253.576 134.908 253.535 134.809 253.535 134.706V113.341C253.553 113.253 253.601 113.173 253.67 113.116C253.74 113.059 253.827 113.028 253.917 113.028C254.007 113.028 254.094 113.059 254.163 113.116C254.233 113.173 254.28 113.253 254.298 113.341V134.706C254.298 134.806 254.259 134.903 254.19 134.976C254.12 135.048 254.025 135.091 253.924 135.095Z" fill="#263238"/>
<path d="M255.725 135.094H255.664C255.564 135.079 255.473 135.025 255.412 134.944C255.35 134.863 255.323 134.761 255.336 134.66C255.413 134.125 257.221 121.451 263.356 114.409C263.389 114.37 263.43 114.339 263.476 114.316C263.522 114.293 263.571 114.279 263.623 114.276C263.674 114.272 263.725 114.279 263.773 114.295C263.822 114.311 263.867 114.337 263.905 114.371C263.944 114.404 263.975 114.445 263.998 114.491C264.021 114.536 264.034 114.586 264.038 114.637C264.041 114.688 264.035 114.74 264.019 114.788C264.002 114.837 263.977 114.881 263.943 114.92C257.953 121.787 256.122 134.637 256.107 134.759C256.093 134.851 256.047 134.934 255.977 134.996C255.907 135.057 255.818 135.092 255.725 135.094Z" fill="#263238"/>
<path d="M252.132 134.79C252.081 134.79 252.031 134.78 251.984 134.76C251.937 134.741 251.895 134.712 251.859 134.676C251.824 134.639 251.796 134.596 251.777 134.549C251.759 134.502 251.749 134.452 251.75 134.401C251.75 134.279 251.812 122.101 244.563 116.309C244.482 116.245 244.43 116.15 244.418 116.047C244.407 115.944 244.437 115.841 244.502 115.76C244.566 115.679 244.661 115.627 244.764 115.616C244.867 115.604 244.97 115.634 245.051 115.699C252.59 121.735 252.529 133.897 252.529 134.408C252.528 134.46 252.517 134.51 252.496 134.557C252.476 134.604 252.446 134.646 252.409 134.681C252.373 134.717 252.329 134.745 252.281 134.763C252.234 134.782 252.183 134.791 252.132 134.79Z" fill="#263238"/>
<path d="M258.114 134.645H258.015C257.916 134.618 257.832 134.553 257.78 134.465C257.729 134.376 257.714 134.271 257.74 134.172C258.501 131.56 259.684 129.091 261.242 126.862C261.303 126.779 261.394 126.724 261.496 126.708C261.597 126.692 261.701 126.718 261.784 126.778C261.865 126.84 261.919 126.931 261.935 127.032C261.95 127.133 261.926 127.236 261.868 127.32C260.37 129.473 259.228 131.854 258.488 134.37C258.463 134.45 258.414 134.52 258.346 134.569C258.279 134.619 258.197 134.645 258.114 134.645Z" fill="#263238"/>
<path d="M260.471 128.693C260.471 128.693 260.318 124.504 262.112 123.909C263.905 123.313 265.553 124.801 266.903 125.702C268.254 126.602 269.742 127.495 269.742 130.188C269.588 132.755 269.239 135.306 268.696 137.819C268.696 137.819 267.17 133.179 264.66 131.089C262.15 128.998 260.471 128.693 260.471 128.693Z" fill="#2CE07F" stroke="#263238" stroke-width="0.349485" stroke-linecap="round" stroke-linejoin="round"/>
<path d="M249.438 134.789C249.356 134.792 249.275 134.768 249.209 134.719C249.142 134.671 249.094 134.602 249.072 134.522C248.29 132.284 246.941 130.286 245.158 128.723C245.093 128.655 245.055 128.566 245.051 128.472C245.047 128.378 245.077 128.286 245.135 128.212C245.194 128.139 245.277 128.089 245.37 128.072C245.462 128.055 245.557 128.073 245.638 128.121C247.548 129.771 248.986 131.898 249.804 134.286C249.821 134.334 249.827 134.386 249.824 134.437C249.82 134.488 249.806 134.538 249.782 134.584C249.759 134.629 249.726 134.669 249.687 134.702C249.647 134.735 249.602 134.759 249.553 134.774C249.516 134.787 249.477 134.792 249.438 134.789Z" fill="#263238"/>
<path d="M247.6 130.043C247.6 130.043 248.203 127.35 246.707 125.404C245.211 123.458 241.618 123.878 239.84 125.999C238.062 128.12 235.498 134.392 235.498 134.392C235.498 134.392 239.092 131.554 243.281 131.554C247.47 131.554 247.6 130.043 247.6 130.043Z" fill="#2CE07F" stroke="#263238" stroke-width="0.349485" stroke-linecap="round" stroke-linejoin="round"/>
<path d="M259.526 157.726H247.584L241.617 137.979H265.492L259.526 157.726Z" fill="white" stroke="#263238" stroke-width="0.349485" stroke-linecap="round" stroke-linejoin="round"/>
<path d="M265.56 134.706H241.548V137.979H265.56V134.706Z" fill="white" stroke="#263238" stroke-width="0.349485" stroke-linecap="round" stroke-linejoin="round"/>
<path d="M311.61 157.559H282.508V216.358H311.61V157.559Z" fill="#263238" stroke="#263238" stroke-width="0.349485" stroke-linecap="round" stroke-linejoin="round"/>
<path d="M285.903 157.559H199.116V216.358H285.903V157.559Z" fill="white" stroke="#263238" stroke-width="0.349485" stroke-linecap="round" stroke-linejoin="round"/>
<path d="M281.517 161.595H203.596V211.925H281.517V161.595Z" fill="#E5E5E5" stroke="#263238" stroke-width="0.349485" stroke-linecap="round" stroke-linejoin="round"/>
<path d="M281.517 161.595H241.961V211.925H281.517V161.595Z" fill="#E5E5E5" stroke="#263238" stroke-width="0.349485" stroke-linecap="round" stroke-linejoin="round"/>
<path d="M281.517 185.089H203.596V188.423H281.517V185.089Z" fill="white" stroke="#263238" stroke-width="0.349485" stroke-linecap="round" stroke-linejoin="round"/>
<path d="M331.724 216.304H302.622V275.103H331.724V216.304Z" fill="#263238" stroke="#263238" stroke-width="0.349485" stroke-linecap="round" stroke-linejoin="round"/>
<path d="M170.907 241.935L180.353 274.836H162.117L170.907 241.935Z" fill="#263238" stroke="#263238" stroke-width="0.349485" stroke-linecap="round" stroke-linejoin="round"/>
<path d="M171.632 238.463L170.426 237.379L139.165 274.837H164.902L171.632 238.463Z" fill="white" stroke="#263238" stroke-width="0.349485" stroke-linecap="round" stroke-linejoin="round"/>
<path d="M170.427 237.379H144.69L137.883 274.837H163.613L170.427 237.379Z" fill="#2CE07F" stroke="#263238" stroke-width="0.349485" stroke-linecap="round" stroke-linejoin="round"/>
<path d="M147.856 244.697H164.322" stroke="#263238" stroke-width="0.349485" stroke-linecap="round" stroke-linejoin="round"/>
<path d="M146.795 248.947H163.254" stroke="#263238" stroke-width="0.349485" stroke-linecap="round" stroke-linejoin="round"/>
<path d="M145.734 253.197H162.192" stroke="#263238" stroke-width="0.349485" stroke-linecap="round" stroke-linejoin="round"/>
<path d="M306.01 216.304H175.264V275.103H306.01V216.304Z" fill="white" stroke="#263238" stroke-width="0.349485" stroke-linecap="round" stroke-linejoin="round"/>
<path d="M301.638 220.34H179.751V270.67H301.638V220.34Z" fill="#E5E5E5" stroke="#263238" stroke-width="0.349485" stroke-linecap="round" stroke-linejoin="round"/>
<path d="M301.637 220.34H208.982V270.67H301.637V220.34Z" fill="white" stroke="#263238" stroke-width="0.349485" stroke-linecap="round" stroke-linejoin="round"/>
<path d="M301.63 220.34H213.354V270.67H301.63V220.34Z" fill="#E5E5E5" stroke="#263238" stroke-width="0.349485" stroke-linecap="round" stroke-linejoin="round"/>
<path d="M301.637 220.34H244.509V270.67H301.637V220.34Z" fill="#E5E5E5" stroke="#263238" stroke-width="0.349485" stroke-linecap="round" stroke-linejoin="round"/>
<path d="M301.629 220.34H266.866V270.67H301.629V220.34Z" fill="white" stroke="#263238" stroke-width="0.349485" stroke-linecap="round" stroke-linejoin="round"/>
<path d="M301.637 220.34H271.245V270.67H301.637V220.34Z" fill="#E5E5E5" stroke="#263238" stroke-width="0.349485" stroke-linecap="round" stroke-linejoin="round"/>
<path d="M353.607 274.882H324.505V333.681H353.607V274.882Z" fill="#263238" stroke="#263238" stroke-width="0.349485" stroke-linecap="round" stroke-linejoin="round"/>
<path d="M327.893 274.882H132.328V333.681H327.893V274.882Z" fill="white" stroke="#263238" stroke-width="0.349485" stroke-linecap="round" stroke-linejoin="round"/>
<path d="M323.521 278.918H136.815V329.248H323.521V278.918Z" fill="#E5E5E5" stroke="#263238" stroke-width="0.349485" stroke-linecap="round" stroke-linejoin="round"/>
<path d="M323.521 278.918H189.212V329.248H323.521V278.918Z" fill="#E5E5E5" stroke="#263238" stroke-width="0.349485" stroke-linecap="round" stroke-linejoin="round"/>
<path d="M323.52 278.918H204.808V329.248H323.52V278.918Z" fill="white" stroke="#263238" stroke-width="0.349485" stroke-linecap="round" stroke-linejoin="round"/>
<path d="M323.521 278.918H209.181V329.248H323.521V278.918Z" fill="#E5E5E5" stroke="#263238" stroke-width="0.349485" stroke-linecap="round" stroke-linejoin="round"/>
<path d="M323.521 278.918H238.168V329.248H323.521V278.918Z" fill="#E5E5E5" stroke="#263238" stroke-width="0.349485" stroke-linecap="round" stroke-linejoin="round"/>
<path d="M323.514 278.918H264.432V329.248H323.514V278.918Z" fill="white" stroke="#263238" stroke-width="0.349485" stroke-linecap="round" stroke-linejoin="round"/>
<path d="M323.521 278.918H269.361V329.248H323.521V278.918Z" fill="#E5E5E5" stroke="#263238" stroke-width="0.349485" stroke-linecap="round" stroke-linejoin="round"/>
<path d="M323.521 278.918H298.043V329.248H323.521V278.918Z" fill="#E5E5E5" stroke="#263238" stroke-width="0.349485" stroke-linecap="round" stroke-linejoin="round"/>
<path d="M321.178 183.143L330.624 216.037H312.388L321.178 183.143Z" fill="#787878" stroke="#263238" stroke-width="0.349485" stroke-linecap="round" stroke-linejoin="round"/>
<path d="M321.903 179.671L320.697 178.58L289.436 216.037H315.173L321.903 179.671Z" fill="white" stroke="#263238" stroke-width="0.349485" stroke-linecap="round" stroke-linejoin="round"/>
<path d="M320.698 178.58H294.961L288.147 216.037H313.884L320.698 178.58Z" fill="#2CE07F" stroke="#263238" stroke-width="0.349485" stroke-linecap="round" stroke-linejoin="round"/>
<path d="M298.379 184.44H314.838" stroke="#263238" stroke-width="0.349485" stroke-linecap="round" stroke-linejoin="round"/>
<path d="M297.318 188.683H313.777" stroke="#263238" stroke-width="0.349485" stroke-linecap="round" stroke-linejoin="round"/>
<path d="M296.257 192.933H312.716" stroke="#263238" stroke-width="0.349485" stroke-linecap="round" stroke-linejoin="round"/>
<path d="M251.163 237.295L260.609 270.197H242.373L251.163 237.295Z" fill="#263238" stroke="#263238" stroke-width="0.349485" stroke-linecap="round" stroke-linejoin="round"/>
<path d="M251.888 233.823L250.682 232.732L219.421 270.197H245.158L251.888 233.823Z" fill="white" stroke="#263238" stroke-width="0.349485" stroke-linecap="round" stroke-linejoin="round"/>
<path d="M250.682 232.732H224.945L218.131 270.197H243.868L250.682 232.732Z" fill="#2CE07F" stroke="#263238" stroke-width="0.349485" stroke-linecap="round" stroke-linejoin="round"/>
<path d="M228.065 254.013L228.141 253.945L228.485 254.38L232.506 251.03L231.697 250.015L227.783 253.266L227.363 252.136L226.6 253.098L224.196 250.084L222.968 251.099L225.593 254.395L224.067 256.348L221.465 258.515L222.274 259.53L223.609 258.431L222.472 264.009H227.416L228.576 258.271L229.614 259.576L230.842 258.553L228.798 255.982L228.065 254.013ZM229.37 257.775L229.698 257.5L230.102 258.004L229.767 258.279L229.37 257.775ZM229.583 258.439L229.248 258.714L228.851 258.21L229.179 257.935L229.583 258.439ZM229.24 257.623L228.843 257.119L229.179 256.844L229.576 257.348L229.24 257.623ZM224.128 256.562H224.685L224.349 256.837H224.174L224.021 256.646L224.128 256.562ZM224.975 256.562L225.181 256.821H224.662L224.975 256.562ZM223.922 256.898L223.853 257.233L223.456 257.569L223.235 257.294L223.838 256.791L223.922 256.898ZM223.792 257.546L223.716 257.897L223.578 257.722L223.792 257.546ZM223.266 257.722L222.663 258.225L222.442 257.951L223.044 257.447L223.266 257.722ZM223.388 257.882L223.609 258.157L223.006 258.66L222.785 258.378L223.388 257.882ZM225.379 256.684L225.272 256.547H225.547L225.379 256.684ZM227.89 256.547L227.676 256.722L227.531 256.547H227.89ZM228.134 256.608L228.309 256.821H227.867L228.134 256.608ZM228.897 256.821H228.645L228.424 256.547H228.973L229.072 256.676L228.897 256.821ZM228.355 253.769L228.965 253.266L229.187 253.54L228.576 254.052L228.355 253.769ZM230.736 251.793L231.338 251.289L231.56 251.564L230.957 252.068L230.736 251.793ZM230.736 252.22L230.133 252.724L229.912 252.449L230.522 251.946L230.736 252.22ZM230.583 251.633L230.362 251.358L230.965 250.854L231.186 251.137L230.583 251.633ZM230.392 251.793L229.79 252.297L229.568 252.014L230.171 251.518L230.392 251.793ZM229.629 252.449L229.019 252.953L228.805 252.678L229.408 252.175L229.629 252.449ZM229.751 252.602L229.973 252.884L229.37 253.38L229.149 253.105L229.751 252.602ZM231.758 251.427L231.537 251.152L232.01 250.755L232.231 251.03L231.758 251.427ZM231.88 250.603L231.415 250.992L231.193 250.717L231.667 250.328L231.88 250.603ZM228.63 252.846L228.851 253.121L228.241 253.632L228.019 253.357L228.63 252.846ZM226.211 253.647L225.845 253.189L226.18 252.915L226.486 253.296L226.211 253.647ZM224.685 251.717L224.28 251.213L224.616 250.938L225.013 251.442L224.685 251.717ZM225.135 251.595L225.539 252.098L225.204 252.373L224.807 251.877L225.135 251.595ZM224.494 251.877L224.158 252.152L223.762 251.648L224.097 251.373L224.494 251.877ZM224.616 252.03L225.021 252.533L224.685 252.808L224.288 252.304L224.616 252.03ZM225.143 252.686L225.539 253.189L225.211 253.464L224.807 252.96L225.143 252.686ZM225.333 252.533L225.662 252.258L226.066 252.754L225.73 253.037L225.333 252.533ZM224.486 250.786L224.158 251.06L223.845 250.671L224.174 250.389L224.486 250.786ZM223.655 250.824L223.968 251.213L223.639 251.495L223.327 251.099L223.655 250.824ZM225.738 254.136L225.333 253.624L225.669 253.35L226.066 253.846L226.028 253.891L225.738 254.136ZM222.251 258.141L222.472 258.416L221.999 258.813L221.785 258.538L222.251 258.141ZM222.129 258.965L222.602 258.576L222.815 258.851L222.35 259.248L222.129 258.965ZM225.524 256.86L225.86 256.585H227.218L227.439 256.86H225.524ZM228.759 257.432L229.057 257.798L228.721 258.08L228.653 257.981L228.759 257.432ZM229.37 258.889L229.706 258.614L230.018 259.011L229.683 259.286L229.37 258.889ZM230.202 258.851L229.889 258.462L230.232 258.141L230.545 258.538L230.202 258.851Z" fill="white"/>
<path d="M240.786 250.45L240.892 250.358L241.365 250.946L246.821 246.406L245.715 245.025L240.374 249.435L239.794 247.909L238.779 249.222L235.574 245.116L233.911 246.498L237.466 250.969L235.399 253.624L231.866 256.554L232.972 257.935L234.773 256.409L233.247 263.979H239.946L241.526 256.196L242.93 257.958L244.593 256.577L241.823 253.09L240.786 250.45ZM242.556 255.555L243.006 255.181L243.548 255.868L243.098 256.241L242.556 255.555ZM242.846 256.447L242.396 256.821L241.854 256.142L242.304 255.768L242.846 256.447ZM242.388 255.349L241.846 254.662L242.296 254.288L242.838 254.975L242.388 255.349ZM235.452 253.907H236.215L235.765 254.28H235.528L235.322 254.029L235.452 253.907ZM236.597 253.907L236.879 254.258H236.169L236.597 253.907ZM235.17 254.357L235.078 254.822L234.536 255.272L234.239 254.899L235.055 254.212L235.17 254.357ZM234.987 255.242L234.895 255.723L234.704 255.478L234.987 255.242ZM234.277 255.478L233.46 256.165L233.163 255.784L233.979 255.105L234.277 255.478ZM234.452 255.692L234.75 256.066L233.926 256.745L233.628 256.371L234.452 255.692ZM237.146 254.074L237.001 253.884H237.375L237.146 254.074ZM240.549 253.884L240.259 254.128L240.068 253.884H240.549ZM240.877 253.96L241.121 254.258H240.519L240.877 253.96ZM241.884 254.258H241.541L241.243 253.884H242.006L242.144 254.059L241.884 254.258ZM241.121 250.122L241.953 249.428L242.251 249.801L241.419 250.496L241.121 250.122ZM244.349 247.436L245.173 246.757L245.471 247.131L244.654 247.81L244.349 247.436ZM244.395 248.024L243.578 248.703L243.281 248.329L244.097 247.65L244.395 248.024ZM244.181 247.261L243.883 246.887L244.7 246.208L245.005 246.581L244.181 247.261ZM243.967 247.459L243.151 248.138L242.853 247.764L243.67 247.085L243.967 247.459ZM242.892 248.352L242.075 249.031L241.777 248.657L242.594 247.978L242.892 248.352ZM243.059 248.558L243.365 248.939L242.541 249.618L242.243 249.244L243.059 248.558ZM245.761 246.94L245.463 246.566L246.104 246.032L246.401 246.406L245.761 246.94ZM245.936 245.818L245.295 246.353L244.997 245.979L245.638 245.445L245.936 245.818ZM241.526 248.871L241.823 249.244L240.992 249.931L240.694 249.557L241.526 248.871ZM240.763 250.145H240.725L240.663 249.985L240.763 250.145ZM238.275 249.954L237.779 249.336L238.229 248.962L238.641 249.481L238.275 249.954ZM236.184 247.337L235.574 246.696L236.024 246.322L236.566 247.001L236.184 247.337ZM236.81 247.177L237.352 247.856L236.902 248.23L236.352 247.551L236.81 247.177ZM235.933 247.551L235.482 247.924L234.941 247.245L235.391 246.871L235.933 247.551ZM236.101 247.764L236.642 248.443L236.192 248.817L235.65 248.138L236.101 247.764ZM236.81 248.649L237.352 249.336L236.902 249.71L236.36 249.031L236.81 248.649ZM237.07 248.443L237.52 248.069L238.062 248.749L237.611 249.122L237.07 248.443ZM235.925 246.07L235.475 246.444L235.055 245.918L235.505 245.536L235.925 246.07ZM234.796 246.124L235.223 246.658L234.773 247.032L234.346 246.498L234.796 246.124ZM237.627 250.61L237.07 249.916L237.52 249.542L238.062 250.221L238.008 250.29L237.627 250.61ZM232.949 256.02L233.247 256.394L232.606 256.928L232.308 256.554L232.949 256.02ZM232.774 257.142L233.415 256.608L233.712 256.982L233.071 257.516L232.774 257.142ZM237.352 254.28L237.802 253.907H239.656L239.954 254.28H237.352ZM241.739 255.044L242.144 255.539L241.694 255.921L241.587 255.791L241.739 255.044ZM242.571 257.02L243.021 256.646L243.449 257.18L242.998 257.554L242.571 257.02ZM243.7 256.966L243.273 256.432L243.723 256.058L244.151 256.592L243.7 256.966Z" fill="white"/>
<path d="M248.118 242.041C248.072 241.476 247.301 241.018 246.294 240.942C246.329 240.784 246.35 240.623 246.355 240.461C246.355 238.76 244.707 237.409 242.67 237.409C241.867 237.361 241.072 237.588 240.415 238.051C239.758 238.514 239.278 239.186 239.053 239.958C238.923 239.95 238.793 239.95 238.664 239.958C238.183 239.923 237.705 240.056 237.311 240.334C236.917 240.612 236.632 241.019 236.504 241.484C236.132 241.157 235.653 240.978 235.158 240.978C234.662 240.978 234.184 241.157 233.811 241.484C233.465 241.378 233.104 241.327 232.743 241.331C231.873 241.331 231.163 241.583 231.163 241.896C231.171 241.967 231.206 242.033 231.262 242.079L248.118 242.041Z" fill="white"/>
<path d="M233.033 244.56C233.033 244.308 232.674 244.11 232.232 244.071C232.235 244.003 232.235 243.934 232.232 243.865C232.189 243.474 231.997 243.114 231.696 242.861C231.394 242.608 231.007 242.481 230.614 242.507C230.26 242.486 229.91 242.585 229.62 242.789C229.331 242.993 229.119 243.289 229.019 243.629H228.851C228.639 243.614 228.429 243.673 228.255 243.795C228.081 243.917 227.955 244.096 227.898 244.3C227.734 244.156 227.524 244.076 227.306 244.076C227.088 244.076 226.878 244.156 226.715 244.3C226.561 244.257 226.402 244.237 226.242 244.239C225.86 244.239 225.547 244.346 225.547 244.483C225.548 244.5 225.553 244.516 225.561 244.53C225.569 244.545 225.58 244.558 225.593 244.567L233.033 244.56Z" fill="white"/>
<path d="M249.231 296.095L258.678 328.997H240.434L249.231 296.095Z" fill="#263238" stroke="#263238" stroke-width="0.349485" stroke-linecap="round" stroke-linejoin="round"/>
<path d="M249.948 292.622L248.743 291.531L217.481 328.996H243.218L249.948 292.622Z" fill="white" stroke="#263238" stroke-width="0.349485" stroke-linecap="round" stroke-linejoin="round"/>
<path d="M248.744 291.531H223.014L216.2 328.996H241.937L248.744 291.531Z" fill="white" stroke="#263238" stroke-width="0.349485" stroke-linecap="round" stroke-linejoin="round"/>
<path d="M242.357 301.138H224.93L220.313 326.509H237.749L242.357 301.138Z" fill="#2CE07F"/>
<path d="M226.188 295.515L225.471 299.437H242.906L243.616 295.515H226.188Z" fill="#2CE07F"/>
<path d="M193.142 296.095L202.588 328.997H184.344L193.142 296.095Z" fill="#263238" stroke="#263238" stroke-width="0.349485" stroke-linecap="round" stroke-linejoin="round"/>
<path d="M193.859 292.622L192.653 291.531L161.392 328.996H187.129L193.859 292.622Z" fill="white" stroke="#263238" stroke-width="0.349485" stroke-linecap="round" stroke-linejoin="round"/>
<path d="M192.653 291.531H166.923L160.109 328.996H185.846L192.653 291.531Z" fill="white" stroke="#263238" stroke-width="0.349485" stroke-linecap="round" stroke-linejoin="round"/>
<path d="M183.161 304.976C182.85 306.069 182.325 307.091 181.618 307.981C180.911 308.871 180.035 309.613 179.041 310.165C175.683 311.996 170.495 309.402 166.367 313.072C162.239 316.742 162.094 324.517 170.8 325.433C179.506 326.348 181.33 319.786 181.33 319.786C181.33 319.786 185.305 320.549 185.145 319.329C184.985 318.108 182.39 317.192 182.39 317.192C183.535 315.288 184.217 313.143 184.382 310.928C184.481 307.647 184.382 305.434 184.382 305.434C184.382 305.434 186.518 305.892 187.282 305.434C188.045 304.976 189.571 300.703 189.571 300.703C189.571 300.703 186.976 302.534 185.755 302.534C184.535 302.534 181.322 299.94 181.322 299.94C181.322 299.94 180.719 304.976 183.161 304.976Z" fill="#2CE07F"/>
<path d="M168.42 295.255L167.71 299.177H185.138L185.855 295.255H168.42Z" fill="#2CE07F"/>
<path d="M167.39 300.932L166.68 304.846H177.149L177.859 300.932H167.39Z" fill="#2CE07F"/>
<path d="M307.253 296.095L316.699 328.997H298.462L307.253 296.095Z" fill="#263238" stroke="#263238" stroke-width="0.349485" stroke-linecap="round" stroke-linejoin="round"/>
<path d="M307.977 292.622L306.772 291.531L275.51 328.996H301.24L307.977 292.622Z" fill="white" stroke="#263238" stroke-width="0.349485" stroke-linecap="round" stroke-linejoin="round"/>
<path d="M306.773 291.531H281.036L274.222 328.996H299.959L306.773 291.531Z" fill="#2CE07F" stroke="#263238" stroke-width="0.349485" stroke-linecap="round" stroke-linejoin="round"/>
<path d="M287.841 302.497C287.906 303.158 287.769 303.823 287.449 304.404C287.128 304.986 286.639 305.457 286.046 305.755C285.453 306.054 284.783 306.165 284.125 306.076C283.467 305.986 282.851 305.699 282.359 305.253C281.867 304.807 281.522 304.223 281.369 303.577C281.215 302.93 281.261 302.253 281.5 301.633C281.739 301.014 282.16 300.481 282.708 300.105C283.255 299.73 283.904 299.529 284.568 299.528C285.395 299.489 286.205 299.779 286.818 300.336C287.432 300.892 287.8 301.669 287.841 302.497Z" fill="white"/>
<path d="M294.862 307.953C294.93 308.616 294.795 309.284 294.476 309.869C294.156 310.454 293.667 310.928 293.072 311.229C292.478 311.53 291.806 311.644 291.145 311.556C290.484 311.467 289.866 311.18 289.372 310.733C288.878 310.286 288.53 309.7 288.376 309.051C288.222 308.403 288.268 307.723 288.508 307.101C288.748 306.479 289.171 305.945 289.721 305.569C290.271 305.192 290.922 304.991 291.589 304.992C292.415 304.953 293.223 305.242 293.836 305.797C294.45 306.352 294.819 307.127 294.862 307.953Z" fill="white"/>
<path d="M299.668 303.458C299.722 304.008 299.608 304.562 299.341 305.047C299.075 305.531 298.668 305.923 298.174 306.172C297.68 306.421 297.122 306.514 296.574 306.44C296.026 306.366 295.514 306.127 295.104 305.756C294.694 305.385 294.406 304.899 294.277 304.361C294.149 303.823 294.187 303.259 294.385 302.743C294.583 302.227 294.933 301.783 295.388 301.469C295.844 301.155 296.384 300.987 296.937 300.986C297.626 300.953 298.301 301.194 298.813 301.658C299.325 302.121 299.633 302.769 299.668 303.458Z" fill="white"/>
<path d="M285.117 322.678C288.518 322.678 291.275 320.184 291.275 317.108C291.275 314.031 288.518 311.538 285.117 311.538C281.716 311.538 278.959 314.031 278.959 317.108C278.959 320.184 281.716 322.678 285.117 322.678Z" fill="white"/>
<path d="M184.756 231.427H181.224V270.723H184.756V231.427Z" fill="#2CE07F" stroke="#263238" stroke-width="0.349485" stroke-linecap="round" stroke-linejoin="round"/>
<path d="M203.107 231.427H183.81V270.723H203.107V231.427Z" fill="#2CE07F" stroke="#263238" stroke-width="0.349485" stroke-linecap="round" stroke-linejoin="round"/>
<path d="M188.754 231.427H185.221V270.723H188.754V231.427Z" fill="white" stroke="#263238" stroke-width="0.349485" stroke-linecap="round" stroke-linejoin="round"/>
<path d="M207.113 231.427H187.815V270.723H207.113V231.427Z" fill="white" stroke="#263238" stroke-width="0.349485" stroke-linecap="round" stroke-linejoin="round"/>
<path d="M192.76 231.427H189.228V270.723H192.76V231.427Z" fill="white" stroke="#263238" stroke-width="0.349485" stroke-linecap="round" stroke-linejoin="round"/>
<path d="M208.753 231.427H191.813V270.723H208.753V231.427Z" fill="white" stroke="#263238" stroke-width="0.349485" stroke-linecap="round" stroke-linejoin="round"/>
<path d="M196.759 231.427H193.226V270.723H196.759V231.427Z" fill="#2CE07F" stroke="#263238" stroke-width="0.349485" stroke-linecap="round" stroke-linejoin="round"/>
<path d="M208.99 231.427H195.812V270.723H208.99V231.427Z" fill="#2CE07F" stroke="#263238" stroke-width="0.349485" stroke-linecap="round" stroke-linejoin="round"/>
<path d="M275.35 231.427H271.817V270.723H275.35V231.427Z" fill="white" stroke="#263238" stroke-width="0.349485" stroke-linecap="round" stroke-linejoin="round"/>
<path d="M293.709 231.427H274.412V270.723H293.709V231.427Z" fill="white" stroke="#263238" stroke-width="0.349485" stroke-linecap="round" stroke-linejoin="round"/>
<path d="M279.356 231.427H275.823V270.723H279.356V231.427Z" fill="#2CE07F" stroke="#263238" stroke-width="0.349485" stroke-linecap="round" stroke-linejoin="round"/>
<path d="M297.708 231.427H278.411V270.723H297.708V231.427Z" fill="#2CE07F" stroke="#263238" stroke-width="0.349485" stroke-linecap="round" stroke-linejoin="round"/>
<path d="M283.355 231.427H279.822V270.723H283.355V231.427Z" fill="#2CE07F" stroke="#263238" stroke-width="0.349485" stroke-linecap="round" stroke-linejoin="round"/>
<path d="M299.348 231.427H282.409V270.723H299.348V231.427Z" fill="#2CE07F" stroke="#263238" stroke-width="0.349485" stroke-linecap="round" stroke-linejoin="round"/>
<path d="M287.353 231.427H283.82V270.723H287.353V231.427Z" fill="white" stroke="#263238" stroke-width="0.349485" stroke-linecap="round" stroke-linejoin="round"/>
<path d="M301.713 231.427H286.415V270.723H301.713V231.427Z" fill="white" stroke="#263238" stroke-width="0.349485" stroke-linecap="round" stroke-linejoin="round"/>
<path d="M221.816 192.162H209.111V211.795H221.816V192.162Z" fill="white" stroke="#263238" stroke-width="0.349485" stroke-linecap="round" stroke-linejoin="round"/>
<path d="M219.108 192.162H206.403V211.795H219.108V192.162Z" fill="white" stroke="#263238" stroke-width="0.349485" stroke-linecap="round" stroke-linejoin="round"/>
<path d="M253.307 203.996H226.746V211.794H253.307V203.996Z" fill="white" stroke="#263238" stroke-width="0.349485" stroke-linecap="round" stroke-linejoin="round"/>
<path d="M253.315 201.021H225.8V206.507H253.315V201.021Z" fill="#263238" stroke="#263238" stroke-width="0.349485" stroke-linecap="round" stroke-linejoin="round"/>
<path d="M269.583 203.996H253.414V211.794H269.583V203.996Z" fill="white" stroke="#263238" stroke-width="0.349485" stroke-linecap="round" stroke-linejoin="round"/>
<path d="M270.949 201.021H253.414V206.507H270.949V201.021Z" fill="#263238" stroke="#263238" stroke-width="0.349485" stroke-linecap="round" stroke-linejoin="round"/>
<path d="M254.107 182.098H208.356V185.096H254.107V182.098Z" fill="#263238" stroke="#263238" stroke-width="0.349485" stroke-linecap="round" stroke-linejoin="round"/>
<path d="M256.008 182.098H236.245V185.096H256.008V182.098Z" fill="white" stroke="#263238" stroke-width="0.349485" stroke-linecap="round" stroke-linejoin="round"/>
<path d="M254.107 179.038H208.356V182.037H254.107V179.038Z" fill="white" stroke="#263238" stroke-width="0.349485" stroke-linecap="round" stroke-linejoin="round"/>
<path d="M256.008 179.038H236.245V182.037H256.008V179.038Z" fill="white" stroke="#263238" stroke-width="0.349485" stroke-linecap="round" stroke-linejoin="round"/>
<path d="M254.107 175.971H208.356V178.969H254.107V175.971Z" fill="#2CE07F" stroke="#263238" stroke-width="0.349485" stroke-linecap="round" stroke-linejoin="round"/>
<path d="M256.008 175.971H236.245V178.969H256.008V175.971Z" fill="white" stroke="#263238" stroke-width="0.349485" stroke-linecap="round" stroke-linejoin="round"/>
<path d="M254.107 172.911H208.356V175.91H254.107V172.911Z" fill="white" stroke="#263238" stroke-width="0.349485" stroke-linecap="round" stroke-linejoin="round"/>
<path d="M256.008 172.911H236.245V175.91H256.008V172.911Z" fill="white" stroke="#263238" stroke-width="0.349485" stroke-linecap="round" stroke-linejoin="round"/>
<path d="M254.107 169.843H208.356V172.842H254.107V169.843Z" fill="#2CE07F" stroke="#263238" stroke-width="0.349485" stroke-linecap="round" stroke-linejoin="round"/>
<path d="M256.008 169.843H236.245V172.842H256.008V169.843Z" fill="white" stroke="#263238" stroke-width="0.349485" stroke-linecap="round" stroke-linejoin="round"/>
<path d="M33.9495 247.672C33.9495 247.672 36.1852 259.034 36.1852 263.291C36.1852 267.549 33.3696 275.256 33.3696 284.389C33.3696 293.523 35.9792 317.657 35.9792 317.657L45.7155 318.062C45.7155 318.062 48.554 288.449 51.5985 281.551C54.643 274.653 55.8562 260.247 55.8562 256.188C55.964 253.23 56.4408 250.298 57.2754 247.458L33.9495 247.672Z" fill="#263238" stroke="#263238" stroke-width="0.349485" stroke-linecap="round" stroke-linejoin="round"/>
<path d="M31.5156 310.149H47.7453L47.5393 322.732C47.5393 322.732 56.8712 328.615 59.1069 329.424C61.3425 330.232 62.5558 332.064 62.3497 332.666C62.1437 333.269 61.1365 333.681 61.1365 333.681H33.1409C32.5495 332.062 32.3406 330.328 32.5305 328.615C32.8415 326.954 33.3169 325.328 33.9497 323.762L31.5156 310.149Z" fill="#2CE07F" stroke="#263238" stroke-width="0.349485" stroke-linecap="round" stroke-linejoin="round"/>
<path d="M39.1768 247.672C39.1768 247.672 41.4049 259.034 41.4049 263.291C41.4049 267.549 38.5664 275.256 38.5664 284.389C38.5664 293.523 41.2065 317.657 41.2065 317.657L50.9428 318.062C50.9428 318.062 53.7813 288.449 56.8258 281.551C59.8703 274.653 61.0835 260.247 61.0835 256.188C61.1913 253.23 61.6681 250.298 62.5027 247.458L39.1768 247.672Z" fill="#263238" stroke="#263238" stroke-width="0.349485" stroke-linecap="round" stroke-linejoin="round"/>
<path d="M62.7616 154.758C62.7616 154.758 69.049 196.351 71.2847 204.058C73.5203 211.764 82.2036 245.437 82.2036 245.437C74.2961 248.881 65.8571 250.946 57.2525 251.541C42.8541 252.556 24.1903 251.335 18.7118 248.901C13.2332 246.467 9.37988 244.849 9.37988 244.849L15.2629 214.824C15.2629 214.824 28.0436 178.916 28.0436 170.805C28.0436 162.694 27.2654 154.369 31.9275 148.265C36.5896 142.161 42.0682 139.337 45.9215 140.551C49.7748 141.764 62.7616 154.758 62.7616 154.758Z" fill="#ABABAB"/>
<path d="M75.3365 219.089C75.2755 218.845 75.2068 218.601 75.1458 218.326C73.7952 218.662 72.4523 218.982 71.1246 219.265L72.9482 215.51L75.0695 218.028C74.9092 217.441 74.7566 216.861 74.604 216.296L73.4061 214.862C73.6579 214.808 73.9173 214.74 74.1691 214.671C74.1004 214.427 74.0394 214.183 73.9707 213.908C47.5088 220.295 26.4796 216.647 15.6751 213.618C15.4233 214.343 15.2783 214.747 15.2783 214.747L15.1791 215.251L16.8578 218.608C16.0947 218.402 15.3317 218.189 14.645 217.99L14.5 218.753C24.3576 221.569 34.5636 222.976 44.8153 222.935C55.1085 222.914 65.3598 221.622 75.3365 219.089ZM72.2844 215.152L70.415 218.967L67.2484 216.144C68.9169 215.864 70.5956 215.533 72.2844 215.152ZM69.8885 219.562C67.5994 220.035 65.3637 220.432 63.1662 220.768L66.7372 216.754L69.8885 219.562ZM66.0199 216.411L62.3574 220.531L59.9233 217.327C61.9275 217.067 63.9648 216.762 66.0352 216.411H66.0199ZM61.7393 220.989C59.2137 221.34 56.7643 221.607 54.376 221.798L59.3129 217.7L61.7393 220.989ZM58.3209 217.517L53.5825 221.47L49.5308 218.181C52.3693 218.067 55.3069 217.845 58.3362 217.51L58.3209 217.517ZM15.5911 214.465C17.369 214.961 19.4063 215.472 21.6954 215.953L17.6132 218.547L15.5911 214.465ZM18.2617 219.043L21.8938 216.754L24.5873 220.424C22.2906 219.989 20.177 219.501 18.2923 219.036L18.2617 219.043ZM22.3592 216.075C24.6483 216.541 27.1968 216.976 29.9895 217.334L25.5258 220.348L22.3592 216.075ZM26.3346 220.699L30.4168 217.945L34.171 221.699C31.3935 221.432 28.7916 221.088 26.3651 220.691L26.3346 220.699ZM31.0807 217.456C33.3698 217.731 35.7886 217.945 38.3447 218.09L34.8958 221.287L31.0807 217.456ZM35.4834 221.798L38.8789 218.639L43.0069 222.156C40.3439 222.118 37.8335 221.989 35.4529 221.798H35.4834ZM39.474 218.143C41.2137 218.219 43.0069 218.273 44.861 218.273C45.7309 218.273 46.616 218.273 47.5164 218.235L43.5181 221.592L39.474 218.143ZM48.577 218.349L52.9568 221.897C49.8436 222.111 46.8525 222.187 44.0141 222.172L48.577 218.349Z" fill="white"/>
<path d="M80.037 236.966C79.9225 236.524 79.8004 236.073 79.686 235.616L77.5342 232.998L78.9001 232.609C78.8314 232.365 78.7703 232.121 78.7093 231.846C78.0912 232.014 77.4732 232.197 76.8628 232.357C76.825 232.35 76.7861 232.35 76.7483 232.357C76.7052 232.376 76.6643 232.399 76.6262 232.426C45.403 240.652 21.3446 234.776 11.9898 231.663L11.8372 232.426C12.7147 232.716 13.7066 233.029 14.8283 233.349L11.242 236.096H11.1428L10.9902 236.859C11.0373 236.904 11.0952 236.935 11.1582 236.95C11.2212 236.964 11.287 236.962 11.3489 236.943C17.1174 238.904 28.8986 242.078 44.846 242.078C56.7589 242.045 68.6069 240.324 80.037 236.966ZM77.0306 233.594L79.3197 236.371C78.2667 236.676 77.2138 236.966 76.176 237.233L77.0306 233.594ZM76.3134 233.319L75.5503 236.569L73.4139 234.036C74.3753 233.807 75.3367 233.571 76.3134 233.319ZM75.2909 237.455C73.8946 237.813 72.5059 238.134 71.1324 238.439L72.956 234.677L75.2909 237.455ZM72.2846 234.288L70.4151 238.149L67.2486 235.326C68.9196 235.02 70.5983 234.669 72.2846 234.288ZM69.8887 238.698C67.5996 239.171 65.3639 239.576 63.1663 239.904L66.7373 235.89L69.8887 238.698ZM66.0201 235.547L62.3575 239.667L59.9235 236.463C61.9277 236.213 63.965 235.908 66.0353 235.547H66.0201ZM61.7395 240.125C59.2138 240.476 56.7645 240.743 54.3762 240.934L59.313 236.852L61.7395 240.125ZM58.3211 236.653L53.5979 240.591L49.5462 237.31C52.3694 237.203 55.3071 236.981 58.3364 236.646L58.3211 236.653ZM12.0814 236.402L15.0572 234.151L16.8808 237.806C15.0114 237.317 13.4167 236.829 12.0966 236.394L12.0814 236.402ZM15.6066 233.601C17.3844 234.09 19.4217 234.601 21.7108 235.081L17.6286 237.676L15.6066 233.601ZM18.2772 238.179L21.9092 235.89L24.6027 239.56C22.2907 239.103 20.1771 238.645 18.2924 238.172L18.2772 238.179ZM22.3747 235.211C24.6638 235.684 27.2123 236.112 30.005 236.47L25.5413 239.522L22.3747 235.211ZM26.3653 239.828L30.4475 237.073L34.2017 240.827C31.3937 240.591 28.7918 240.224 26.3653 239.828ZM31.0809 236.592C33.37 236.867 35.7888 237.088 38.3449 237.226L34.896 240.423L31.0809 236.592ZM35.4836 240.934L38.879 237.775L43.007 241.3C40.3441 241.254 37.8337 241.125 35.453 240.934H35.4836ZM39.4742 237.279C41.2139 237.36 43.0096 237.404 44.8612 237.409C45.7311 237.409 46.6162 237.409 47.5166 237.409L43.5183 240.758L39.4742 237.279ZM48.5772 237.485L52.957 241.033C49.8438 241.247 46.8527 241.323 44.0142 241.308L48.5772 237.485Z" fill="white"/>
<path d="M81.6932 243.338L81.5024 242.575C52.0417 252.876 18.8346 245.138 9.83083 242.682L9.67822 243.445C22.1929 246.769 35.0798 248.487 48.0282 248.557C58.7717 248.565 70.4995 247.237 81.6932 243.338Z" fill="white"/>
<path d="M10.2421 240.591L10.0972 241.354C22.4811 244.604 35.2245 246.283 48.0275 246.352C58.6031 246.352 70.1554 245.063 81.1583 241.308C81.0973 241.072 81.0362 240.82 80.9676 240.545C52.0792 250.427 19.7572 243.14 10.2421 240.591Z" fill="white"/>
<path d="M77.6254 227.772C77.5568 227.528 77.4957 227.284 77.4347 227.009C51.5832 235.632 21.7333 229.97 12.7143 227.902L12.5693 228.665C23.4755 231.112 34.6146 232.371 45.7917 232.419C55.963 232.434 67.1261 231.275 77.6254 227.772Z" fill="white"/>
<path d="M77.222 226.208C77.161 225.964 77.0923 225.72 77.0313 225.445C51.5689 233.785 22.3829 228.39 13.0434 226.277L12.8984 227.04C23.7026 229.44 34.7329 230.676 45.8004 230.725C55.8342 230.74 66.8372 229.603 77.222 226.208Z" fill="white"/>
<path d="M62.7616 154.758C62.7616 154.758 69.049 196.351 71.2847 204.058C73.5203 211.764 82.2036 245.437 82.2036 245.437C74.2961 248.881 65.8571 250.946 57.2525 251.541C42.8541 252.556 24.1903 251.335 18.7118 248.901C13.2332 246.467 9.37988 244.849 9.37988 244.849L15.2629 214.824C15.2629 214.824 28.0436 178.916 28.0436 170.805C28.0436 162.694 27.2653 154.369 31.9275 148.265C36.5896 142.161 42.0682 139.337 45.9215 140.551C49.7748 141.764 62.7616 154.758 62.7616 154.758Z" stroke="#263238" stroke-width="0.349485" stroke-linecap="round" stroke-linejoin="round"/>
<path d="M36.7422 310.149H52.9719L52.7659 322.732C52.7659 322.732 62.0977 328.615 64.3334 329.424C66.5691 330.232 67.7823 332.064 67.5763 332.666C67.3703 333.269 66.3631 333.681 66.3631 333.681H38.3674C37.776 332.062 37.5671 330.328 37.757 328.615C38.0681 326.954 38.5435 325.328 39.1763 323.762L36.7422 310.149Z" fill="#2CE07F" stroke="#263238" stroke-width="0.349485" stroke-linecap="round" stroke-linejoin="round"/>
<path d="M39.8404 136.91C39.8404 136.91 28.6848 144.823 26.0447 153.544C23.4047 162.266 22.5958 178.495 21.9854 182.15C21.375 185.805 11.8447 219.47 11.8447 219.47C11.8447 219.47 19.7574 224.949 33.7514 226.338C47.7454 227.726 63.1662 224.308 63.7767 224.308C64.3871 224.308 58.7025 154.368 58.9085 153.75C59.1145 153.132 47.547 139.749 45.5173 137.925C43.4877 136.101 39.8404 136.91 39.8404 136.91Z" fill="white" stroke="#263238" stroke-width="0.349485" stroke-linecap="round" stroke-linejoin="round"/>
<path d="M64.8756 123.451C64.8756 123.451 65.1503 130.997 66.5467 133.515C67.943 136.033 67.6683 138.543 64.0363 137.704C60.4043 136.865 55.6429 129.311 55.0936 124.847C54.5442 120.383 62.6399 118.14 64.8756 123.451Z" fill="#263238" stroke="#263238" stroke-width="0.349485" stroke-linecap="round" stroke-linejoin="round"/>
<path d="M58.5503 146.86L65.0895 201.867L76.9775 200.471L63.0369 146.616C63.0369 146.616 60.229 143.029 58.5503 146.86Z" fill="#2CE07F" stroke="#263238" stroke-width="0.349485" stroke-linecap="round" stroke-linejoin="round"/>
<path d="M65.0127 99.9946C65.8673 101.595 66.6167 103.249 67.256 104.947C67.9199 106.953 67.8054 110.677 68.0191 111.287C68.2327 111.898 71.2162 115.492 71.2314 116.217C71.2467 116.942 68.5227 118.368 68.5227 118.368C68.5227 118.368 67.8054 123.336 67.2866 125.434C66.7677 127.532 66.8593 128.708 64.1047 128.662C61.3502 128.616 57.6037 127.525 52.9339 125.106C48.2642 122.687 44.7924 119.162 43.892 114.347C42.9916 109.533 55.4977 100.193 57.3366 98.9416C59.1755 97.6903 65.0127 99.9946 65.0127 99.9946Z" fill="white" stroke="#263238" stroke-width="0.349485" stroke-linecap="round" stroke-linejoin="round"/>
<path d="M66.218 111.395C66.1722 112.341 65.8212 113.096 65.455 113.081C65.0887 113.066 64.7835 112.272 64.8293 111.326C64.8751 110.38 65.2337 109.617 65.5923 109.632C65.9509 109.647 66.2638 110.441 66.218 111.395Z" fill="#263238"/>
<path d="M62.9297 109.083C62.9297 109.083 64.2955 105.588 66.4244 106.794" stroke="#263238" stroke-width="0.349485" stroke-linecap="round" stroke-linejoin="round"/>
<path d="M67.7896 120.162C67.7896 120.162 65.2106 121.223 63.8447 119.102" stroke="#263238" stroke-width="0.349485" stroke-linecap="round" stroke-linejoin="round"/>
<path d="M41.9615 128.227C41.9615 128.227 65.8062 134.392 65.4171 137.185C65.0279 139.977 64.448 148.119 61.3272 148.531C58.2064 148.943 34.4914 139.87 32.7135 139.298C30.9357 138.726 34.1557 130.577 35.9411 128.524C37.7266 126.472 41.9615 128.227 41.9615 128.227Z" fill="#2CE07F" stroke="#263238" stroke-width="0.349485" stroke-linecap="round" stroke-linejoin="round"/>
<path d="M54.4909 106.762C54.4909 106.762 57.1462 124.312 60.2746 131.37C63.4031 138.428 66.6383 140.374 65.448 141.747C64.2577 143.121 57.3904 138.695 57.3904 138.695C57.3904 138.695 63.2505 147.028 59.359 149.294C55.4675 151.56 45.5786 146.692 43.4803 144.906L41.4277 143.121C41.4277 143.121 40.7715 148.462 33.9958 151.682C27.2201 154.902 17.8806 149.347 23.9696 141.763C30.0586 134.178 32.5918 125.464 31.516 120.207C30.4401 114.95 48.089 100.849 54.4909 106.762Z" fill="#263238" stroke="#263238" stroke-width="0.349485" stroke-linecap="round" stroke-linejoin="round"/>
<path d="M35.3696 164.494C36.8957 167.928 40.2759 171.041 42.8397 173.742C46.9296 178.053 51.7977 181.372 56.0707 185.462C56.8337 186.225 65.2728 193.527 66.28 193.092C66.28 193.092 74.6734 189.277 80.5869 183.829C86.5004 178.381 101.189 161.533 101.189 161.533C104.851 160.58 110.696 155.65 110.696 155.65L116.129 154.933C116.299 154.897 116.449 154.8 116.551 154.659C116.653 154.519 116.7 154.346 116.682 154.173C116.664 154.001 116.582 153.841 116.453 153.725C116.325 153.609 116.157 153.545 115.984 153.544L110.94 153.941L117.808 150.363C117.887 150.321 117.957 150.265 118.014 150.197C118.072 150.129 118.115 150.05 118.142 149.965C118.169 149.88 118.179 149.79 118.171 149.701C118.164 149.613 118.139 149.526 118.098 149.447C118.025 149.315 117.911 149.211 117.773 149.15C117.635 149.089 117.481 149.076 117.334 149.111L109.979 151.019L116.228 147.593C116.411 147.492 116.547 147.322 116.605 147.121C116.663 146.92 116.638 146.704 116.537 146.521C116.436 146.338 116.266 146.202 116.065 146.144C115.864 146.086 115.648 146.11 115.465 146.212L108.293 149.798L111.848 146.746L113.039 145.258C113.108 145.15 113.14 145.021 113.129 144.893C113.117 144.765 113.064 144.645 112.976 144.55C112.889 144.456 112.773 144.393 112.646 144.372C112.519 144.351 112.389 144.373 112.276 144.434L110.856 145.487C108.27 147.448 102.074 152.163 101.494 152.934C100.731 153.911 97.0455 158.138 97.0455 158.138C97.0455 158.138 90.7352 163.181 82.319 169.072C78.3739 171.945 74.219 174.519 69.8892 176.771C67.3254 173.543 59.6188 163.639 56.5819 157.573C54.2889 153.138 50.4789 149.675 45.8461 147.814" fill="white"/>
<path d="M35.3696 164.494C36.8957 167.928 40.2759 171.041 42.8397 173.742C46.9296 178.053 51.7977 181.372 56.0707 185.462C56.8337 186.225 65.2728 193.527 66.28 193.092C66.28 193.092 74.6734 189.277 80.5869 183.829C86.5004 178.381 101.189 161.533 101.189 161.533C104.851 160.58 110.696 155.65 110.696 155.65L116.129 154.933C116.299 154.897 116.449 154.8 116.551 154.659C116.653 154.519 116.7 154.346 116.682 154.173C116.664 154.001 116.582 153.841 116.453 153.725C116.325 153.609 116.157 153.545 115.984 153.544L110.94 153.941L117.808 150.363C117.887 150.321 117.957 150.265 118.014 150.197C118.072 150.129 118.115 150.05 118.142 149.965C118.169 149.88 118.179 149.79 118.171 149.701C118.164 149.613 118.139 149.526 118.098 149.447C118.025 149.315 117.911 149.211 117.773 149.15C117.635 149.089 117.481 149.076 117.334 149.111L109.979 151.019L116.228 147.593C116.411 147.492 116.547 147.322 116.605 147.121C116.663 146.92 116.638 146.704 116.537 146.521C116.436 146.338 116.266 146.202 116.065 146.144C115.864 146.086 115.648 146.11 115.465 146.212L108.293 149.798L111.848 146.746L113.039 145.258C113.108 145.15 113.14 145.021 113.129 144.893C113.117 144.765 113.064 144.645 112.976 144.55C112.889 144.456 112.773 144.393 112.646 144.372C112.519 144.351 112.389 144.373 112.276 144.434L110.856 145.487C108.27 147.448 102.074 152.163 101.494 152.934C100.731 153.911 97.0455 158.138 97.0455 158.138C97.0455 158.138 90.7352 163.181 82.319 169.072C78.3739 171.945 74.219 174.519 69.8892 176.771C67.3254 173.543 59.6188 163.639 56.5819 157.573C54.2889 153.138 50.4789 149.675 45.8461 147.814" stroke="#263238" stroke-width="0.349485" stroke-linecap="round" stroke-linejoin="round"/>
<path d="M117.304 149.096L109.948 151.004L116.198 147.578C116.381 147.476 116.516 147.307 116.574 147.106C116.632 146.905 116.608 146.689 116.507 146.506C116.405 146.322 116.236 146.187 116.035 146.129C115.833 146.071 115.618 146.095 115.434 146.196L108.262 149.783L111.818 146.731L113.008 145.243C113.078 145.135 113.109 145.006 113.098 144.878C113.087 144.75 113.033 144.629 112.946 144.535C112.858 144.441 112.742 144.378 112.615 144.357C112.488 144.336 112.358 144.358 112.245 144.419L110.826 145.472C108.239 147.433 102.043 152.148 101.463 152.919C100.7 153.895 97.0149 158.123 97.0149 158.123C97.0149 158.123 90.7046 163.166 82.2884 169.057C79.0455 171.346 76.4207 173.009 74.4062 174.223L79.5415 184.737C79.9001 184.424 80.2587 184.112 80.6097 183.783C86.5003 178.32 101.212 161.488 101.212 161.488C104.874 160.534 110.719 155.605 110.719 155.605L116.152 154.887C116.321 154.851 116.472 154.754 116.574 154.614C116.676 154.473 116.722 154.3 116.704 154.128C116.686 153.955 116.605 153.796 116.476 153.679C116.347 153.563 116.18 153.499 116.007 153.499L110.963 153.895L117.83 150.317C117.91 150.276 117.98 150.22 118.037 150.151C118.095 150.083 118.138 150.004 118.165 149.919C118.192 149.834 118.202 149.745 118.194 149.656C118.187 149.567 118.161 149.48 118.12 149.401C118.041 149.264 117.916 149.158 117.767 149.102C117.618 149.047 117.454 149.045 117.304 149.096Z" fill="white" stroke="#263238" stroke-width="0.349485" stroke-linecap="round" stroke-linejoin="round"/>
<path d="M31.5158 120.223C31.5158 120.223 26.3653 121.032 23.5802 118.018C20.7952 115.004 25.1597 111.212 29.6234 103.436C34.0872 95.661 36.9791 88.3206 45.6471 86.4894C54.3151 84.6581 64.7229 91.7619 67.0578 93.6619C69.3927 95.5618 69.4308 97.2863 68.3091 97.7517C68.3091 97.7517 40.7866 108.694 31.7752 121.406" fill="#2CE07F"/>
<path d="M31.5158 120.223C31.5158 120.223 26.3653 121.032 23.5802 118.018C20.7952 115.004 25.1597 111.212 29.6234 103.436C34.0872 95.661 36.9791 88.3206 45.6471 86.4894C54.3151 84.6581 64.7229 91.7619 67.0578 93.6619C69.3927 95.5618 69.4308 97.2863 68.3091 97.7517C68.3091 97.7517 40.7866 108.694 31.7752 121.406" stroke="#263238" stroke-width="0.349485" stroke-linecap="round" stroke-linejoin="round"/>
<path d="M44.9909 108.625L31.2563 114.638" stroke="#263238" stroke-width="0.349485" stroke-linecap="round" stroke-linejoin="round"/>
<path d="M31.5079 122.855C31.5079 122.855 43.2891 112.508 54.5057 107.861C65.7223 103.214 69.9953 102.779 69.9953 101.238C69.9953 99.6967 68.3318 97.751 68.3318 97.751C68.3318 97.751 50.103 104.618 42.8924 110.028C35.6817 115.438 27.2655 119.551 31.5079 122.855Z" fill="#2CE07F" stroke="#263238" stroke-width="0.349485" stroke-linecap="round" stroke-linejoin="round"/>
<path d="M7.42773 333.683H363.001" stroke="#263238" stroke-width="0.349485" stroke-linecap="round" stroke-linejoin="round"/>
</svg>
