<svg width="26" height="27" viewBox="0 0 26 27" fill="none" xmlns="http://www.w3.org/2000/svg">
<g clip-path="url(#clip0_730_3657)">
<path d="M0 24.442H6.175C7.995 24.442 8.905 24.442 9.60375 24.0878C10.2147 23.7758 10.712 23.2785 11.024 22.6675C11.3783 21.972 11.3783 21.062 11.3783 19.2388V6.8888C11.3783 5.0688 11.3783 4.1588 11.024 3.46005C10.7124 2.84855 10.2152 2.35138 9.60375 2.0398C8.90825 1.68555 7.99825 1.68555 6.175 1.68555H0V3.31055H6.175C7.11263 3.31055 7.71713 3.31055 8.17375 3.34955C8.61575 3.3853 8.77825 3.44705 8.8595 3.48767C9.165 3.64367 9.41362 3.89392 9.56962 4.1978C9.61025 4.27905 9.672 4.44155 9.70775 4.88355C9.74512 5.34342 9.74675 5.94955 9.74675 6.8823V19.2323C9.74675 20.1699 9.74675 20.776 9.70775 21.231C9.672 21.673 9.61025 21.8355 9.56962 21.9168C9.41383 22.2225 9.16525 22.4711 8.8595 22.6269C8.77825 22.6675 8.61575 22.7293 8.17375 22.765C7.71388 22.8024 7.10775 22.804 6.175 22.804H0V24.429V24.442ZM26 1.69205H19.825C18.005 1.69205 17.095 1.69205 16.3962 2.0463C15.7848 2.35788 15.2876 2.85505 14.976 3.46655C14.6217 4.16205 14.6217 5.07205 14.6217 6.8953V19.2453C14.6217 21.0653 14.6217 21.9753 14.976 22.674C15.288 23.285 15.7853 23.7823 16.3962 24.0943C17.0918 24.4485 18.0017 24.4485 19.825 24.4485H26V22.8235H19.825C18.8874 22.8235 18.2829 22.8235 17.8263 22.7845C17.3843 22.7488 17.2218 22.687 17.1405 22.6464C16.8348 22.4906 16.5862 22.242 16.4304 21.9363C16.3897 21.855 16.328 21.6925 16.2922 21.2505C16.2551 20.585 16.2421 19.9183 16.2533 19.2518V6.9018C16.2533 5.96417 16.2533 5.35805 16.2922 4.90305C16.328 4.46105 16.3897 4.29855 16.4304 4.2173C16.5864 3.9118 16.835 3.66317 17.1405 3.50717C17.2218 3.46655 17.3843 3.4048 17.8263 3.36905C18.2861 3.33167 18.8923 3.33005 19.825 3.33005H26V1.70505V1.69205Z" fill="#052E44" stroke="#052E44"/>
<path d="M6.5 7.37939C6.5 7.16391 6.4144 6.95724 6.26202 6.80487C6.10965 6.6525 5.90299 6.56689 5.6875 6.56689H0V8.19189H5.6875C5.90299 8.19189 6.10965 8.10629 6.26202 7.95392C6.4144 7.80155 6.5 7.59488 6.5 7.37939ZM5.6875 11.4419C5.90299 11.4419 6.10965 11.5275 6.26202 11.6799C6.4144 11.8322 6.5 12.0389 6.5 12.2544C6.5 12.4699 6.4144 12.6765 6.26202 12.8289C6.10965 12.9813 5.90299 13.0669 5.6875 13.0669H0V11.4419H5.6875ZM6.5 17.1294C6.5 16.9139 6.4144 16.7072 6.26202 16.5549C6.10965 16.4025 5.90299 16.3169 5.6875 16.3169H0V17.9419H5.6875C5.90299 17.9419 6.10965 17.8563 6.26202 17.7039C6.4144 17.5515 6.5 17.3449 6.5 17.1294ZM20.3125 6.56689C20.097 6.56689 19.8903 6.6525 19.738 6.80487C19.5856 6.95724 19.5 7.16391 19.5 7.37939C19.5 7.59488 19.5856 7.80155 19.738 7.95392C19.8903 8.10629 20.097 8.19189 20.3125 8.19189H26V6.56689H20.3125ZM19.5 12.2544C19.5 12.0389 19.5856 11.8322 19.738 11.6799C19.8903 11.5275 20.097 11.4419 20.3125 11.4419H26V13.0669H20.3125C20.097 13.0669 19.8903 12.9813 19.738 12.8289C19.5856 12.6765 19.5 12.4699 19.5 12.2544ZM20.3125 16.3169C20.097 16.3169 19.8903 16.4025 19.738 16.5549C19.5856 16.7072 19.5 16.9139 19.5 17.1294C19.5 17.3449 19.5856 17.5515 19.738 17.7039C19.8903 17.8563 20.097 17.9419 20.3125 17.9419H26V16.3169H20.3125Z" fill="#052E44" stroke="#052E44"/>
</g>
<defs>
<clipPath id="clip0_730_3657">
<rect width="26" height="26" fill="white" transform="translate(0 0.0668945)"/>
</clipPath>
</defs>
</svg>
