<svg width="204" height="37" viewBox="0 0 204 37" fill="none" xmlns="http://www.w3.org/2000/svg">
<path d="M187.465 7L187.706 7.65332L190.892 16.2734L194.054 7.65527L194.294 7H202.424L201.832 8.3916L190.633 34.7275L190.374 35.3359H182.276L182.912 33.9248L186.829 25.2334L179.734 8.3877L179.15 7H187.465Z" fill="#082F3E" stroke="#2CE07F" stroke-width="2"/>
<path d="M177.656 1V26.6797H170.184V25.5996C169.951 25.7612 169.706 25.9128 169.447 26.0508L169.446 26.0498C168.338 26.6518 167.073 26.9355 165.68 26.9355C164.03 26.9355 162.511 26.5146 161.15 25.6641L161.139 25.6572C159.781 24.7843 158.717 23.5664 157.941 22.0371L157.936 22.0283L157.932 22.0205C157.173 20.455 156.808 18.6796 156.808 16.7197C156.808 14.7604 157.173 12.9937 157.935 11.4463L157.94 11.4355L158.833 11.8877L157.941 11.4355C158.718 9.90405 159.785 8.69274 161.15 7.83984L161.407 7.68555C162.701 6.93828 164.133 6.56836 165.68 6.56836C166.997 6.56837 168.222 6.8442 169.335 7.41309H169.334C169.633 7.56292 169.916 7.72908 170.184 7.90918V1H177.656ZM167.28 13.3359C166.466 13.336 165.795 13.6193 165.212 14.2178C164.694 14.7516 164.377 15.5407 164.376 16.7197C164.376 17.8904 164.69 18.7129 165.223 19.2969C165.803 19.8882 166.47 20.1679 167.28 20.168C168.093 20.168 168.748 19.886 169.305 19.2969L169.315 19.2861C169.86 18.7259 170.184 17.9226 170.184 16.752C170.184 15.5813 169.86 14.778 169.315 14.2178L169.305 14.207C168.748 13.6179 168.093 13.3359 167.28 13.3359Z" fill="#082F3E" stroke="#2CE07F" stroke-width="2"/>
<path d="M154.808 1V26.6797H147.336V25.5996C147.103 25.7612 146.857 25.9128 146.599 26.0508L146.598 26.0498C145.49 26.6518 144.225 26.9355 142.832 26.9355C141.181 26.9355 139.663 26.5146 138.302 25.6641L138.291 25.6572C136.933 24.7843 135.869 23.5664 135.093 22.0371L135.088 22.0283L135.084 22.0205C134.325 20.455 133.96 18.6796 133.96 16.7197C133.96 14.7604 134.325 12.9937 135.087 11.4463L135.092 11.4355L135.984 11.8877L135.093 11.4355C135.87 9.90405 136.937 8.69274 138.302 7.83984L138.559 7.68555C139.853 6.93829 141.284 6.56836 142.832 6.56836C144.149 6.56837 145.374 6.8442 146.487 7.41309H146.486C146.785 7.56292 147.068 7.72908 147.336 7.90918V1H154.808ZM144.432 13.3359C143.617 13.336 142.947 13.6193 142.364 14.2178C141.846 14.7516 141.528 15.5407 141.528 16.7197C141.528 17.8904 141.842 18.7129 142.375 19.2969C142.955 19.8882 143.622 20.1679 144.432 20.168C145.245 20.168 145.9 19.886 146.457 19.2969L146.467 19.2861C147.012 18.7259 147.336 17.9226 147.336 16.752C147.336 15.5813 147.012 14.778 146.467 14.2178L146.457 14.207C145.9 13.6179 145.245 13.3359 144.432 13.3359Z" fill="#082F3E" stroke="#2CE07F" stroke-width="2"/>
<path d="M119.608 7V17.6963C119.608 18.7202 119.871 19.3737 120.267 19.7969L120.424 19.9482C120.808 20.282 121.319 20.4717 122.032 20.4717C122.876 20.4716 123.434 20.22 123.83 19.7969C124.226 19.3737 124.488 18.7201 124.488 17.6963V7H131.96V26.8564H124.488V25.7549C124.352 25.8457 124.213 25.934 124.069 26.0176L123.671 26.2344L123.663 26.2383C122.572 26.7836 121.372 27.0478 120.08 27.0479C118.564 27.0479 117.184 26.7152 115.968 26.0205L115.961 26.0166L115.955 26.0127C114.811 25.3353 113.912 24.3846 113.264 23.1865L113.138 22.9434C112.479 21.6264 112.168 20.1122 112.168 18.4316V7H119.608Z" fill="#082F3E" stroke="#2CE07F" stroke-width="2"/>
<path d="M101.36 2C103.783 2.00005 105.814 2.55413 107.329 3.78809H107.33C108.887 5.0387 109.656 6.75473 109.656 8.82422C109.656 10.327 109.253 11.6538 108.388 12.7344L108.389 12.7354C108.052 13.1662 107.668 13.5395 107.241 13.8594C107.82 14.2363 108.334 14.711 108.776 15.2852H108.775C109.702 16.4661 110.168 17.834 110.168 19.3516C110.168 21.4952 109.397 23.2812 107.826 24.5986L107.825 24.5996C106.286 25.8866 104.204 26.4639 101.712 26.4639H90.248V2H101.36ZM97.7197 20.0479H100.752C101.534 20.0479 101.976 19.8739 102.224 19.6709C102.465 19.4699 102.632 19.169 102.632 18.6162C102.632 18.0782 102.464 17.7567 102.188 17.5254L102.181 17.5195L102.174 17.5127C101.899 17.2726 101.448 17.088 100.688 17.0879H97.7197V20.0479ZM97.7197 11.0879H100.304C101.071 11.0879 101.491 10.9214 101.715 10.7402C101.928 10.5643 102.088 10.2895 102.088 9.75195C102.088 9.21426 101.928 8.93862 101.715 8.7627L101.707 8.75586L101.698 8.74902C101.477 8.55765 101.065 8.38379 100.304 8.38379H97.7197V11.0879Z" fill="#082F3E" stroke="#2CE07F" stroke-width="2"/>
<path d="M88.2476 1V26.6797H80.7759V25.5996C80.5426 25.7612 80.2973 25.9128 80.0386 26.0508L80.0376 26.0498C78.9301 26.6518 77.6646 26.9355 76.272 26.9355C74.6214 26.9355 73.1026 26.5146 71.7417 25.6641L71.731 25.6572C70.3731 24.7843 69.3092 23.5664 68.5327 22.0371L68.5278 22.0283L68.5239 22.0205C67.7649 20.455 67.3999 18.6796 67.3999 16.7197C67.3999 14.7604 67.7651 12.9937 68.5269 11.4463L68.5317 11.4355L69.4243 11.8877L68.5327 11.4355C69.3102 9.90405 70.3771 8.69274 71.7417 7.83984L71.9985 7.68555C73.2928 6.93829 74.7244 6.56836 76.272 6.56836C77.5893 6.56837 78.8142 6.8442 79.9272 7.41309H79.9263C80.2252 7.56292 80.5081 7.72908 80.7759 7.90918V1H88.2476ZM77.8716 13.3359C77.0574 13.336 76.3865 13.6193 75.8042 14.2178C75.2856 14.7516 74.9683 15.5407 74.9683 16.7197C74.9683 17.8904 75.2818 18.7129 75.8149 19.2969C76.3948 19.8882 77.0621 20.1679 77.8716 20.168C78.685 20.168 79.3395 19.886 79.897 19.2969L79.9067 19.2861C80.4518 18.7259 80.7759 17.9226 80.7759 16.752C80.7759 15.5813 80.4518 14.778 79.9067 14.2178L79.897 14.207C79.3395 13.6179 78.685 13.3359 77.8716 13.3359Z" fill="#082F3E" stroke="#2CE07F" stroke-width="2"/>
<path d="M53.4238 7C54.8199 7.00001 56.0888 7.2846 57.1982 7.88965L57.1973 7.89062C57.4531 8.02738 57.6966 8.17507 57.9277 8.33398V7.25586H65.3994V27.1123H57.9277V26.0137C57.6845 26.1819 57.428 26.3385 57.1582 26.4824L57.1572 26.4814C56.0497 27.0834 54.7842 27.3682 53.3916 27.3682C51.7594 27.3681 50.252 26.9447 48.8936 26.0957L48.8828 26.0889C47.525 25.2159 46.461 23.9981 45.6846 22.4688L45.6797 22.4609L45.6758 22.4521C44.9168 20.8867 44.5518 19.112 44.5518 17.1523C44.5518 15.1929 44.9169 13.4254 45.6787 11.8779L45.6836 11.8672L46.5762 12.3203L45.6846 11.8672C46.462 10.3359 47.5292 9.1253 48.8936 8.27246L49.1504 8.11719C50.4447 7.36999 51.8763 7 53.4238 7ZM55.0234 13.7676C54.2094 13.7677 53.5383 14.0502 52.9561 14.6484L52.957 14.6494C52.438 15.1833 52.1201 15.9727 52.1201 17.1523C52.1202 18.3227 52.4338 19.1446 52.9668 19.7285C53.5467 20.32 54.2139 20.5995 55.0234 20.5996C55.837 20.5996 56.4913 20.3178 57.0488 19.7285L57.0586 19.7188L57.1582 19.6104C57.6429 19.0561 57.9277 18.2811 57.9277 17.1836C57.9277 16.0131 57.6036 15.2096 57.0586 14.6494L57.0488 14.6396C56.4913 14.0503 55.837 13.7676 55.0234 13.7676Z" fill="#082F3E" stroke="#2CE07F" stroke-width="2"/>
<path d="M32.6562 7C34.5277 7.00006 36.2303 7.39426 37.7383 8.20801L38.0186 8.36523C39.3985 9.17241 40.4881 10.2907 41.2744 11.7061H41.2734C42.1367 13.2212 42.5518 14.9625 42.5518 16.8965C42.5517 17.4498 42.5172 18.0213 42.4492 18.6104L42.3818 19.1924H42.4219L42.3477 19.4805L42.3467 19.4961H42.3447L42.1045 20.4385C41.7682 21.7597 41.1545 22.9515 40.2695 24.0039L40.2686 24.0029C39.3987 25.0628 38.3057 25.8877 37.0059 26.4785C35.6873 27.0779 34.2315 27.3681 32.6562 27.3682C30.7604 27.3682 29.0339 26.9617 27.5039 26.125C26.0653 25.3382 24.9188 24.2309 24.0742 22.8193L23.9092 22.5322C23.0461 20.9738 22.6318 19.1799 22.6318 17.1836C22.6319 15.1918 23.0331 13.4019 23.8711 11.8457L23.877 11.8359L24.042 11.5488C24.8866 10.1371 26.0329 9.02903 27.4717 8.24219L27.7617 8.09082C29.2217 7.35612 30.861 7 32.6562 7ZM30.291 19.4961C30.4216 19.8458 30.5986 20.1142 30.8086 20.3213C31.2502 20.7143 31.7815 20.9199 32.4639 20.9199C33.0054 20.9199 33.3947 20.8062 33.6807 20.6328C33.962 20.4621 34.2088 20.1938 34.4043 19.7715L34.5322 19.4961H30.291ZM32.5918 13.3838C31.887 13.3838 31.3438 13.582 30.9033 13.9463C30.7429 14.0856 30.6011 14.2538 30.4795 14.4561H34.7275C34.6584 14.3276 34.5757 14.2109 34.4766 14.1055L34.3369 13.9717C33.903 13.5957 33.3455 13.3838 32.5918 13.3838Z" fill="#082F3E" stroke="#2CE07F" stroke-width="2"/>
<path d="M11.1836 2C13.0674 2 14.734 2.32845 16.1436 3.0332H16.1426C17.5531 3.72765 18.6474 4.70894 19.376 5.98633H19.377C20.0904 7.21648 20.4404 8.58663 20.4404 10.0723C20.4404 11.7702 19.9502 13.3107 18.9688 14.6602C18.2082 15.7288 17.175 16.5325 15.9102 17.0928L20.4961 24.9609L21.3721 26.4639H12.8652L12.5801 25.9463L8.47168 18.4893V26.4639H1V2H11.1836ZM8.47168 12.1123H10.8643C11.7196 12.1123 12.1631 11.9022 12.3965 11.6689L12.4043 11.6611L12.4121 11.6543C12.6784 11.3991 12.8721 10.9954 12.8721 10.2959C12.8721 9.65555 12.688 9.26635 12.4121 9.00195L12.4043 8.99414L12.3965 8.9873C12.1631 8.75398 11.7198 8.54399 10.8643 8.54395H8.47168V12.1123Z" fill="#082F3E" stroke="#2CE07F" stroke-width="2"/>
</svg>
