<svg width="24" height="24" viewBox="0 0 24 24" fill="none" xmlns="http://www.w3.org/2000/svg">
<path fill-rule="evenodd" clip-rule="evenodd" d="M10.9742 20.051C10.6535 19.8534 10.3212 19.6753 9.97901 19.5178C9.12384 19.1223 7.98284 18.7502 6.74967 18.7502C5.25751 18.7502 3.90534 19.2962 3.03967 19.7558C2.76653 19.8991 2.46197 19.972 2.15355 19.9679C1.84514 19.9638 1.54261 19.8829 1.27334 19.7325C0.990146 19.5804 0.753285 19.3546 0.587773 19.079C0.42226 18.8035 0.33424 18.4883 0.333008 18.1668V3.5835C0.333008 2.859 0.677175 2.11 1.38067 1.683C2.28367 1.13466 4.31601 0.0834961 6.74967 0.0834961C8.59418 0.0834961 10.4188 0.678496 11.9997 1.61183C13.5805 0.678496 15.4052 0.0834961 17.2497 0.0834961C19.6833 0.0834961 21.7157 1.1335 22.6187 1.683C23.3222 2.11 23.6663 2.859 23.6663 3.5835V18.1668C23.6663 18.9053 23.2242 19.4572 22.726 19.7325C22.4566 19.8831 22.1539 19.9642 21.8452 19.9682C21.5366 19.9723 21.2318 19.8993 20.9585 19.7558C20.094 19.2962 18.7418 18.7502 17.2497 18.7502C16.0165 18.7502 14.8755 19.1235 14.0203 19.5178C13.6782 19.6753 13.3458 19.8534 13.0252 20.051C12.6938 20.2575 12.4138 20.5002 12.0008 20.5002C11.5855 20.5002 11.3067 20.2575 10.9742 20.051ZM2.66634 17.3432V3.6325C3.45151 3.16583 4.99967 2.41683 6.74967 2.41683C8.18468 2.41683 9.60567 2.9045 10.833 3.6325V17.3432C9.80051 16.8812 8.36784 16.4168 6.74967 16.4168C5.13851 16.4168 3.70584 16.8777 2.66634 17.3432ZM13.1663 17.3432C14.1988 16.8812 15.6315 16.4168 17.2497 16.4168C18.8608 16.4168 20.2935 16.8777 21.333 17.3432V3.6325C20.5478 3.16583 18.9997 2.41683 17.2497 2.41683C15.8147 2.41683 14.3937 2.9045 13.1663 3.6325V17.3432Z" fill="#E0E0E0"/>
</svg>
