<svg width="26" height="27" viewBox="0 0 26 27" fill="none" xmlns="http://www.w3.org/2000/svg">
<path d="M2.61693 3.63655C2.83792 3.63761 3.0589 3.63866 3.28658 3.63974C3.51913 3.63883 3.75167 3.63792 3.99126 3.63698C4.76254 3.63469 5.53375 3.63621 6.30502 3.63797C6.83932 3.63762 7.37362 3.63711 7.90793 3.63646C9.02876 3.63569 10.1496 3.63681 11.2704 3.63924C12.7096 3.6422 14.1487 3.64049 15.5879 3.63738C16.6915 3.6355 17.7951 3.6361 18.8987 3.63744C19.4295 3.63779 19.9603 3.63736 20.491 3.63615C21.2319 3.63484 21.9726 3.63684 22.7135 3.63974C22.9344 3.63869 23.1554 3.63764 23.3831 3.63655C24.9006 3.64761 24.9006 3.64761 25.48 4.22703C25.546 4.95726 25.546 4.95726 25.5473 5.90078C25.5482 6.07246 25.5491 6.24415 25.5501 6.42103C25.5524 6.98973 25.5508 7.55833 25.5491 8.12703C25.5494 8.52143 25.5499 8.91583 25.5506 9.31023C25.5514 10.1373 25.5502 10.9643 25.5478 11.7914C25.5448 12.8529 25.5466 13.9142 25.5497 14.9757C25.5515 15.7903 25.5509 16.6048 25.5496 17.4194C25.5493 17.8108 25.5497 18.2022 25.5509 18.5937C25.5522 19.1403 25.5502 19.6867 25.5473 20.2333C25.5469 20.5446 25.5465 20.856 25.546 21.1768C25.48 21.907 25.48 21.907 24.96 22.427C24.203 22.4787 23.4707 22.4979 22.7135 22.4943C22.3646 22.4957 22.3646 22.4957 22.0088 22.4971C21.2375 22.4994 20.4663 22.4978 19.695 22.4961C19.1607 22.4964 18.6264 22.4969 18.0921 22.4976C16.9713 22.4984 15.8505 22.4972 14.7296 22.4948C13.2904 22.4919 11.8513 22.4936 10.4121 22.4967C9.30851 22.4986 8.20491 22.498 7.1013 22.4966C6.57053 22.4963 6.03976 22.4967 5.50899 22.4979C4.76816 22.4992 4.02741 22.4972 3.28658 22.4943C3.0656 22.4954 2.84461 22.4964 2.61693 22.4975C1.09943 22.4864 1.09943 22.4864 0.520017 21.907C0.453985 21.1768 0.453985 21.1768 0.452732 20.2333C0.451821 20.0616 0.450909 19.8899 0.449971 19.713C0.447678 19.1443 0.449199 18.5757 0.450954 18.007C0.450604 17.6126 0.4501 17.2182 0.449447 16.8238C0.44868 15.9968 0.449797 15.1697 0.452224 14.3427C0.455187 13.2812 0.453481 12.2198 0.450366 11.1584C0.44849 10.3438 0.449084 9.52925 0.450433 8.71469C0.45078 8.32326 0.450352 7.93182 0.449143 7.54038C0.447826 6.9938 0.449831 6.44734 0.452732 5.90078C0.453146 5.58942 0.453559 5.27806 0.453985 4.95726C0.583141 3.52895 1.37017 3.64564 2.61693 3.63655ZM1.56002 5.26703C1.48017 5.94708 1.48017 5.94708 1.49273 6.74984C1.49109 7.06045 1.48945 7.37105 1.48776 7.69107C1.48882 8.02799 1.48987 8.3649 1.49095 8.71203C1.4906 9.0598 1.4901 9.40756 1.48945 9.75533C1.48868 10.4845 1.4898 11.2136 1.49222 11.9427C1.49519 12.8783 1.49348 13.8138 1.49037 14.7493C1.48849 15.4675 1.48908 16.1857 1.49043 16.9039C1.49095 17.4169 1.48937 17.93 1.48776 18.443C1.4894 18.7536 1.49104 19.0642 1.49273 19.3842C1.49315 19.6586 1.49356 19.933 1.49399 20.2158C1.49523 20.9118 1.49523 20.9118 2.08002 21.387C2.8632 21.4326 3.62282 21.4472 4.4058 21.4378C4.71168 21.437 4.71168 21.437 5.02374 21.4362C5.78668 21.4335 6.5496 21.4262 7.31252 21.4195C9.87043 21.4034 9.87043 21.4034 12.48 21.387C12.48 15.8958 12.48 10.4046 12.48 4.74703C10.7747 4.7363 9.06947 4.72558 7.31252 4.71453C6.7743 4.70979 6.23608 4.70506 5.68155 4.70018C5.2563 4.69866 4.83105 4.69734 4.4058 4.69625C4.07296 4.69226 4.07296 4.69226 3.73339 4.68819C2.52159 4.62848 2.52159 4.62848 1.56002 5.26703ZM13.52 4.74703C13.52 10.2382 13.52 15.7294 13.52 21.387C16.0779 21.4031 16.0779 21.4031 18.6875 21.4195C19.2257 21.4243 19.764 21.429 20.3185 21.4339C20.7437 21.4354 21.169 21.4367 21.5942 21.4378C21.9271 21.4418 21.9271 21.4418 22.2666 21.4459C22.8181 21.446 23.3695 21.4191 23.92 21.387C24.6147 20.6923 24.5058 20.3548 24.5073 19.3842C24.5089 19.0736 24.5106 18.763 24.5123 18.443C24.5112 18.1061 24.5102 17.7692 24.5091 17.422C24.5094 17.0743 24.5099 16.7265 24.5106 16.3787C24.5114 15.6496 24.5102 14.9205 24.5078 14.1913C24.5048 13.2558 24.5066 12.3203 24.5097 11.3848C24.5115 10.6666 24.5109 9.94836 24.5096 9.23016C24.5091 8.71713 24.5107 8.2041 24.5123 7.69107C24.5106 7.38047 24.509 7.06986 24.5073 6.74984C24.5069 6.47543 24.5065 6.20102 24.506 5.9183C24.5048 5.22223 24.5048 5.22223 23.92 4.74703C23.1368 4.70142 22.3772 4.68686 21.5942 4.69625C21.2884 4.69703 21.2884 4.69703 20.9763 4.69783C20.2134 4.70056 19.4504 4.70782 18.6875 4.71453C16.9822 4.72525 15.277 4.73598 13.52 4.74703Z" fill="#052E44" stroke="#052E44" stroke-width="0.8"/>
<path d="M15.08 17.7471C17.654 17.7471 20.228 17.7471 22.88 17.7471C22.88 18.0903 22.88 18.4335 22.88 18.7871C20.306 18.7871 17.732 18.7871 15.08 18.7871C15.08 18.4439 15.08 18.1007 15.08 17.7471Z" fill="#052E44" stroke="#052E44" stroke-width="0.8"/>
<path d="M15.08 15.147C17.654 15.147 20.228 15.147 22.88 15.147C22.88 15.4902 22.88 15.8334 22.88 16.187C20.306 16.187 17.732 16.187 15.08 16.187C15.08 15.8438 15.08 15.5006 15.08 15.147Z" fill="#052E44" stroke="#052E44" stroke-width="0.8"/>
<path d="M15.08 12.5469C17.654 12.5469 20.228 12.5469 22.88 12.5469C22.88 12.8901 22.88 13.2333 22.88 13.5869C20.306 13.5869 17.732 13.5869 15.08 13.5869C15.08 13.2437 15.08 12.9005 15.08 12.5469Z" fill="#052E44" stroke="#052E44" stroke-width="0.8"/>
<path d="M15.08 9.94678C17.654 9.94678 20.228 9.94678 22.88 9.94678C22.88 10.29 22.88 10.6332 22.88 10.9868C20.306 10.9868 17.732 10.9868 15.08 10.9868C15.08 10.6436 15.08 10.3004 15.08 9.94678Z" fill="#052E44" stroke="#052E44" stroke-width="0.8"/>
<path d="M15.08 7.34668C17.654 7.34668 20.228 7.34668 22.88 7.34668C22.88 7.68988 22.88 8.03308 22.88 8.38668C20.306 8.38668 17.732 8.38668 15.08 8.38668C15.08 8.04348 15.08 7.70028 15.08 7.34668Z" fill="#052E44" stroke="#052E44" stroke-width="0.8"/>
</svg>
