<svg width="26" height="27" viewBox="0 0 26 27" fill="none" xmlns="http://www.w3.org/2000/svg">
<g clip-path="url(#clip0_728_2360)">
<path d="M1.28271 14.6963C1.28271 15.8576 1.69005 16.8543 2.49605 17.6863C3.30205 18.5183 4.29005 18.9603 5.44272 19.0123C5.54672 19.0123 5.59871 18.9603 5.59871 18.8649V17.7036C5.59871 17.5996 5.54672 17.5476 5.44272 17.5476C4.69738 17.5129 4.06471 17.2096 3.54471 16.6549C3.02471 16.1003 2.76471 15.4416 2.76471 14.6963C2.76471 13.9769 3.00738 13.3529 3.50138 12.8156C3.99538 12.2783 4.60205 11.9749 5.32138 11.8883L5.78071 11.8536C5.89338 11.8536 5.95405 11.8016 5.95405 11.6976L6.01471 11.2209C6.11005 10.2849 6.50005 9.49628 7.20205 8.87228C7.90405 8.23961 8.72738 7.92761 9.68072 7.92761C10.6254 7.92761 11.4487 8.23961 12.1594 8.87228C12.87 9.50494 13.2774 10.2849 13.3727 11.2209L13.4334 11.7236C13.4334 11.8276 13.4854 11.8883 13.5807 11.8883H14.9847C15.756 11.8883 16.432 12.1656 16.9954 12.7203C17.5587 13.2749 17.8447 13.9336 17.8447 14.6876C17.8447 15.4416 17.5847 16.0916 17.056 16.6463C16.5274 17.2009 15.8947 17.4956 15.158 17.5389C15.0454 17.5389 14.9847 17.5909 14.9847 17.6949V18.8563C14.9847 18.9516 15.0454 19.0036 15.158 19.0036C16.3194 18.9689 17.2987 18.5269 18.096 17.6949C18.902 16.8543 19.3007 15.8576 19.3007 14.6963C19.3007 14.0549 19.1794 13.4743 18.9454 12.9543C19.63 12.1223 19.9681 11.1603 19.9681 10.0683C19.9681 9.25361 19.76 8.49094 19.3527 7.78894C18.9476 7.09735 18.3716 6.5214 17.68 6.11628C16.978 5.70894 16.2154 5.50094 15.4007 5.50094C14.0487 5.50094 12.922 6.00361 12.0207 7.01761C11.3274 6.63628 10.5474 6.44561 9.67205 6.44561C8.45005 6.44561 7.35805 6.82694 6.41338 7.58094C5.46871 8.33494 4.85338 9.31428 4.58471 10.5016C3.62271 10.7269 2.83405 11.2296 2.21005 12.0096C1.59471 12.8069 1.28271 13.6996 1.28271 14.6963ZM5.91072 20.8149C5.99738 21.0056 6.12738 21.1356 6.30938 21.2049C6.48272 21.2916 6.66471 21.3003 6.85538 21.2223C7.04605 21.1529 7.17605 21.0229 7.24538 20.8323C7.33205 20.6416 7.34071 20.4596 7.26271 20.2689C7.23027 20.1803 7.1784 20.1001 7.11092 20.0341C7.04344 19.9681 6.96205 19.9181 6.87271 19.8876C6.79164 19.8409 6.70062 19.8142 6.60719 19.8097C6.51375 19.8052 6.42058 19.823 6.33538 19.8616C6.14471 19.9396 6.01472 20.0696 5.92805 20.2689C5.84138 20.4249 5.83272 20.6069 5.91072 20.8149ZM6.46538 18.3536C6.46538 18.4749 6.49138 18.5876 6.54338 18.6829C6.70805 18.9516 6.96805 19.0816 7.31471 19.0816C7.59205 19.0816 7.79138 18.8909 7.91271 18.5183L8.81405 15.7276C8.88338 15.5196 8.86605 15.3203 8.75338 15.1469C8.64072 14.9736 8.48471 14.8609 8.27671 14.8263C8.0961 14.7818 7.90553 14.8033 7.73938 14.8869C7.56848 14.9789 7.44078 15.1347 7.38405 15.3203L6.49138 18.1109C6.47405 18.1976 6.46538 18.2843 6.46538 18.3536ZM8.08605 23.2243C8.08605 23.3369 8.10338 23.4236 8.12938 23.4756C8.20738 23.6663 8.33738 23.7963 8.51938 23.8656C8.59738 23.9089 8.70138 23.9263 8.82272 23.9263C8.87472 23.9263 8.96138 23.9089 9.08272 23.8743C9.27338 23.8049 9.41205 23.6749 9.49005 23.4843C9.56805 23.2936 9.57671 23.1029 9.49005 22.9123C9.40338 22.7216 9.27338 22.5916 9.10005 22.5223C8.84005 22.4183 8.74471 22.4529 8.56271 22.5223C8.39805 22.5829 8.27671 22.6869 8.19871 22.8256C8.12779 22.9467 8.08901 23.084 8.08605 23.2243ZM8.61471 4.02761C8.61471 4.24428 8.68405 4.41761 8.82272 4.54761L9.38605 5.11094C9.52472 5.24961 9.68071 5.32761 9.85405 5.34494C10.036 5.37094 10.2094 5.30161 10.3827 5.14561C10.556 4.98961 10.6427 4.79894 10.6427 4.59094C10.6427 4.38294 10.5734 4.20961 10.4347 4.07094L9.88005 3.51628C9.7354 3.37775 9.543 3.30017 9.34271 3.29961C9.13471 3.29961 8.95272 3.36894 8.81405 3.50761C8.68405 3.65494 8.61471 3.82828 8.61471 4.02761ZM8.71871 20.8929C8.71871 21.0316 8.76205 21.1703 8.85738 21.3089C8.95271 21.4476 9.09138 21.5429 9.27338 21.5949C9.36871 21.6123 9.43805 21.6296 9.48138 21.6296C9.61138 21.6296 9.72405 21.6036 9.81071 21.5603C9.98405 21.4909 10.1054 21.3263 10.1834 21.0663L11.7434 15.7449C11.7748 15.6527 11.7864 15.5548 11.7775 15.4577C11.7685 15.3607 11.7392 15.2666 11.6914 15.1816C11.6477 15.0974 11.5864 15.0236 11.5117 14.9653C11.4369 14.9069 11.3504 14.8654 11.258 14.8436C11.1642 14.8125 11.065 14.8011 10.9666 14.81C10.8682 14.819 10.7727 14.8481 10.686 14.8956C10.5127 14.9909 10.3914 15.1296 10.3307 15.3376L8.73605 20.7023C8.72738 20.7976 8.71871 20.8669 8.71871 20.8929ZM11.7087 20.5549C11.7087 20.6676 11.726 20.7543 11.7694 20.8236C11.8474 21.0056 11.9774 21.1269 12.1594 21.2049C12.2547 21.2483 12.35 21.2743 12.4627 21.2743C12.5147 21.2743 12.6014 21.2569 12.7227 21.2223C12.922 21.1443 13.052 21.0229 13.1214 20.8409C13.1907 20.6503 13.1907 20.4683 13.1214 20.2949C13.0538 20.1236 12.9237 19.9842 12.7574 19.9049C12.6699 19.8584 12.5732 19.832 12.4743 19.8275C12.3754 19.823 12.2767 19.8406 12.1854 19.8789C12.0034 19.9569 11.8647 20.0869 11.7694 20.2863C11.7241 20.3683 11.7031 20.4614 11.7087 20.5549ZM12.3327 18.3363C12.3327 18.4749 12.376 18.6049 12.4627 18.7263C12.5494 18.8563 12.688 18.9429 12.8614 18.9949C12.9394 19.0123 13.0087 19.0209 13.078 19.0209C13.416 19.0209 13.6414 18.8476 13.7627 18.4923L14.6554 15.7363C14.7247 15.5369 14.6987 15.3463 14.5947 15.1729C14.4907 14.9996 14.3434 14.8869 14.144 14.8349C13.936 14.7743 13.754 14.7916 13.5894 14.8869C13.4247 14.9823 13.312 15.1209 13.2427 15.3289L12.3587 18.1023C12.35 18.2149 12.3327 18.2929 12.3327 18.3363ZM13.26 7.86694C13.8407 7.31228 14.56 7.02628 15.4094 7.02628C16.2587 7.02628 16.978 7.32094 17.576 7.91894C18.174 8.50828 18.4774 9.22761 18.4774 10.0769C18.4774 10.6143 18.33 11.1516 18.0267 11.6803C17.1947 10.8483 16.1894 10.4323 14.9847 10.4323H14.7334C14.4734 9.42694 13.988 8.56894 13.26 7.86694ZM14.664 3.29961C14.664 3.50761 14.7334 3.68094 14.8807 3.82828C15.028 3.97561 15.2014 4.04494 15.4094 4.04494C15.6087 4.04494 15.782 3.97561 15.9207 3.82828C16.0594 3.68094 16.1287 3.50761 16.1287 3.29961V1.51428C16.1287 1.30628 16.0594 1.13294 15.9207 0.985611C15.8564 0.914441 15.7773 0.858177 15.689 0.820753C15.6007 0.783329 15.5052 0.765647 15.4094 0.768944C15.2014 0.768944 15.028 0.838277 14.8807 0.985611C14.7334 1.13294 14.664 1.30628 14.664 1.51428V3.29961ZM19.474 5.28428C19.474 5.49228 19.5434 5.66561 19.6907 5.80428C19.8207 5.95161 19.9854 6.02961 20.1934 6.02961C20.3927 6.02961 20.5747 5.95161 20.7134 5.80428L21.9614 4.55628C22.1174 4.42628 22.1954 4.25294 22.1954 4.03628C22.1954 3.82828 22.1174 3.65494 21.97 3.50761C21.9011 3.43771 21.8187 3.38248 21.7279 3.34525C21.637 3.30801 21.5396 3.28954 21.4414 3.29094C21.2507 3.29094 21.086 3.36894 20.9474 3.52494L19.6907 4.76428C19.552 4.89428 19.474 5.07628 19.474 5.28428ZM20.1761 15.5976C20.1761 15.7969 20.2454 15.9703 20.384 16.1176L20.956 16.6636C21.0774 16.8196 21.2507 16.8976 21.476 16.8976C21.684 16.8976 21.8487 16.8196 21.97 16.6636C22.045 16.5996 22.1049 16.5198 22.1454 16.4299C22.1858 16.34 22.2059 16.2422 22.2041 16.1436C22.2041 15.9356 22.126 15.7623 21.97 15.6149L21.4067 15.0776C21.268 14.9216 21.1034 14.8523 20.904 14.8523C20.7047 14.8523 20.5314 14.9216 20.384 15.0689C20.2484 15.2113 20.1738 15.401 20.1761 15.5976ZM21.4414 10.0769C21.4414 10.2849 21.5194 10.4583 21.6667 10.5969C21.8227 10.7529 21.996 10.8223 22.2041 10.8223H23.9634C24.1714 10.8223 24.3447 10.7529 24.492 10.6056C24.6394 10.4583 24.7174 10.2849 24.7174 10.0769C24.7174 9.87761 24.648 9.70428 24.5007 9.56561C24.3557 9.42868 24.1628 9.35402 23.9634 9.35761H22.2041C21.9874 9.35761 21.8054 9.42694 21.658 9.56561C21.5194 9.70428 21.4414 9.87761 21.4414 10.0769Z" fill="#052E44" stroke="#052E44" stroke-width="0.4"/>
</g>
<defs>
<clipPath id="clip0_728_2360">
<rect width="26" height="26" fill="white" transform="translate(0 0.0668945)"/>
</clipPath>
</defs>
</svg>
