<svg width="26" height="27" viewBox="0 0 26 27" fill="none" xmlns="http://www.w3.org/2000/svg">
<g clip-path="url(#clip0_728_2364)">
<path d="M11.8256 0.700684L11.3381 2.51527C11.0131 3.72427 11.0456 5.04702 11.414 6.4196C11.7036 7.50107 12.2291 8.50499 12.9527 9.35929C13.6764 10.2136 14.5802 10.897 15.5993 11.3606C16.6184 11.8242 17.7275 12.0563 18.8469 12.0404C19.9664 12.0245 21.0685 11.7609 22.074 11.2686L23.7434 10.4539L23.6318 12.3064C23.5636 13.4266 23.2256 14.5381 22.6351 15.7189L22.152 16.6874L20.2128 15.7178L20.6981 14.7493C20.8419 14.4619 20.9639 14.1875 21.0643 13.926C18.5871 14.5343 15.9702 14.1475 13.7749 12.8488C11.5795 11.55 9.98059 9.44259 9.32098 6.9786C9.04469 5.9729 8.92125 4.93136 8.95481 3.88893C7.16386 4.7798 5.73621 6.26275 4.914 8.08624C4.0918 9.90974 3.92568 11.9615 4.44381 13.8935C4.46223 13.9596 4.53589 14.1654 4.63231 14.4135L4.74606 14.7028L4.78181 14.7916L4.79264 14.8154L4.79481 14.823L5.20431 15.8262L3.19798 16.6452L2.78848 15.642L2.78523 15.6312L2.77439 15.6052L2.73431 15.5077L2.61189 15.1957C2.51407 14.9527 2.42732 14.7055 2.35189 14.4547C0.801643 8.67618 4.23148 2.73627 10.01 1.1871L11.8256 0.700684ZM2.16773 18.4836H8.66773V20.6503H2.16773V18.4836ZM10.8344 18.4836H23.8344V20.6503H10.8344V18.4836ZM18.4177 22.8169H23.8344V24.9836H18.4177V22.8169ZM2.16773 22.8169H16.2511V24.9836H2.16773V22.8169Z" fill="#052E44"/>
</g>
<defs>
<clipPath id="clip0_728_2364">
<rect width="26" height="26" fill="white" transform="translate(0 0.0668945)"/>
</clipPath>
</defs>
</svg>
