<svg width="357" height="382" viewBox="0 0 357 382" fill="none" xmlns="http://www.w3.org/2000/svg">
<path d="M228.376 317.895C228.383 321.409 227.531 324.873 225.893 327.983H221.211C221.072 327.984 220.933 327.999 220.797 328.026C220.389 328.12 220.026 328.349 219.766 328.676C219.506 329.004 219.365 329.41 219.365 329.828V335.502C215.411 338.355 210.612 339.794 205.741 339.589C200.869 339.384 196.208 337.545 192.509 334.369C188.809 331.193 186.285 326.864 185.344 322.08C184.403 317.296 185.1 312.334 187.321 307.994C189.542 303.653 193.159 300.186 197.59 298.151C202.021 296.116 207.008 295.631 211.748 296.774C216.488 297.917 220.706 300.622 223.722 304.453C226.738 308.284 228.377 313.019 228.376 317.895Z" stroke="#263238" stroke-width="0.343709" stroke-linecap="round" stroke-linejoin="round"/>
<path d="M211.958 325.899C214.976 326.266 217.942 326.981 220.796 328.028C220.388 328.122 220.025 328.352 219.765 328.679C219.505 329.006 219.364 329.412 219.365 329.83V335.504C214.714 338.861 208.923 340.24 203.259 339.34C197.594 338.44 192.516 335.334 189.134 330.701C189.255 330.489 189.384 330.273 189.522 330.055C190.333 328.735 195.222 326.606 202.154 325.881C202.593 324.788 202.73 323.597 202.551 322.432C202.551 322.234 202.499 322.053 202.473 321.872C202.083 321.535 201.759 321.128 201.516 320.673C201.161 319.785 200.873 318.871 200.654 317.94C200.671 318.145 200.623 318.35 200.516 318.526C200.007 319.001 199.542 318.182 199.473 317.466C199.404 316.75 198.516 315.5 198.309 314.793C198.241 314.47 198.262 314.136 198.37 313.824C198.478 313.513 198.668 313.237 198.921 313.025C199.005 312.986 199.098 312.97 199.191 312.979C199.283 312.988 199.372 313.022 199.447 313.077C199.138 311.832 199.039 310.544 199.154 309.266C199.206 308.481 199.428 307.716 199.803 307.024C200.178 306.332 200.697 305.729 201.326 305.256C201.326 305.256 202.189 302.765 207.026 302.782C212.277 302.782 212.803 305.644 212.803 305.644C212.803 305.644 215.519 307.455 214.45 313.068C214.519 313.016 214.602 312.984 214.689 312.976C214.776 312.969 214.863 312.986 214.941 313.025C215.196 313.235 215.388 313.511 215.496 313.823C215.604 314.135 215.624 314.47 215.553 314.793C215.355 315.5 214.458 316.742 214.389 317.466C214.32 318.19 213.855 319.001 213.346 318.526C213.289 318.448 213.253 318.356 213.243 318.259C213.028 319.18 212.739 320.083 212.38 320.958C212.122 321.464 211.753 321.906 211.303 322.251C211.198 323.012 211.227 323.785 211.389 324.536C211.487 325.023 211.681 325.486 211.958 325.899Z" stroke="#263238" stroke-width="0.343709" stroke-linecap="round" stroke-linejoin="round"/>
<path d="M228.117 327.984H221.21C220.191 327.984 219.365 328.81 219.365 329.829V336.736C219.365 337.755 220.191 338.581 221.21 338.581H228.117C229.136 338.581 229.962 337.755 229.962 336.736V329.829C229.962 328.81 229.136 327.984 228.117 327.984Z" stroke="#263238" stroke-width="0.343709" stroke-linecap="round" stroke-linejoin="round"/>
<path d="M227.297 332.676H225.263V330.641H224.055V332.676H222.021V333.883H224.055V335.918H225.263V333.883H227.297V332.676Z" fill="#263238"/>
<path d="M92.986 143.11C92.9915 147.994 91.8077 152.806 89.537 157.13H82.2942C81.8048 157.13 81.3355 157.324 80.9894 157.67C80.6434 158.016 80.449 158.485 80.449 158.975V167.597C74.9534 171.557 68.2856 173.553 61.5183 173.263C54.7511 172.974 48.2779 170.416 43.1404 166.002C38.0029 161.588 34.4997 155.574 33.1945 148.927C31.8893 142.281 32.8581 135.388 35.9448 129.359C39.0316 123.33 44.0569 118.515 50.2122 115.688C56.3675 112.861 63.2949 112.187 69.8797 113.774C76.4645 115.361 82.3239 119.118 86.5151 124.439C90.7062 129.76 92.9854 136.336 92.986 143.11Z" stroke="#263238" stroke-width="0.343709" stroke-linecap="round" stroke-linejoin="round"/>
<path d="M78.1601 125.242L41.8083 132.315C40.5135 132.567 39.6681 133.821 39.92 135.115L44.5884 159.11C44.8404 160.405 46.0942 161.25 47.389 160.998L83.7408 153.926C85.0356 153.674 85.881 152.42 85.6291 151.125L80.9607 127.131C80.7087 125.836 79.4549 124.99 78.1601 125.242Z" stroke="#263238" stroke-width="0.343709" stroke-linecap="round" stroke-linejoin="round"/>
<path d="M40.103 136.024L59.7967 146.733C60.969 147.368 62.3255 147.575 63.634 147.321C64.9426 147.066 66.122 146.364 66.9705 145.336L81.1803 128.04" stroke="#263238" stroke-width="0.343709" stroke-linecap="round" stroke-linejoin="round"/>
<path d="M47.6055 158.648L59.7631 146.732" stroke="#263238" stroke-width="0.343709" stroke-linecap="round" stroke-linejoin="round"/>
<path d="M82.4842 151.863L66.938 145.335" stroke="#263238" stroke-width="0.343709" stroke-linecap="round" stroke-linejoin="round"/>
<path d="M93.3393 157.132H82.2939C81.2749 157.132 80.4487 157.958 80.4487 158.977V170.022C80.4487 171.041 81.2749 171.868 82.2939 171.868H93.3393C94.3584 171.868 95.1845 171.041 95.1845 170.022V158.977C95.1845 157.958 94.3584 157.132 93.3393 157.132Z" stroke="#263238" stroke-width="0.343709" stroke-linecap="round" stroke-linejoin="round"/>
<path d="M91.4848 163.667H88.6567V160.838H86.9839V163.667H84.1558V165.339H86.9839V168.167H88.6567V165.339H91.4848V163.667Z" fill="#263238"/>
<path d="M330.231 264.006H302.812L303.347 263.144C305.668 259.315 306.846 254.902 306.744 250.426V250.374C306.753 249.09 307.016 247.82 307.516 246.638C308.016 245.455 308.745 244.382 309.66 243.481C310.574 242.58 311.658 241.868 312.848 241.385C314.038 240.903 315.311 240.66 316.595 240.669C317.879 240.679 319.149 240.941 320.331 241.442C321.514 241.942 322.586 242.67 323.487 243.585C324.389 244.5 325.101 245.583 325.583 246.773C326.066 247.963 326.309 249.236 326.3 250.52C326.129 254.867 327.241 259.167 329.498 262.885L330.231 264.006Z" stroke="#263238" stroke-width="0.343709" stroke-linecap="round" stroke-linejoin="round"/>
<path d="M314.307 240.405C313.868 239.966 313.57 239.407 313.449 238.798C313.328 238.189 313.39 237.559 313.628 236.985C313.865 236.412 314.268 235.922 314.784 235.577C315.3 235.232 315.907 235.048 316.527 235.048C317.148 235.048 317.755 235.232 318.271 235.577C318.787 235.922 319.189 236.412 319.427 236.985C319.664 237.559 319.727 238.189 319.606 238.798C319.485 239.407 319.186 239.966 318.748 240.405" stroke="#263238" stroke-width="0.343709" stroke-linecap="round" stroke-linejoin="round"/>
<path d="M330.939 264.015H302.114C301.471 264.015 300.95 264.536 300.95 265.179V265.662C300.95 266.304 301.471 266.826 302.114 266.826H330.939C331.582 266.826 332.103 266.304 332.103 265.662V265.179C332.103 264.536 331.582 264.015 330.939 264.015Z" stroke="#263238" stroke-width="0.343709" stroke-linecap="round" stroke-linejoin="round"/>
<path d="M316.522 273.947C317.846 273.947 318.919 272.874 318.919 271.55C318.919 270.226 317.846 269.153 316.522 269.153C315.198 269.153 314.125 270.226 314.125 271.55C314.125 272.874 315.198 273.947 316.522 273.947Z" stroke="#263238" stroke-width="0.343709" stroke-linecap="round" stroke-linejoin="round"/>
<path d="M342.734 256.573C342.74 260.813 341.716 264.991 339.751 268.747H333.715C333.226 268.747 332.757 268.942 332.411 269.288C332.064 269.634 331.87 270.103 331.87 270.593V277.835C327.098 281.281 321.305 283.02 315.424 282.774C309.543 282.527 303.916 280.309 299.448 276.476C294.981 272.643 291.933 267.419 290.796 261.644C289.658 255.869 290.497 249.879 293.177 244.638C295.856 239.397 300.222 235.211 305.57 232.752C310.918 230.293 316.938 229.706 322.66 231.084C328.383 232.461 333.475 235.725 337.118 240.348C340.761 244.972 342.742 250.686 342.743 256.573H342.734Z" stroke="#263238" stroke-width="0.343709" stroke-linecap="round" stroke-linejoin="round"/>
<path d="M342.803 268.748H333.706C332.687 268.748 331.861 269.574 331.861 270.593V279.69C331.861 280.709 332.687 281.535 333.706 281.535H342.803C343.822 281.535 344.648 280.709 344.648 279.69V270.593C344.648 269.574 343.822 268.748 342.803 268.748Z" stroke="#263238" stroke-width="0.343709" stroke-linecap="round" stroke-linejoin="round"/>
<path d="M341.433 274.423H338.984V271.965H337.535V274.423H335.078V275.871H337.535V278.32H338.984V275.871H341.433V274.423Z" fill="#263238"/>
<path d="M333.078 36.2529H139.737C136.427 36.2529 133.744 38.9359 133.744 42.2455V230.473C133.744 233.783 136.427 236.466 139.737 236.466H333.078C336.387 236.466 339.07 233.783 339.07 230.473V42.2455C339.07 38.9359 336.387 36.2529 333.078 36.2529Z" fill="white"/>
<mask id="mask0_571_6788" style="mask-type:luminance" maskUnits="userSpaceOnUse" x="133" y="36" width="207" height="201">
<path d="M333.079 36.252H139.738C136.428 36.252 133.745 38.9349 133.745 42.2445V230.472C133.745 233.782 136.428 236.465 139.738 236.465H333.079C336.388 236.465 339.071 233.782 339.071 230.472V42.2445C339.071 38.9349 336.388 36.252 333.079 36.252Z" fill="white"/>
</mask>
<g mask="url(#mask0_571_6788)">
<path d="M307.263 220.635H259.667C256.694 220.635 253.843 219.454 251.741 217.352C249.638 215.25 248.458 212.399 248.458 209.426C248.458 206.453 249.638 203.602 251.741 201.5C253.843 199.398 256.694 198.217 259.667 198.217H307.263C310.235 198.217 313.087 199.398 315.189 201.5C317.291 203.602 318.472 206.453 318.472 209.426C318.472 212.399 317.291 215.25 315.189 217.352C313.087 219.454 310.235 220.635 307.263 220.635Z" fill="#2CE07F" stroke="#263238" stroke-width="0.343709" stroke-linecap="round" stroke-linejoin="round"/>
<path d="M271.298 214.927H269.479L269.169 212.84H266.953L266.642 214.927H265.013L266.849 203.459H269.488L271.298 214.927ZM267.186 211.288H268.91L268.048 205.485L267.186 211.288Z" fill="#263238"/>
<path d="M277.342 210.649V212.167C277.342 214.003 276.428 215.055 274.661 215.055C272.893 215.055 271.971 214.003 271.971 212.167V206.209C271.971 204.372 272.885 203.329 274.661 203.329C276.437 203.329 277.342 204.372 277.342 206.209V207.321H275.618V206.096C275.618 205.277 275.256 204.967 274.678 204.967C274.1 204.967 273.747 205.277 273.747 206.096V212.287C273.747 213.106 274.109 213.4 274.678 213.4C275.247 213.4 275.618 213.106 275.618 212.287V210.649H277.342Z" fill="#263238"/>
<path d="M283.671 210.649V212.167C283.671 214.003 282.748 215.055 280.98 215.055C279.213 215.055 278.299 214.003 278.299 212.167V206.209C278.299 204.372 279.213 203.329 280.98 203.329C282.748 203.329 283.671 204.372 283.671 206.209V207.321H281.946V206.096C281.946 205.277 281.584 204.967 281.015 204.967C280.446 204.967 280.084 205.277 280.084 206.096V212.287C280.084 213.106 280.437 213.4 281.015 213.4C281.593 213.4 281.946 213.106 281.946 212.287V210.649H283.671Z" fill="#263238"/>
<path d="M286.568 208.288H289.043V209.926H286.568V213.289H289.681V214.927H284.766V203.459H289.681V205.115H286.568V208.288Z" fill="#263238"/>
<path d="M296.14 206.287V207.779C296.14 209.615 295.277 210.616 293.449 210.616H292.587V214.927H290.785V203.459H293.467C295.252 203.459 296.14 204.459 296.14 206.287ZM292.604 205.115V208.995H293.467C294.044 208.995 294.329 208.736 294.329 207.917V206.192C294.329 205.33 294.019 205.115 293.467 205.115H292.604Z" fill="#263238"/>
<path d="M296.449 203.459H302.019V205.115H300.14V214.944H298.338V205.115H296.449V203.459Z" fill="#263238"/>
<path d="M213.13 220.635H165.543C162.57 220.635 159.719 219.454 157.617 217.352C155.515 215.25 154.334 212.399 154.334 209.426C154.334 206.453 155.515 203.602 157.617 201.5C159.719 199.398 162.57 198.217 165.543 198.217H213.13C216.103 198.217 218.954 199.398 221.056 201.5C223.159 203.602 224.34 206.453 224.34 209.426C224.34 212.399 223.159 215.25 221.056 217.352C218.954 219.454 216.103 220.635 213.13 220.635Z" fill="#2CE07F"/>
<mask id="mask1_571_6788" style="mask-type:luminance" maskUnits="userSpaceOnUse" x="154" y="198" width="71" height="23">
<path d="M213.131 220.635H165.544C162.571 220.635 159.72 219.454 157.618 217.352C155.516 215.25 154.335 212.399 154.335 209.426C154.335 206.453 155.516 203.602 157.618 201.5C159.72 199.398 162.571 198.217 165.544 198.217H213.131C216.104 198.217 218.955 199.398 221.057 201.5C223.16 203.602 224.341 206.453 224.341 209.426C224.341 212.399 223.16 215.25 221.057 217.352C218.955 219.454 216.104 220.635 213.131 220.635Z" fill="white"/>
</mask>
<g mask="url(#mask1_571_6788)">
<path opacity="0.6" d="M213.131 220.635H165.544C162.571 220.635 159.72 219.454 157.618 217.352C155.516 215.25 154.335 212.399 154.335 209.426C154.335 206.453 155.516 203.602 157.618 201.5C159.72 199.398 162.571 198.217 165.544 198.217H213.131C216.104 198.217 218.955 199.398 221.057 201.5C223.16 203.602 224.341 206.453 224.341 209.426C224.341 212.399 223.16 215.25 221.057 217.352C218.955 219.454 216.104 220.635 213.131 220.635Z" fill="white"/>
</g>
<path d="M213.13 220.635H165.543C162.57 220.635 159.719 219.454 157.617 217.352C155.515 215.25 154.334 212.399 154.334 209.426C154.334 206.453 155.515 203.602 157.617 201.5C159.719 199.398 162.57 198.217 165.543 198.217H213.13C216.103 198.217 218.954 199.398 221.056 201.5C223.159 203.602 224.34 206.453 224.34 209.426C224.34 212.399 223.159 215.25 221.056 217.352C218.954 219.454 216.103 220.635 213.13 220.635Z" stroke="#263238" stroke-width="0.343709" stroke-linecap="round" stroke-linejoin="round"/>
<path d="M169.622 203.459H172.476C174.278 203.459 175.158 204.459 175.158 206.287V212.09C175.158 213.927 174.295 214.927 172.476 214.927H169.622V203.459ZM171.424 205.097V213.289H172.442C173.011 213.289 173.356 212.987 173.356 212.168V206.21C173.356 205.39 173.011 205.097 172.442 205.097H171.424Z" fill="#263238"/>
<path d="M178.105 208.288H180.58V209.926H178.105V213.289H181.218V214.927H176.303V203.459H181.218V205.115H178.105V208.288Z" fill="#263238"/>
<path d="M187.565 210.649V212.167C187.565 214.003 186.651 215.055 184.874 215.055C183.098 215.055 182.193 214.003 182.193 212.167V206.209C182.193 204.372 183.107 203.329 184.874 203.329C186.642 203.329 187.565 204.372 187.565 206.209V207.321H185.84V206.096C185.84 205.277 185.487 204.967 184.909 204.967C184.331 204.967 183.978 205.277 183.978 206.096V212.287C183.978 213.106 184.34 213.4 184.909 213.4C185.478 213.4 185.84 213.106 185.84 212.287V210.649H187.565Z" fill="#263238"/>
<path d="M188.661 203.459H190.463V213.289H193.447V214.927H188.678L188.661 203.459Z" fill="#263238"/>
<path d="M194.221 203.459H196.032V214.927H194.221V203.459Z" fill="#263238"/>
<path d="M198.973 206.615V214.927H197.352V203.459H199.611L201.43 210.357V203.459H203.034V214.927H201.206L198.973 206.615Z" fill="#263238"/>
<path d="M206.129 208.288H208.604V209.926H206.129V213.289H209.242V214.927H204.327V203.459H209.242V205.115H206.129V208.288Z" fill="#263238"/>
<path d="M283.119 126.65C283.119 135.895 280.378 144.932 275.242 152.618C270.106 160.305 262.806 166.296 254.265 169.834C245.723 173.372 236.325 174.297 227.258 172.494C218.191 170.69 209.862 166.239 203.325 159.702C196.788 153.165 192.336 144.836 190.533 135.769C188.729 126.702 189.655 117.303 193.193 108.762C196.731 100.221 202.722 92.9212 210.408 87.7851C218.095 82.649 227.132 79.9076 236.377 79.9076C242.522 79.8836 248.611 81.0763 254.293 83.4169C259.975 85.7574 265.137 89.1995 269.482 93.5447C273.827 97.8899 277.269 103.052 279.61 108.734C281.951 114.416 283.143 120.505 283.119 126.65Z" fill="#2CE07F" stroke="#263238" stroke-width="0.343709" stroke-linecap="round" stroke-linejoin="round"/>
<path d="M275.229 152.646C271.043 158.895 265.412 164.042 258.812 167.649C252.212 171.257 244.839 173.218 237.319 173.367C229.799 173.516 222.355 171.848 215.617 168.505C208.88 165.162 203.048 160.242 198.619 154.164C198.895 153.698 199.17 153.233 199.481 152.776C201.205 149.922 211.759 145.404 226.685 143.783C230.052 143.412 233.437 143.21 236.825 143.179C240.494 143.144 244.161 143.357 247.801 143.817C260.769 145.438 271.556 149.732 275.229 152.646Z" fill="#757575" stroke="#263238" stroke-width="0.343709" stroke-linecap="round" stroke-linejoin="round"/>
<path d="M248.889 144.919C247.724 146.981 246.025 148.689 243.97 149.865C241.915 151.041 239.581 151.641 237.214 151.602C230.316 151.602 225.324 145.635 225.324 145.635C227.738 143.471 227.91 139.453 227.531 136.288C227.374 134.738 227.086 133.203 226.669 131.701H247.242C245.992 135.814 246.035 138.763 246.518 140.815C247.199 143.842 248.889 144.919 248.889 144.919Z" fill="white" stroke="#263238" stroke-width="0.343709" stroke-linecap="round" stroke-linejoin="round"/>
<path d="M246.473 140.815C231.608 144.712 228.659 136.219 228.659 136.219L227.53 136.288C227.373 134.738 227.084 133.203 226.667 131.701H247.241C245.947 135.814 245.99 138.763 246.473 140.815Z" fill="#263238"/>
<path d="M251.673 117.259C251.673 117.259 253.328 115.457 254.148 116.052C254.697 116.501 255.111 117.092 255.345 117.762C255.58 118.431 255.625 119.152 255.475 119.845C255.036 121.38 253.113 124.045 252.958 125.597C252.803 127.149 251.82 128.908 250.725 127.882C249.629 126.856 251.673 117.259 251.673 117.259Z" fill="white" stroke="#263238" stroke-width="0.343709" stroke-linecap="round" stroke-linejoin="round"/>
<path d="M222.15 117.259C222.15 117.259 220.494 115.457 219.675 116.052C219.126 116.501 218.712 117.092 218.478 117.762C218.243 118.431 218.198 119.152 218.347 119.845C218.787 121.38 220.71 124.045 220.865 125.597C221.02 127.149 222.003 128.908 223.098 127.882C224.193 126.856 222.15 117.259 222.15 117.259Z" fill="white" stroke="#263238" stroke-width="0.343709" stroke-linecap="round" stroke-linejoin="round"/>
<path d="M236.557 96.4702C257.397 96.4702 252.44 124.217 248.628 133.124C247.283 136.254 240.299 140.358 236.928 140.358C233.789 140.358 226.581 135.452 225.339 132.512C221.442 123.545 216.725 96.4702 236.557 96.4702Z" fill="white" stroke="#263238" stroke-width="0.343709" stroke-linecap="round" stroke-linejoin="round"/>
<path d="M240.093 113.587C240.093 113.587 245.517 111.906 247.198 115.26" stroke="#263238" stroke-width="0.343709" stroke-linecap="round" stroke-linejoin="round"/>
<path d="M244.112 118.147C244.112 118.785 243.784 119.303 243.388 119.303C242.991 119.303 242.655 118.785 242.655 118.147C242.655 117.509 242.982 116.992 243.388 116.992C243.793 116.992 244.112 117.509 244.112 118.147Z" fill="#263238"/>
<path d="M233.73 113.587C233.73 113.587 228.306 111.906 226.625 115.26" stroke="#263238" stroke-width="0.343709" stroke-linecap="round" stroke-linejoin="round"/>
<path d="M229.712 118.147C229.712 118.785 230.04 119.303 230.436 119.303C230.833 119.303 231.169 118.785 231.169 118.147C231.169 117.509 230.841 116.992 230.436 116.992C230.031 116.992 229.712 117.509 229.712 118.147Z" fill="#263238"/>
<path d="M245.181 103.55C239.96 105.218 234.348 105.218 229.126 103.55C229.126 103.55 226.307 103.387 225.203 104.801C224.1 106.215 225.203 110.578 225.496 112.354C225.79 114.13 223.056 115.363 223.427 119.847L222.366 121.399C222.366 121.399 219.426 114.173 220.168 107.965C220.909 101.757 224.832 99.3426 224.832 99.3426C224.832 99.3426 226.617 93.9708 237.102 94.0139C248.406 94.057 249.544 100.17 249.544 100.17C249.544 100.17 257.201 105.283 251.536 121.925L250.312 119.855C250.604 117.648 250.096 115.409 248.88 113.544C247.889 112.104 249.467 107.775 249.096 105.551C248.725 103.326 245.181 103.55 245.181 103.55Z" fill="#263238"/>
<path d="M238.153 116.992C238.153 116.992 238.213 122.062 239.541 123.709C240.222 124.571 238.894 126.382 236.842 126.709" stroke="#263238" stroke-width="0.343709" stroke-linecap="round" stroke-linejoin="round"/>
<path d="M232.351 129.651C232.494 130.173 232.74 130.662 233.072 131.09C233.405 131.518 233.819 131.875 234.291 132.143C235.713 132.755 240.042 132.496 240.861 131.988C241.68 131.479 242.085 129.815 242.085 129.815" fill="white"/>
<path d="M232.351 129.651C232.494 130.173 232.74 130.662 233.072 131.09C233.405 131.518 233.819 131.875 234.291 132.143C235.713 132.755 240.042 132.496 240.861 131.988C241.68 131.479 242.085 129.815 242.085 129.815" stroke="#263238" stroke-width="0.343709" stroke-linecap="round" stroke-linejoin="round"/>
<path d="M231.894 129.547C235.44 130.307 239.108 130.307 242.654 129.547" stroke="#263238" stroke-width="0.343709" stroke-linecap="round" stroke-linejoin="round"/>
<path d="M247.199 103.765C247.199 103.765 244.871 107.214 237.214 107.965C237.798 107.422 238.26 106.76 238.568 106.024C237.41 106.873 236.094 107.481 234.698 107.814C233.302 108.147 231.853 108.198 230.437 107.965C228.98 107.767 227.496 107.956 226.135 108.511C224.773 109.066 223.581 109.969 222.677 111.129L221.383 116.992C221.383 116.992 216.805 111.819 220.064 103.507L218.892 104.481C218.892 104.481 220.194 93.3667 233.55 92.9615L231.929 91.9871C231.929 91.9871 245.233 89.1503 250.441 97.9107C250.441 97.9107 255.071 98.773 256.21 106.783L254.908 105.921C254.908 105.921 256.968 112.569 252.692 118.13C252.657 118.148 247.199 109.344 247.199 103.765Z" fill="#263238"/>
<path opacity="0.5" d="M287.224 65.8776H185.6C184.914 65.8776 184.256 65.605 183.771 65.1199C183.286 64.6348 183.013 63.9769 183.013 63.2908C183.013 62.6048 183.286 61.9468 183.771 61.4617C184.256 60.9766 184.914 60.7041 185.6 60.7041H287.224C287.91 60.7041 288.568 60.9766 289.053 61.4617C289.538 61.9468 289.811 62.6048 289.811 63.2908C289.811 63.9769 289.538 64.6348 289.053 65.1199C288.568 65.605 287.91 65.8776 287.224 65.8776Z" fill="#263238"/>
<g opacity="0.4">
<path d="M279.972 180.678H192.843C192.708 180.678 192.575 180.651 192.451 180.6C192.327 180.548 192.215 180.472 192.12 180.377C192.026 180.281 191.951 180.168 191.9 180.044C191.85 179.919 191.824 179.786 191.825 179.652C191.825 179.382 191.932 179.123 192.123 178.932C192.314 178.742 192.573 178.634 192.843 178.634H279.972C280.107 178.633 280.24 178.659 280.364 178.709C280.489 178.76 280.602 178.835 280.697 178.929C280.793 179.024 280.869 179.136 280.92 179.26C280.972 179.384 280.999 179.517 280.999 179.652C280.999 179.924 280.89 180.185 280.698 180.377C280.506 180.57 280.245 180.678 279.972 180.678Z" fill="black"/>
<path d="M271.35 186.145H201.465C201.331 186.145 201.198 186.118 201.074 186.066C200.95 186.015 200.837 185.939 200.743 185.844C200.648 185.748 200.573 185.635 200.523 185.511C200.472 185.386 200.447 185.253 200.448 185.119C200.448 184.849 200.555 184.59 200.746 184.399C200.937 184.208 201.195 184.101 201.465 184.101H271.35C271.484 184.1 271.618 184.125 271.742 184.176C271.867 184.227 271.98 184.301 272.075 184.396C272.171 184.491 272.246 184.603 272.298 184.727C272.35 184.851 272.376 184.984 272.376 185.119C272.376 185.391 272.268 185.652 272.076 185.844C271.883 186.037 271.622 186.145 271.35 186.145Z" fill="black"/>
</g>
<path d="M282.421 148.31H267.893C265.607 148.31 263.754 150.163 263.754 152.448V166.977C263.754 169.263 265.607 171.116 267.893 171.116H282.421C284.707 171.116 286.56 169.263 286.56 166.977V152.448C286.56 150.163 284.707 148.31 282.421 148.31Z" fill="#263238" stroke="white" stroke-width="0.343709" stroke-linecap="round" stroke-linejoin="round"/>
<path d="M280.834 158.425H276.454V154.044H273.867V158.425H269.487V161.011H273.867V165.383H276.454V161.011H280.834V158.425Z" fill="white"/>
<path opacity="0.3" d="M333.311 45.823C333.311 46.6552 333.065 47.4687 332.602 48.1607C332.14 48.8527 331.483 49.392 330.714 49.7104C329.945 50.0289 329.099 50.1122 328.283 49.9499C327.467 49.7875 326.717 49.3868 326.128 48.7983C325.54 48.2098 325.139 47.4601 324.977 46.6439C324.814 45.8277 324.898 44.9816 325.216 44.2127C325.535 43.4439 326.074 42.7867 326.766 42.3244C327.458 41.862 328.272 41.6152 329.104 41.6152C330.22 41.6152 331.29 42.0586 332.079 42.8477C332.868 43.6368 333.311 44.707 333.311 45.823Z" fill="black"/>
<path opacity="0.3" d="M321.24 45.823C321.24 46.6552 320.993 47.4687 320.531 48.1607C320.068 48.8527 319.411 49.392 318.642 49.7104C317.873 50.0289 317.027 50.1122 316.211 49.9499C315.395 49.7875 314.645 49.3868 314.057 48.7983C313.468 48.2098 313.067 47.4601 312.905 46.6439C312.743 45.8277 312.826 44.9816 313.145 44.2127C313.463 43.4439 314.002 42.7867 314.694 42.3244C315.386 41.862 316.2 41.6152 317.032 41.6152C318.148 41.6152 319.218 42.0586 320.007 42.8477C320.796 43.6368 321.24 44.707 321.24 45.823Z" fill="black"/>
<path opacity="0.3" d="M253.338 215.462C253.338 215.462 258.736 216.626 258.925 220.558C259.339 229.008 259.322 229.267 253.39 228.516C253.39 228.516 249.803 233.44 241.111 232.026L238.136 236.492H222.763C227.031 231.396 230.463 227.18 231.963 225.18C237.473 217.842 263.219 207.029 263.219 207.029C263.219 207.029 263.116 209.832 253.338 215.462Z" fill="black" fill-opacity="0.7"/>
</g>
<path d="M333.078 36.2529H139.737C136.427 36.2529 133.744 38.9359 133.744 42.2455V230.473C133.744 233.783 136.427 236.466 139.737 236.466H333.078C336.387 236.466 339.07 233.783 339.07 230.473V42.2455C339.07 38.9359 336.387 36.2529 333.078 36.2529Z" stroke="#263238" stroke-width="0.343709" stroke-linecap="round" stroke-linejoin="round"/>
<path d="M59.1184 357.854C59.1184 357.854 60.636 346.809 61.7655 342.256C62.895 337.703 69.5257 320.088 70.9656 310.224L53.9449 296.661C53.9449 296.661 47.5298 329.745 47.5298 334.936L44.0205 346.24" fill="white"/>
<path d="M59.1184 357.854C59.1184 357.854 60.6359 346.809 61.7655 342.256C62.895 337.703 69.5257 320.088 70.9656 310.224L53.9449 296.661C53.9449 296.661 47.5298 329.745 47.5298 334.936L44.0205 346.24" stroke="#263238" stroke-width="0.343709" stroke-linecap="round" stroke-linejoin="round"/>
<path d="M75.9917 322.7C72.4335 319.987 68.9213 317.112 65.4551 314.077C60.4454 309.766 55.5651 305.075 50.8745 300.152C52.0094 294.65 53.4195 289.208 55.0995 283.847C56.7012 278.805 60.118 274.537 64.6877 271.87L64.8601 271.767L65.662 271.319C66.1621 271.051 66.645 270.81 67.1106 270.603C68.6426 269.897 70.2514 269.37 71.9046 269.034L75.5692 317.207L75.9917 322.7Z" fill="#2CE07F"/>
<mask id="mask2_571_6788" style="mask-type:luminance" maskUnits="userSpaceOnUse" x="50" y="269" width="26" height="54">
<path d="M75.9917 322.7C72.4335 319.987 68.9213 317.112 65.4551 314.077C60.4454 309.766 55.5651 305.075 50.8745 300.152C52.0094 294.65 53.4195 289.208 55.0995 283.847C56.7012 278.805 60.118 274.537 64.6877 271.87L64.8601 271.767L65.662 271.319C66.1621 271.051 66.645 270.81 67.1106 270.603C68.6426 269.897 70.2514 269.37 71.9046 269.034L75.5692 317.207L75.9917 322.7Z" fill="white"/>
</mask>
<g mask="url(#mask2_571_6788)">
<path opacity="0.3" d="M75.9917 322.7C72.4335 319.987 68.9213 317.112 65.4551 314.077C60.4454 309.766 55.5651 305.075 50.8745 300.152C52.0094 294.65 53.4195 289.208 55.0995 283.847C56.7012 278.805 60.118 274.537 64.6877 271.87L64.8601 271.767L65.662 271.319C66.1621 271.051 66.645 270.81 67.1106 270.603C68.6426 269.897 70.2514 269.37 71.9046 269.034L75.5692 317.207L75.9917 322.7Z" fill="black" fill-opacity="0.7"/>
</g>
<path d="M75.9917 322.7C72.4335 319.987 68.9213 317.112 65.4551 314.077C60.4454 309.766 55.5651 305.075 50.8745 300.152C52.0094 294.65 53.4195 289.208 55.0995 283.847C56.7012 278.805 60.118 274.537 64.6877 271.87L64.8601 271.767L65.662 271.319C66.1621 271.051 66.645 270.81 67.1106 270.603C68.6426 269.897 70.2514 269.37 71.9046 269.034L75.5692 317.207L75.9917 322.7Z" stroke="#263238" stroke-width="0.343709" stroke-linecap="round" stroke-linejoin="round"/>
<path d="M58.2559 295.926C58.2559 295.926 60.239 309.403 69.3443 314.542" stroke="#263238" stroke-width="0.343709" stroke-linecap="round" stroke-linejoin="round"/>
<path d="M149.541 306.859C149.541 313.757 143.928 341.659 143.928 341.659L143.738 366.173C143.738 366.173 132.124 370.027 113.378 370.027C90.4082 370.027 80.2337 363.879 79.337 363.302L79.268 363.259L82.717 346.264C82.717 346.264 64.6098 303.531 64.2563 302.065C63.6959 299.892 63.213 297.694 62.825 295.503C61.8168 290.444 61.5525 285.265 62.0403 280.13C62.3089 277.229 63.1624 274.413 64.5495 271.852C64.6472 271.68 64.7507 271.507 64.8599 271.335C65.3273 270.581 65.8736 269.878 66.4895 269.239L66.6533 269.067C67.2216 268.499 67.8296 267.971 68.4727 267.489C68.6882 267.325 68.9124 267.17 69.1366 267.015L69.6971 266.636L70.0592 266.403L70.5334 266.11L71.2664 265.687C84.8812 258.142 110.223 259.306 110.223 259.306C110.502 259.215 110.792 259.16 111.085 259.143H111.145C111.651 259.113 112.159 259.154 112.654 259.263C118.966 260.488 130.52 270.792 139.03 282.544C141.586 286.013 143.842 289.694 145.773 293.546C148.101 298.237 149.541 302.858 149.541 306.859Z" fill="#2CE07F"/>
<path opacity="0.3" d="M149.386 304.497C144.814 303.078 140.497 300.939 136.599 298.16C130.486 299.307 124.588 293.219 123.053 289.96L143.109 288.667C144.083 290.27 144.963 291.883 145.747 293.478C147.554 296.928 148.783 300.65 149.386 304.497Z" fill="black" fill-opacity="0.7"/>
<path opacity="0.3" d="M86.7957 350.627C86.7957 350.627 91.3052 369.924 79.3373 363.276L79.2683 363.233L82.7172 346.238C82.7172 346.238 64.6101 303.506 64.2566 302.04C63.6961 299.867 63.2133 297.668 62.8253 295.478C61.8196 290.427 61.5553 285.257 62.0406 280.13C62.3092 277.23 63.1627 274.414 64.5498 271.853C64.6475 271.68 64.751 271.508 64.8602 271.335C65.3276 270.581 65.8738 269.879 66.4898 269.24L66.6536 269.068C67.2219 268.499 67.8299 267.972 68.473 267.49C68.6885 267.326 68.9127 267.171 69.1369 267.015L69.6974 266.636L70.0595 266.403L70.5337 266.11L71.2666 265.688C83.7951 266.653 97.7203 272.585 100.41 284.76C100.41 284.76 99.2723 303.411 95.1767 310.231C92.6331 314.482 91.7708 334.331 104.351 328.588C100.419 348.403 86.7957 350.627 86.7957 350.627Z" fill="black" fill-opacity="0.7"/>
<path d="M79.2683 363.233L82.7172 346.238C82.7172 346.238 64.6101 303.505 64.2566 302.039C63.6961 299.866 63.2133 297.668 62.8253 295.478C61.8196 290.427 61.5553 285.257 62.0406 280.13C62.3092 277.229 63.1627 274.413 64.5498 271.852C64.6475 271.68 64.751 271.507 64.8602 271.335C65.3276 270.581 65.8738 269.878 66.4898 269.239L66.6536 269.067C67.2219 268.499 67.8299 267.971 68.473 267.489C81.0272 258.004 110.223 259.306 110.223 259.306C110.502 259.215 110.792 259.16 111.085 259.143H111.145C111.652 259.113 112.159 259.154 112.654 259.263C118.966 260.488 130.52 270.792 139.03 282.544C141.586 286.013 143.842 289.694 145.773 293.546C148.127 298.314 149.567 302.927 149.567 306.902C149.567 313.8 143.954 341.702 143.954 341.702L143.764 366.216" stroke="#263238" stroke-width="0.343709" stroke-linecap="round" stroke-linejoin="round"/>
<path d="M122.864 220.255C121.838 218.979 117.26 215.944 117.26 215.944C116.397 209.986 115.863 202.036 109.689 195.871C101.248 187.447 81.7696 190.111 75.3889 202.674C62.6536 227.774 86.7274 251.416 116.19 246.415C118.699 245.993 120.389 243.536 120.734 231.869L121.519 230.24C121.519 230.24 120.708 227.455 120.458 226.058C121.941 224.627 123.606 221.186 122.864 220.255Z" fill="white" stroke="#263238" stroke-width="0.343709" stroke-linecap="round" stroke-linejoin="round"/>
<path d="M115.621 206.624C114.865 207.854 114.285 209.183 113.896 210.573" stroke="#263238" stroke-width="0.343709" stroke-linecap="round" stroke-linejoin="round"/>
<path d="M116.07 217.851C116.07 217.851 118.122 219.092 119.053 223.024" stroke="#263238" stroke-width="0.343709" stroke-linecap="round" stroke-linejoin="round"/>
<path d="M121.253 230.827C121.253 230.827 120.451 232.121 117.114 231.741" stroke="#263238" stroke-width="0.343709" stroke-linecap="round" stroke-linejoin="round"/>
<path d="M112.499 192.614C112.499 192.614 120.259 189.415 118.017 204.59C115.775 219.766 104.557 237.813 95.0986 234.433L95.2625 233.079C95.2625 233.079 103.54 236.347 110.507 221.956C117.474 207.565 116.896 194.364 112.913 196.684L112.499 192.614Z" fill="#263238"/>
<path d="M111.801 216.134C111.801 216.134 108.835 223.954 106.464 226.481C106.464 226.481 105.507 223.489 103.222 223.463C100.937 223.437 98.9106 217.358 98.9106 217.358L111.801 216.134Z" fill="#263238"/>
<path d="M108.611 216.497C108.611 216.497 103.162 229.784 107.154 240.045C111.146 250.306 122.398 258.014 122.398 258.014L118.768 256.367C118.768 256.367 109.215 250.081 105.878 239.2C103.917 232.298 103.869 224.993 105.74 218.066L108.611 216.497Z" fill="#263238"/>
<path d="M63.7054 198.811C63.7054 198.811 54.6259 202.527 55.1174 215.987C55.6089 229.447 64.8349 241.147 66.6887 258.306C68.3011 273.231 52.0306 286.372 68.508 303.815C68.508 303.815 61.2911 292.606 63.4898 280.069C65.6885 267.532 73.2331 269.334 67.6372 248.925C62.0412 228.515 50.1681 216.444 62.4637 203.433L63.7054 198.811Z" fill="#263238"/>
<path d="M116.647 254.565C100.04 245.305 104.575 225.534 104.575 225.534C117.069 216.325 118.734 199.08 116.44 194.639C114.146 190.199 109.145 191.716 109.145 191.716C89.2362 182.232 64.7312 191.087 60.0751 205.029C54.117 222.886 64.3001 236.605 69.2752 251.591C73.7416 265.059 63.3947 267.499 63.4292 280.907C61.4719 305.912 87.115 316.354 87.115 316.354C86.44 315.947 85.8814 315.373 85.4932 314.687C85.105 314.002 84.9003 313.227 84.8991 312.439C84.8991 309.706 91.8919 309.706 96.4963 302.006C100.316 295.617 100.618 280.036 101.894 272.5C103.618 265.68 105.774 260.23 110.232 259.239C121.976 256.609 132.107 268.008 132.107 268.008C132.107 268.008 133.262 263.826 116.647 254.565Z" fill="#263238"/>
<g opacity="0.3">
<path d="M111.8 194.449C113.611 197.631 100.022 214.462 95.0982 229.008C90.1748 243.554 95.1844 252.082 95.1844 252.082" stroke="white" stroke-width="0.343709" stroke-linecap="round" stroke-linejoin="round"/>
<path d="M81.3543 198.812C81.3543 198.812 66.5669 211.547 74.9824 234.836C83.3979 258.125 79.673 274.18 76.8707 286.735C74.0684 299.289 76.3447 303.6 79.7592 307.015" stroke="white" stroke-width="0.343709" stroke-linecap="round" stroke-linejoin="round"/>
<path d="M99.9624 237.251C99.9624 237.251 107.895 246.184 102.454 259.092C97.0135 272 94.056 281.226 92.0039 291.271C89.9517 301.316 85.4077 303.817 85.4077 303.817" stroke="white" stroke-width="0.343709" stroke-linecap="round" stroke-linejoin="round"/>
<path d="M100.419 192.328C100.419 192.328 92.2365 191.949 88.3478 202.408C84.4591 212.867 88.1236 230.94 86.7613 237.251" stroke="white" stroke-width="0.343709" stroke-linecap="round" stroke-linejoin="round"/>
<path d="M79.2669 192.329C79.2669 192.329 67.2644 192.829 63.4361 209.427C59.6077 226.025 71.1359 239.976 72.3603 252.91C73.5847 265.844 66.3246 277.82 66.7643 286.736C67.2041 295.651 72.3603 300.359 72.3603 300.359" stroke="white" stroke-width="0.343709" stroke-linecap="round" stroke-linejoin="round"/>
</g>
<path d="M154.319 260.608C154.319 260.608 180.583 262.566 184.333 262.566C188.084 262.566 222.876 228.076 229.015 221.29C235.154 214.504 261.78 205.977 261.78 205.977C261.78 205.977 261.444 208.796 251.209 213.504C251.209 213.504 256.477 215.142 256.322 219.074C255.986 227.533 255.943 227.791 250.097 226.507C250.097 226.507 246.087 231.102 237.56 228.921C237.56 228.921 217.099 254.374 208.054 265.997C199.009 277.62 195.267 281.518 191.852 282.785C188.438 284.053 146.826 286.76 146.826 286.76L154.319 260.608Z" fill="white" stroke="#263238" stroke-width="0.343709" stroke-linecap="round" stroke-linejoin="round"/>
<path d="M121.251 291.555C134.874 300.082 157.724 289.511 157.724 289.511C157.724 289.511 161.819 270.956 157.724 259.083C157.724 259.083 129.071 253.504 113.378 258.884C112.561 259.193 111.818 259.67 111.196 260.283C110.574 260.896 110.086 261.633 109.766 262.445" fill="#2CE07F"/>
<path d="M121.251 291.555C134.874 300.082 157.724 289.511 157.724 289.511C157.724 289.511 161.819 270.956 157.724 259.083C157.724 259.083 129.071 253.504 113.378 258.884C112.561 259.193 111.818 259.67 111.196 260.283C110.574 260.896 110.086 261.633 109.766 262.445" stroke="#263238" stroke-width="0.343709" stroke-linecap="round" stroke-linejoin="round"/>
<path d="M154.103 258.462C156.385 268.012 156.573 277.943 154.654 287.572" stroke="#263238" stroke-width="0.343709" stroke-linecap="round" stroke-linejoin="round"/>
<path d="M149.542 270.396C149.542 270.396 140.057 285.865 127.934 288.141" stroke="#263238" stroke-width="0.343709" stroke-linecap="round" stroke-linejoin="round"/>
<path d="M140.72 294.418C140.72 294.418 134.417 301.894 126.683 301.894" stroke="#263238" stroke-width="0.343709" stroke-linecap="round" stroke-linejoin="round"/>
<path d="M134.65 294.883C135.242 296.346 135.242 297.982 134.65 299.445C134.65 299.445 135.72 303.937 133.702 310.412C132.219 315.189 132.288 328.735 131.598 338.263C131.598 338.263 133.788 349.757 133.702 367.036" stroke="#263238" stroke-width="0.343709" stroke-linecap="round" stroke-linejoin="round"/>
<path d="M120.07 257.307C120.07 257.307 131.805 256.531 138.737 264.714" stroke="#263238" stroke-width="0.343709" stroke-linecap="round" stroke-linejoin="round"/>
<path d="M254.173 221.395C254.173 221.395 252.449 224.378 250.423 225.06C250.423 225.06 250.268 228.172 245.06 229.216" stroke="#263238" stroke-width="0.343709" stroke-linecap="round" stroke-linejoin="round"/>
<path d="M252.735 223.351C253.228 223.64 253.601 224.096 253.787 224.636" stroke="#263238" stroke-width="0.343709" stroke-linecap="round" stroke-linejoin="round"/>
<path d="M82.6826 346.239C82.6826 346.239 94.8058 362.044 106.36 356.362" stroke="#263238" stroke-width="0.343709" stroke-linecap="round" stroke-linejoin="round"/>
<path d="M113.379 313.507C113.379 313.507 105.196 338.624 86.7783 337.486" stroke="#263238" stroke-width="0.343709" stroke-linecap="round" stroke-linejoin="round"/>
</svg>
