<svg width="22" height="22" viewBox="0 0 22 22" fill="none" xmlns="http://www.w3.org/2000/svg">
<path d="M13.3337 1.6665H20.3337V8.6665H13.3337V1.6665ZM1.66699 13.3332H8.66699V20.3332H1.66699V13.3332ZM13.3337 16.8332C13.3337 17.7614 13.7024 18.6517 14.3588 19.308C15.0152 19.9644 15.9054 20.3332 16.8337 20.3332C17.7619 20.3332 18.6522 19.9644 19.3085 19.308C19.9649 18.6517 20.3337 17.7614 20.3337 16.8332C20.3337 15.9049 19.9649 15.0147 19.3085 14.3583C18.6522 13.7019 17.7619 13.3332 16.8337 13.3332C15.9054 13.3332 15.0152 13.7019 14.3588 14.3583C13.7024 15.0147 13.3337 15.9049 13.3337 16.8332ZM1.66699 5.1665C1.66699 5.62613 1.75752 6.08126 1.93341 6.5059C2.10931 6.93054 2.36711 7.31637 2.69212 7.64138C3.01712 7.96638 3.40296 8.22419 3.8276 8.40008C4.25224 8.57597 4.70737 8.6665 5.16699 8.6665C5.62662 8.6665 6.08174 8.57597 6.50638 8.40008C6.93102 8.22419 7.31686 7.96638 7.64187 7.64138C7.96687 7.31637 8.22468 6.93054 8.40057 6.5059C8.57646 6.08126 8.66699 5.62613 8.66699 5.1665C8.66699 4.70688 8.57646 4.25175 8.40057 3.82711C8.22468 3.40247 7.96687 3.01664 7.64187 2.69163C7.31686 2.36663 6.93102 2.10882 6.50638 1.93293C6.08174 1.75703 5.62662 1.6665 5.16699 1.6665C4.70737 1.6665 4.25224 1.75703 3.8276 1.93293C3.40296 2.10882 3.01712 2.36663 2.69212 2.69163C2.36711 3.01664 2.10931 3.40247 1.93341 3.82711C1.75752 4.25175 1.66699 4.70688 1.66699 5.1665Z" stroke="#E0E0E0" stroke-width="2" stroke-linecap="round" stroke-linejoin="round"/>
</svg>
