<svg width="24" height="23" viewBox="0 0 24 23" fill="none" xmlns="http://www.w3.org/2000/svg">
<path d="M2.66634 22.4999H13.8897C14.5629 22.4999 15.2281 22.3542 15.8397 22.0729C16.4513 21.7916 16.9948 21.3813 17.4328 20.8701L23.3852 13.9261C23.5098 13.781 23.5968 13.6074 23.6386 13.4207C23.6803 13.2339 23.6755 13.0398 23.6246 12.8554C23.5737 12.671 23.4781 12.5019 23.3465 12.3631C23.2148 12.2243 23.051 12.12 22.8695 12.0594L20.5735 11.2941C20.0186 11.1134 19.4277 11.0724 18.8532 11.1748C18.2787 11.2772 17.7383 11.5197 17.28 11.8809L13.5642 14.8524L12.8443 13.4116C12.4587 12.6349 11.8633 11.9818 11.1255 11.5261C10.3878 11.0704 9.53715 10.8304 8.67001 10.8333H2.66634C1.37951 10.8333 0.333008 11.8798 0.333008 13.1666V20.1666C0.333008 21.4534 1.37951 22.4999 2.66634 22.4999ZM2.66634 13.1666H8.67001C9.56017 13.1666 10.3593 13.6601 10.7572 14.4558L11.2787 15.4999H6.16634V17.8333H13.1827C13.3621 17.8307 13.5386 17.7868 13.6983 17.7049L13.7018 17.7038L13.7065 17.7014H13.71L13.7123 17.7003H13.717L13.7182 17.6991C13.731 17.7026 13.7217 17.6979 13.7217 17.6979C13.7357 17.6979 13.724 17.6968 13.724 17.6968H13.7252L13.7275 17.6956L13.731 17.6944L13.7333 17.6933L13.7357 17.6921L13.7392 17.6909L13.7415 17.6898L13.7438 17.6886L13.7473 17.6863L13.7497 17.6851L13.752 17.6839L13.7555 17.6828L13.7578 17.6816H13.759L13.7613 17.6804L13.7648 17.6793L13.7672 17.6781C13.78 17.6769 13.7707 17.6769 13.7707 17.6769L13.773 17.6758C13.8178 17.6484 13.8607 17.618 13.9013 17.5848L18.7383 13.7149C19.0428 13.4723 19.4652 13.3964 19.835 13.5201L20.4848 13.7371L15.663 19.3639C15.4412 19.6157 15.1683 19.8175 14.8626 19.9559C14.5569 20.0943 14.2253 20.1661 13.8897 20.1666H2.66634V13.1666ZM14.0542 0.713609C13.5163 1.30394 10.833 4.36644 10.833 6.74994C10.833 9.00161 12.6647 10.8333 14.9163 10.8333C17.168 10.8333 18.9997 9.00161 18.9997 6.74994C18.9997 4.36644 16.3163 1.30394 15.7785 0.713609C15.3363 0.228276 14.4963 0.228276 14.0542 0.713609ZM16.6663 6.74994C16.6663 7.71478 15.8812 8.49994 14.9163 8.49994C13.9515 8.49994 13.1663 7.71478 13.1663 6.74994C13.1663 5.92394 14.0273 4.49361 14.9163 3.32694C15.8053 4.49361 16.6663 5.92394 16.6663 6.74994Z" fill="#E0E0E0"/>
</svg>
