<svg width="22" height="26" viewBox="0 0 22 26" fill="none" xmlns="http://www.w3.org/2000/svg">
<path fill-rule="evenodd" clip-rule="evenodd" d="M9.6 1.09167C10.0039 0.788748 10.4951 0.625 11 0.625C11.5049 0.625 11.9961 0.788748 12.4 1.09167L20.5667 7.21667C20.8565 7.43401 21.0917 7.71584 21.2537 8.03983C21.4157 8.36383 21.5 8.72109 21.5 9.08333V20.1667C21.5 20.7855 21.2542 21.379 20.8166 21.8166C20.379 22.2542 19.7855 22.5 19.1667 22.5H2.83333C2.21449 22.5 1.621 22.2542 1.18342 21.8166C0.745833 21.379 0.5 20.7855 0.5 20.1667V9.08333C0.5 8.72109 0.584339 8.36383 0.746337 8.03983C0.908335 7.71584 1.14354 7.43401 1.43333 7.21667L9.6 1.09167ZM11 2.95833L2.83333 9.08333V20.1667H19.1667V9.08333L11 2.95833Z" fill="#FDFDFD"/>
</svg>
